<svg width="1400" height="555" viewBox="0 0 1400 555" fill="none" xmlns="http://www.w3.org/2000/svg">
<path d="M544.964 261.048L544.946 261.047H544.929C543.581 261.047 542.461 261.437 541.748 262.295C541.038 263.149 540.819 264.36 541.033 265.81C542.66 278.813 543.137 291.964 542.458 305.073L542.457 305.084L542.457 305.096C542.42 312.935 541.243 320.71 538.976 328.113C533.504 294.274 521.242 262.266 503.113 234.515C523.888 241.85 543.75 252.119 562.22 265.075C557.913 264.041 553.57 262.997 549.282 261.829C547.869 261.411 546.423 261.15 544.964 261.048Z" stroke="black" stroke-opacity="0.12"/>
<path d="M474.056 192.259L474.051 192.278L474.048 192.298C473.743 194.47 473.42 196.642 473.097 198.816L473.097 198.817C472.774 200.99 472.451 203.165 472.144 205.341C471.937 206.816 472.028 207.988 472.652 208.796C473.287 209.619 474.352 209.914 475.685 209.953L475.698 209.953L475.711 209.953C479.055 209.876 482.387 209.464 485.665 208.722C489.736 207.898 493.866 207.493 498.002 207.512L498.016 207.512L498.029 207.512C504.127 207.214 510.236 207.366 516.316 207.968C521.116 208.462 525.878 209.337 530.567 210.586C523.34 212.515 516.547 214.595 509.868 217.069C502.487 219.796 495.267 223.041 488.249 226.783L488.248 226.784C481.305 230.514 474.604 234.784 468.192 239.561L468.189 239.564C462.33 244.017 456.684 248.811 451.273 253.925C456.855 230.397 464.787 207.651 474.917 186.119C474.91 186.263 474.895 186.409 474.873 186.557C474.843 186.764 474.805 186.96 474.764 187.169C474.744 187.276 474.722 187.385 474.701 187.502C474.642 187.825 474.589 188.174 474.588 188.538C474.507 189.794 474.329 191.038 474.056 192.259Z" stroke="black" stroke-opacity="0.12"/>
<path d="M441.607 275.798C437.825 271.091 434.354 266.082 431.22 260.809C432.858 261.537 434.397 262.527 435.79 263.753L435.816 263.776L435.845 263.795C454.972 276.402 476.015 284.936 497.913 288.963C503.272 289.953 508.684 290.551 514.463 291.057C496.344 302.753 477.151 312.211 457.221 319.27L469.76 308.917L469.76 308.917L469.768 308.911C470.96 307.888 471.661 306.844 471.651 305.714C471.64 304.586 470.922 303.564 469.766 302.582L469.754 302.572L469.742 302.563C459.487 294.873 450.047 285.894 441.607 275.798Z" stroke="black" stroke-opacity="0.12"/>
<path d="M492.265 261.465L492.265 261.48L492.265 261.495C492.3 262.217 492.201 262.939 491.977 263.615C491.753 264.29 491.409 264.904 490.968 265.417C490.527 265.931 490.001 266.334 489.423 266.604C488.845 266.874 488.226 267.007 487.605 266.997L487.605 266.997H487.597C486.956 266.997 486.321 266.855 485.725 266.579C485.13 266.302 484.585 265.895 484.123 265.377C483.661 264.859 483.292 264.241 483.039 263.557C482.788 262.876 482.658 262.145 482.656 261.406C482.724 259.953 483.295 258.597 484.232 257.623C485.17 256.649 486.397 256.137 487.65 256.174L487.657 256.174L487.665 256.174C488.265 256.174 488.862 256.308 489.42 256.57C489.978 256.832 490.489 257.217 490.92 257.707C491.351 258.197 491.694 258.782 491.926 259.428L492.396 259.259L491.926 259.428C492.157 260.074 492.273 260.766 492.265 261.465Z" stroke="black" stroke-opacity="0.12"/>
<path d="M1139.96 485.78L1139.95 485.779H1139.93C1138.58 485.779 1137.46 486.168 1136.75 487.027C1136.04 487.88 1135.82 489.091 1136.03 490.541C1137.66 503.544 1138.14 516.696 1137.46 529.804L1137.46 529.816L1137.46 529.828C1137.42 537.667 1136.24 545.441 1133.98 552.844C1128.5 519.005 1116.24 486.998 1098.11 459.246C1118.89 466.581 1138.75 476.85 1157.22 489.806C1152.91 488.772 1148.57 487.728 1144.28 486.56C1142.87 486.143 1141.42 485.881 1139.96 485.78Z" stroke="black" stroke-opacity="0.12"/>
<path d="M1069.06 416.99L1069.05 417.01L1069.05 417.03C1068.74 419.201 1068.42 421.373 1068.1 423.547L1068.1 423.549C1067.77 425.722 1067.45 427.897 1067.14 430.072C1066.94 431.548 1067.03 432.719 1067.65 433.527C1068.29 434.35 1069.35 434.645 1070.68 434.684L1070.7 434.685L1070.71 434.684C1074.06 434.608 1077.39 434.195 1080.66 433.453C1084.74 432.629 1088.87 432.224 1093 432.244L1093.02 432.244L1093.03 432.243C1099.13 431.945 1105.24 432.098 1111.32 432.699C1116.12 433.194 1120.88 434.069 1125.57 435.317C1118.34 437.246 1111.55 439.327 1104.87 441.8C1097.49 444.528 1090.27 447.772 1083.25 451.515L1083.25 451.516C1076.31 455.246 1069.6 459.515 1063.19 464.293L1063.19 464.295C1057.33 468.749 1051.68 473.542 1046.27 478.657C1051.86 455.128 1059.79 432.382 1069.92 410.85C1069.91 410.995 1069.89 411.14 1069.87 411.289C1069.84 411.496 1069.81 411.692 1069.76 411.9C1069.74 412.007 1069.72 412.117 1069.7 412.233C1069.64 412.556 1069.59 412.906 1069.59 413.27C1069.51 414.525 1069.33 415.77 1069.06 416.99Z" stroke="black" stroke-opacity="0.12"/>
<path d="M1036.61 500.53C1032.83 495.823 1029.35 490.813 1026.22 485.541C1027.86 486.268 1029.4 487.258 1030.79 488.485L1030.82 488.508L1030.85 488.527C1049.97 501.134 1071.01 509.667 1092.91 513.695C1098.27 514.685 1103.68 515.282 1109.46 515.788C1091.34 527.484 1072.15 536.943 1052.22 544.001L1064.76 533.648L1064.76 533.648L1064.77 533.642C1065.96 532.62 1066.66 531.576 1066.65 530.445C1066.64 529.317 1065.92 528.296 1064.77 527.314L1064.75 527.304L1064.74 527.295C1054.49 519.605 1045.05 510.625 1036.61 500.53Z" stroke="black" stroke-opacity="0.12"/>
<path d="M1087.26 486.197L1087.26 486.212L1087.27 486.226C1087.3 486.949 1087.2 487.67 1086.98 488.346C1086.75 489.022 1086.41 489.635 1085.97 490.149C1085.53 490.662 1085 491.065 1084.42 491.335C1083.84 491.606 1083.23 491.739 1082.6 491.728L1082.6 491.728H1082.6C1081.96 491.728 1081.32 491.587 1080.73 491.31C1080.13 491.034 1079.58 490.626 1079.12 490.108C1078.66 489.59 1078.29 488.972 1078.04 488.288C1077.79 487.608 1077.66 486.877 1077.66 486.138C1077.72 484.684 1078.29 483.328 1079.23 482.355C1080.17 481.381 1081.4 480.868 1082.65 480.906L1082.66 480.906L1082.66 480.906C1083.27 480.906 1083.86 481.04 1084.42 481.301C1084.98 481.563 1085.49 481.949 1085.92 482.439C1086.35 482.929 1086.69 483.513 1086.93 484.159L1087.4 483.99L1086.93 484.159C1087.16 484.805 1087.27 485.498 1087.26 486.197Z" stroke="black" stroke-opacity="0.12"/>
<path d="M1416.96 76.9731L1416.95 76.9719H1416.93C1415.58 76.9719 1414.46 77.3617 1413.75 78.2201C1413.04 79.0738 1412.82 80.2848 1413.03 81.7346C1414.66 94.7376 1415.14 107.889 1414.46 120.998L1414.46 121.009L1414.46 121.021C1414.42 128.86 1413.24 136.634 1410.98 144.038C1405.5 110.198 1393.24 78.1909 1375.11 50.4396C1395.89 57.7748 1415.75 68.0434 1434.22 80.9994C1429.91 79.9654 1425.57 78.9214 1421.28 77.7536C1419.87 77.3361 1418.42 77.0746 1416.96 76.9731Z" stroke="black" stroke-opacity="0.12"/>
<path d="M1346.06 8.18356L1346.05 8.20326L1346.05 8.22325C1345.74 10.3948 1345.42 12.5667 1345.1 14.7407L1345.1 14.7419C1344.77 16.9149 1344.45 19.0902 1344.14 21.2658C1343.94 22.7411 1344.03 23.9124 1344.65 24.7205C1345.29 25.5433 1346.35 25.8384 1347.68 25.8777L1347.7 25.8781L1347.71 25.8778C1351.06 25.8009 1354.39 25.3888 1357.66 24.6465C1361.74 23.8224 1365.87 23.4177 1370 23.4372L1370.02 23.4373L1370.03 23.4366C1376.13 23.1387 1382.24 23.2909 1388.32 23.8924C1393.12 24.3871 1397.88 25.2621 1402.57 26.5105C1395.34 28.4395 1388.55 30.5202 1381.87 32.9938C1374.49 35.7212 1367.27 38.9657 1360.25 42.7082L1360.25 42.7089C1353.31 46.4392 1346.6 50.7086 1340.19 55.4859L1340.19 55.4888C1334.33 59.9419 1328.68 64.7356 1323.27 69.8501C1328.86 46.3218 1336.79 23.5756 1346.92 2.04353C1346.91 2.18792 1346.89 2.33363 1346.87 2.48209C1346.84 2.68912 1346.81 2.8852 1346.76 3.09373C1346.74 3.20033 1346.72 3.31018 1346.7 3.42641C1346.64 3.74981 1346.59 4.09888 1346.59 4.46287C1346.51 5.71832 1346.33 6.9633 1346.06 8.18356Z" stroke="black" stroke-opacity="0.12"/>
<path d="M1313.61 91.7232C1309.83 87.0159 1306.35 82.0063 1303.22 76.7341C1304.86 77.4613 1306.4 78.4517 1307.79 79.6779L1307.82 79.701L1307.85 79.7201C1326.97 92.3269 1348.01 100.86 1369.91 104.888C1375.27 105.878 1380.68 106.475 1386.46 106.982C1368.34 118.677 1349.15 128.136 1329.22 135.194L1341.76 124.841L1341.76 124.841L1341.77 124.835C1342.96 123.813 1343.66 122.769 1343.65 121.639C1343.64 120.511 1342.92 119.489 1341.77 118.507L1341.75 118.497L1341.74 118.488C1331.49 110.798 1322.05 101.819 1313.61 91.7232Z" stroke="black" stroke-opacity="0.12"/>
<path d="M1364.26 77.39L1364.26 77.4049L1364.27 77.4198C1364.3 78.1421 1364.2 78.8638 1363.98 79.5395C1363.75 80.2152 1363.41 80.8283 1362.97 81.3421C1362.53 81.8557 1362 82.2584 1361.42 82.5287C1360.84 82.7989 1360.23 82.9319 1359.6 82.9216L1359.6 82.9215H1359.6C1358.96 82.9215 1358.32 82.7802 1357.73 82.5036C1357.13 82.2269 1356.58 81.8195 1356.12 81.3016C1355.66 80.7835 1355.29 80.1655 1355.04 79.4815C1354.79 78.801 1354.66 78.0702 1354.66 77.3309C1354.72 75.8774 1355.29 74.5215 1356.23 73.5482C1357.17 72.5743 1358.4 72.0617 1359.65 72.0991L1359.66 72.0993L1359.66 72.0993C1360.27 72.0992 1360.86 72.2329 1361.42 72.4946C1361.98 72.7564 1362.49 73.1419 1362.92 73.6319C1363.35 74.1221 1363.69 74.7064 1363.93 75.3524L1364.4 75.1835L1363.93 75.3524C1364.16 75.9983 1364.27 76.6911 1364.26 77.39Z" stroke="black" stroke-opacity="0.12"/>
<path d="M114.964 195.55L114.946 195.549H114.929C113.581 195.549 112.461 195.938 111.748 196.797C111.038 197.651 110.819 198.861 111.033 200.311C112.66 213.314 113.137 226.466 112.458 239.574L112.457 239.586L112.457 239.598C112.42 247.437 111.243 255.211 108.976 262.614C103.504 228.775 91.2424 196.768 73.1127 169.016C93.8884 176.351 113.75 186.62 132.22 199.576C127.913 198.542 123.57 197.498 119.282 196.33C117.869 195.913 116.423 195.651 114.964 195.55Z" stroke="black" stroke-opacity="0.12"/>
<path d="M44.0557 126.76L44.0513 126.78L44.0484 126.8C43.7427 128.971 43.42 131.143 43.0969 133.317L43.0968 133.319C42.7739 135.492 42.4506 137.667 42.1443 139.842C41.9367 141.318 42.0279 142.489 42.6517 143.297C43.2867 144.12 44.3522 144.415 45.6849 144.454L45.698 144.455L45.7111 144.454C49.0554 144.378 52.3866 143.965 55.665 143.223C59.7362 142.399 63.8658 141.994 68.0024 142.014L68.0158 142.014L68.0291 142.013C74.127 141.715 80.2356 141.868 86.3157 142.469C91.1158 142.964 95.8781 143.839 100.567 145.087C93.3403 147.016 86.5474 149.097 79.868 151.57C72.4871 154.298 65.2665 157.542 58.249 161.285L58.2476 161.286C51.305 165.016 44.6037 169.285 38.1925 174.063L38.1887 174.065C32.3299 178.519 26.6836 183.312 21.2728 188.427C26.855 164.898 34.7866 142.152 44.9167 120.62C44.9102 120.765 44.8946 120.91 44.8732 121.059C44.8434 121.266 44.8051 121.462 44.7644 121.67C44.7436 121.777 44.7222 121.887 44.7009 122.003C44.6418 122.326 44.5892 122.676 44.5876 123.04C44.5073 124.295 44.3293 125.54 44.0557 126.76Z" stroke="black" stroke-opacity="0.12"/>
<path d="M11.6073 210.3C7.8253 205.593 4.35384 200.583 1.22034 195.311C2.8577 196.038 4.3973 197.028 5.78988 198.255L5.81604 198.278L5.84514 198.297C24.9719 210.904 46.0148 219.437 67.913 223.465C73.2716 224.455 78.6838 225.052 84.4627 225.558C66.344 237.254 47.1512 246.713 27.2208 253.771L39.7603 243.418L39.7604 243.418L39.7675 243.412C40.9597 242.39 41.6612 241.346 41.6506 240.215C41.64 239.087 40.9216 238.066 39.7657 237.084L39.7541 237.074L39.7419 237.065C29.4867 229.375 20.0471 220.395 11.6073 210.3Z" stroke="black" stroke-opacity="0.12"/>
<path d="M62.2648 195.967L62.2646 195.982L62.2653 195.996C62.2998 196.719 62.2014 197.44 61.9772 198.116C61.753 198.792 61.4085 199.405 60.9678 199.919C60.5273 200.432 60.0006 200.835 59.4226 201.105C58.8449 201.376 58.2264 201.509 57.6048 201.498L57.6048 201.498H57.5965C56.9563 201.498 56.3206 201.357 55.7253 201.08C55.1297 200.804 54.5847 200.396 54.1229 199.878C53.661 199.36 53.292 198.742 53.0394 198.058C52.7881 197.378 52.6576 196.647 52.6563 195.908C52.7241 194.454 53.2947 193.098 54.2319 192.125C55.1697 191.151 56.3973 190.638 57.6496 190.676L57.6571 190.676L57.6646 190.676C58.2653 190.676 58.8618 190.81 59.4199 191.071C59.9782 191.333 60.4887 191.719 60.9198 192.209C61.3511 192.699 61.6938 193.283 61.9256 193.929L62.3962 193.76L61.9256 193.929C62.1575 194.575 62.2731 195.268 62.2648 195.967Z" stroke="black" stroke-opacity="0.12"/>
</svg>
