<svg width="226" height="226" viewBox="0 0 226 226" fill="none" xmlns="http://www.w3.org/2000/svg">
<g filter="url(#filter0_bd_30_442)">
<rect x="43" y="43" width="140" height="140" rx="70" fill="white" fill-opacity="0.08" shape-rendering="crispEdges"/>
<rect x="44" y="44" width="138" height="138" rx="69" stroke="white" stroke-width="2" shape-rendering="crispEdges"/>
<path d="M118.215 99.5757C131.872 103.79 144.914 109.799 156.999 117.446L156.866 117.771C153.863 117.102 150.851 116.452 147.849 115.735C146.98 115.518 146.093 115.38 145.199 115.324C143.626 115.257 142.788 116.108 143.026 117.666C144.067 125.005 144.386 132.428 143.979 139.83C143.914 144.673 143.008 149.469 141.301 154C137.393 134.198 130.673 115.811 118.215 99.5757Z" fill="#85C227"/>
<path d="M85.6758 111.862C89.3242 98.0033 94.587 84.6238 101.355 72C101.832 72.8319 101.289 73.5203 101.251 74.2278C101.183 74.9454 101.069 75.6577 100.907 76.3601C100.507 78.8078 100.088 81.2556 99.7064 83.7033C99.4396 85.3383 99.9829 85.9598 101.613 85.9885C103.727 85.9611 105.833 85.7306 107.904 85.3001C110.477 84.8607 113.081 84.6336 115.691 84.6212C119.572 84.4418 123.46 84.5217 127.329 84.8603C130.755 85.1951 134.151 85.7831 137.49 86.6196C132.505 87.7861 127.882 89.0482 123.336 90.5398C118.702 92.0818 114.169 93.9116 109.762 96.0186C105.4 98.0837 101.201 100.478 97.1996 103.18C93.2019 105.859 89.3548 108.758 85.6758 111.862Z" fill="#E67817"/>
<path d="M73 114.309C74.506 114.558 75.6117 115.629 76.8603 116.356C88.8179 123.405 101.964 128.191 115.645 130.478C119.295 131.08 122.975 131.434 126.949 131.692C114.859 138.793 101.992 144.468 88.6034 148.607C91.6726 146.331 94.7609 144.075 97.7824 141.799C99.2598 140.69 99.2027 139.705 97.649 138.634C91.2267 134.291 85.3285 129.215 80.0725 123.508C77.4761 120.636 75.1261 117.549 73.0477 114.281L73 114.309Z" fill="#7C2F7F"/>
<path d="M112.507 115.275C112.525 115.717 112.454 116.157 112.296 116.57C112.138 116.983 111.898 117.359 111.59 117.675C111.282 117.991 110.912 118.241 110.505 118.408C110.097 118.576 109.659 118.658 109.219 118.65C108.769 118.652 108.324 118.564 107.908 118.392C107.492 118.22 107.114 117.967 106.796 117.648C106.478 117.329 106.226 116.95 106.055 116.533C105.883 116.116 105.796 115.669 105.797 115.218C105.814 114.779 105.918 114.348 106.102 113.949C106.285 113.551 106.546 113.193 106.869 112.896C107.191 112.599 107.569 112.369 107.981 112.22C108.392 112.07 108.829 112.004 109.266 112.024C109.693 112.022 110.115 112.104 110.51 112.266C110.904 112.429 111.262 112.668 111.564 112.971C111.865 113.273 112.104 113.632 112.266 114.028C112.428 114.424 112.51 114.847 112.507 115.275Z" fill="#E67817"/>
<path d="M73.043 114.281V114.137C73.043 114.137 73.043 114.137 73.043 114.195C73.0478 114.233 73.0478 114.271 73.043 114.309V114.281Z" fill="#1F1B18"/>
</g>
<defs>
<filter id="filter0_bd_30_442" x="0" y="0" width="226" height="226" filterUnits="userSpaceOnUse" color-interpolation-filters="sRGB">
<feFlood flood-opacity="0" result="BackgroundImageFix"/>
<feGaussianBlur in="BackgroundImageFix" stdDeviation="19.5"/>
<feComposite in2="SourceAlpha" operator="in" result="effect1_backgroundBlur_30_442"/>
<feColorMatrix in="SourceAlpha" type="matrix" values="0 0 0 0 0 0 0 0 0 0 0 0 0 0 0 0 0 0 127 0" result="hardAlpha"/>
<feOffset/>
<feGaussianBlur stdDeviation="21.5"/>
<feComposite in2="hardAlpha" operator="out"/>
<feColorMatrix type="matrix" values="0 0 0 0 0 0 0 0 0 0 0 0 0 0 0 0 0 0 0.04 0"/>
<feBlend mode="normal" in2="effect1_backgroundBlur_30_442" result="effect2_dropShadow_30_442"/>
<feBlend mode="normal" in="SourceGraphic" in2="effect2_dropShadow_30_442" result="shape"/>
</filter>
</defs>
</svg>
