<svg width="35" height="33" viewBox="0 0 35 33" fill="none" xmlns="http://www.w3.org/2000/svg">
<g clip-path="url(#clip0_34_6741)">
<path d="M27.9989 26.9911V31.2476C27.9989 31.4169 28.0281 31.5685 27.7753 31.6214C25.792 32.0353 23.8223 32.5284 21.8274 32.8729C19.795 33.2502 17.6966 32.8115 15.9816 31.6507C13.2079 29.8248 10.4012 28.0489 7.61294 26.2455C6.3102 25.404 6.00201 23.7992 6.9324 22.7062C7.61294 21.9048 8.5268 21.7884 9.46789 22.032C11.3151 22.5086 13.1399 23.0477 14.9773 23.5517C15.2223 23.6192 15.1718 23.7777 15.1718 23.9431C15.1334 24.7562 15.3761 25.5577 15.8585 26.2111C16.341 26.8646 17.0334 27.3297 17.8181 27.5273C18.076 27.597 18.3414 27.6345 18.6085 27.6389C20.3701 27.6486 22.1327 27.6467 23.8943 27.6389C24.4115 27.6389 24.6954 27.222 24.4873 26.7827C24.358 26.5097 24.1189 26.4656 23.8467 26.4666C22.1453 26.4712 20.444 26.4712 18.7426 26.4666C18.3899 26.4611 18.0427 26.3784 17.7249 26.2242C17.4072 26.07 17.1266 25.8481 16.9026 25.5738C16.6787 25.2995 16.5167 24.9794 16.428 24.6358C16.3393 24.2922 16.326 23.9333 16.3889 23.5839C16.4913 23.0818 16.7606 22.6297 17.1524 22.302C17.5441 21.9744 18.035 21.7909 18.5443 21.7815C20.8523 21.76 23.1622 21.7365 25.4692 21.8031C26.2285 21.8246 26.98 22.123 27.7354 22.2923C27.9522 22.3412 28.0047 22.4733 28.0038 22.6896C27.9989 24.129 27.9989 25.5605 27.9989 26.9911Z" fill="black"/>
<path d="M10.5 12.3939H12.8333C12.8333 12.7363 12.8333 13.0729 12.8333 13.4095C12.8333 13.9125 13.0024 14.0945 13.4846 14.1493C14.103 14.2148 14.5074 14.616 14.5784 15.2335C14.6367 15.7472 14.8107 15.9077 15.3328 15.9086H27.8352C28.3524 15.9086 28.5274 15.7452 28.5857 15.2237C28.6548 14.6131 29.0631 14.2119 29.6853 14.1473C30.15 14.0974 30.3299 13.9076 30.3308 13.4389C30.3308 11.9594 30.3308 10.4796 30.3308 8.99943C30.3308 8.50431 30.1636 8.3272 29.6688 8.27044C29.3934 8.25019 29.1339 8.13283 28.9359 7.93899C28.738 7.74516 28.6144 7.48728 28.5867 7.21073C28.5206 6.65983 28.3631 6.51403 27.8177 6.51403C24.5978 6.51403 21.3782 6.51403 18.159 6.51403C18.0358 6.5213 17.9124 6.5027 17.7968 6.45941C17.6811 6.41611 17.5757 6.34908 17.4872 6.26256C16.8518 5.65996 16.0073 5.33157 15.1345 5.34766C13.7607 5.34766 12.388 5.34766 11.0153 5.34766H10.6565C10.7563 5.02007 10.9541 4.73148 11.2229 4.52131C11.4918 4.31114 11.8185 4.18966 12.1586 4.17345C12.2684 4.1666 12.3773 4.17345 12.4872 4.17345H30.675C31.9855 4.16758 32.666 4.85743 32.666 6.18623C32.666 9.54837 32.666 12.9112 32.666 16.2746C32.666 17.5467 31.968 18.257 30.711 18.257H12.4502C11.2146 18.257 10.5058 17.5408 10.5 16.3C10.5 15.1258 10.5 13.9516 10.5 12.7774V12.3939Z" fill="black"/>
<path d="M7 1.38772C8.49524 1.03253 9.972 0.69005 11.4439 0.33094C12.5882 0.0520667 13.7363 -0.0810097 14.9117 0.0530452C16.0414 0.181229 17.1108 0.489457 18.0597 1.10885C18.9347 1.68225 19.7717 2.31143 20.6185 2.99247H12.488C10.4464 2.99247 9.16605 4.40836 9.36049 6.51508H9.74062C11.5635 6.51508 13.3863 6.49844 15.2082 6.52486C16.1804 6.53954 16.8999 7.0327 17.2936 7.92999C17.6873 8.82728 17.5337 9.68053 16.9047 10.4232C16.7018 10.6694 16.4472 10.8673 16.1593 11.0026C15.8713 11.138 15.5572 11.2074 15.2394 11.206C13.3562 11.2158 11.4711 11.2579 9.5909 11.1806C8.78981 11.1551 8.00331 10.8616 7.21777 10.6659C7.12639 10.6424 7.01069 10.4633 7.01069 10.3567C7 7.38105 7 4.40934 7 1.38772Z" fill="black"/>
<path d="M5.83317 5.96875C5.83317 7.65634 5.83317 9.34426 5.83317 11.0325C5.83317 11.6079 5.63873 11.8016 5.06805 11.8026C3.63439 11.8026 2.2004 11.8026 0.76609 11.8026C0.193467 11.8026 0 11.6069 0 11.0335C0 7.6309 0 4.2293 0 0.82868C0 0.257235 0.194439 0.0585986 0.76609 0.0576201C2.19975 0.0556631 3.63374 0.0556631 5.06805 0.0576201C5.63873 0.0585986 5.83317 0.253321 5.83317 0.827702C5.83317 2.54008 5.83317 4.25377 5.83317 5.96875Z" fill="black"/>
<path d="M35.0002 27.0634C35.0002 28.7595 35.0002 30.4585 35.0002 32.1604C35.0002 32.7377 34.8057 32.9334 34.2409 32.9344C32.7949 32.9344 31.3499 32.9344 29.9059 32.9344C29.3653 32.9344 29.168 32.7299 29.168 32.1751C29.168 28.766 29.168 25.3562 29.168 21.9458C29.168 21.392 29.3624 21.1914 29.9088 21.1914C31.3651 21.1914 32.8234 21.1914 34.2837 21.1914C34.8028 21.1914 35.0031 21.3998 35.0041 21.9302C35.0015 23.6419 35.0002 25.353 35.0002 27.0634Z" fill="black"/>
<path d="M21.5832 13.5581C21.1211 13.5581 20.6694 13.42 20.2854 13.1613C19.9014 12.9026 19.6024 12.535 19.4262 12.105C19.25 11.675 19.2047 11.2021 19.2959 10.7462C19.3871 10.2902 19.6108 9.8718 19.9386 9.54396C20.2664 9.21613 20.6835 8.99363 21.137 8.90468C21.5906 8.81573 22.0602 8.86433 22.4863 9.04433C22.9124 9.22433 23.2758 9.52761 23.5304 9.91573C23.785 10.3039 23.9194 10.7593 23.9165 11.2244C23.9091 11.8436 23.6605 12.4351 23.2241 12.8716C22.7877 13.308 22.1984 13.5546 21.5832 13.5581Z" fill="black"/>
</g>
<defs>
<clipPath id="clip0_34_6741">
<rect width="35" height="33" fill="white"/>
</clipPath>
</defs>
</svg>
