<svg width="111" height="25" viewBox="0 0 111 25" fill="none" xmlns="http://www.w3.org/2000/svg">
<g clip-path="url(#clip0_32_6524)">
<path d="M60.453 21.0516C59.9841 21.074 59.5852 21.1433 59.1999 21.0997C58.6349 21.0348 58.3897 21.2417 58.2959 21.794C58.0936 23.0296 57.3524 23.8883 56.2134 24.3881C55.8375 24.5598 55.4306 24.6552 55.0168 24.6687C53.3218 24.6833 51.6269 24.7179 49.9398 24.5994C49.1489 24.5446 48.3895 24.4306 47.6042 24.6173C47.2347 24.688 46.8582 24.7161 46.4821 24.7012C39.627 24.7056 32.7742 24.7075 25.9236 24.7067C25.1147 24.7246 24.3106 24.58 23.5597 24.2819C23.18 24.1253 22.6557 24.2461 22.2037 24.3299C21.1563 24.5301 20.1291 24.9169 19.0771 24.9852C17.3686 25.097 15.8172 24.548 14.529 23.3818C14.4318 23.2934 14.3392 23.2006 14.2465 23.1089C13.8929 22.7567 13.5686 22.7075 13.2397 23.1559C12.3618 24.3478 11.1391 24.7392 9.68939 24.7146C7.39218 24.6754 5.09496 24.7146 2.79661 24.6989C1.27229 24.6877 0.290354 24.0716 0.0485414 22.7981C-0.139033 21.8198 0.137809 20.7542 0.936693 20.1683C2.06666 19.3364 2.22485 18.2071 2.42711 17.0152C2.93786 14.088 3.46894 11.1641 3.95483 8.23127C4.01019 7.89584 3.94918 7.44859 3.76047 7.18919C2.58983 5.55003 2.96272 3.60338 4.68704 2.51098C5.33225 2.10175 6.03509 1.97876 6.77974 1.97876C10.7723 1.97876 14.7648 1.97689 18.7574 1.97317C19.1268 1.97317 19.5348 1.95863 19.8591 1.80992C21.5224 1.04513 23.0478 2.63733 22.8964 4.04616C22.8151 4.79642 22.8817 5.56233 22.8817 6.41769C23.519 6.35172 24.1122 6.31482 24.6976 6.22537C26.9575 5.88211 29.1508 6.02746 31.2514 7.03265C31.5101 7.15676 31.9293 7.2082 32.1632 7.08185C33.2141 6.50937 34.3678 6.51608 35.4989 6.4244C36.7724 6.32153 38.0537 6.26227 39.3317 6.26339C39.7976 6.27475 40.2519 6.40867 40.6481 6.65137C41.2063 6.99575 41.708 6.98681 42.3081 6.8135C43.325 6.51943 44.3702 6.11356 45.4098 6.09343C48.5036 6.03529 50.9704 7.77061 50.9263 11.3374C50.9133 11.4615 50.9458 11.5861 51.0178 11.6885C51.2076 10.8261 51.396 9.96361 51.5828 9.10117C51.6269 8.90214 51.6608 8.69977 51.6958 8.49739C51.7975 7.87795 51.7952 7.32001 51.3048 6.79114C50.3285 5.73787 50.9839 3.77222 52.0585 2.84977C52.693 2.28275 53.5188 1.97089 54.3738 1.9754C57.1049 1.98211 59.8361 1.96422 62.566 1.99329C63.0505 2.01088 63.5273 2.11821 63.9717 2.30972C64.4621 2.51098 64.8893 2.49421 65.383 2.33432C65.9266 2.15766 66.504 1.99888 67.0701 1.99888C69.3854 1.96087 71.7029 1.97205 74.0194 1.98882C74.5264 2.0015 75.0211 1.83278 75.4126 1.51362C76.9279 0.34407 78.6183 -0.345809 80.5551 0.17747C81.2768 0.368874 81.9377 0.738172 82.476 1.25086C83.0794 1.86024 83.7031 1.92844 84.4591 1.87813C86.2768 1.75513 88.0957 1.65264 89.9157 1.57065C90.24 1.55611 90.5677 1.72942 90.8988 1.75402C91.6586 1.83013 92.4222 1.86335 93.1858 1.85353C94.987 1.78421 96.7847 1.6478 98.5848 1.56282C99.7599 1.50803 101.157 2.64516 100.793 4.22841C100.68 4.73492 100.648 5.25932 100.572 5.77477C100.502 6.25109 100.673 6.4244 101.187 6.4188C103.428 6.39309 105.669 6.40427 107.91 6.4121C109.089 6.4121 109.944 6.98122 110.317 8.07921C110.568 8.80822 110.288 9.51711 109.978 10.1623C109.382 11.3821 108.334 11.9971 106.986 12.1469C106.65 12.1825 106.317 12.2431 105.989 12.3281C105.266 12.5204 105.136 12.7608 105.393 13.4585C106.022 15.1681 106.656 16.8766 107.314 18.575C107.422 18.8328 107.608 19.0511 107.846 19.2C109.354 20.0889 109.357 21.4463 108.627 22.835C107.995 24.0359 106.926 24.681 105.558 24.6911C102.677 24.7112 99.795 24.6687 96.9158 24.6687C94.4491 24.6687 91.9824 24.7012 89.5157 24.7023C80.8526 24.7067 72.1918 24.7067 63.5333 24.7023C63.0826 24.6901 62.6329 24.6528 62.1864 24.5905C61.183 24.4786 60.0394 23.2264 60.3875 22.0445C60.4722 21.7426 60.4315 21.4128 60.453 21.0516ZM56.9264 15.4375H57.0541C57.4417 16.6965 57.8247 17.9578 58.2202 19.2157C58.4903 20.0755 59.2372 20.4847 60.0722 20.1426C60.5156 19.9539 60.9041 19.6583 61.2022 19.2828C61.7762 18.5481 62.2553 17.7409 62.7762 16.9649C63.1529 16.3984 63.5344 15.8322 63.9209 15.2665C63.7604 16.6809 63.5163 18.0528 63.2429 19.4203C63.2067 19.6003 63.0451 19.8508 62.887 19.8988C61.7355 20.2578 61.3332 21.1098 61.2621 22.1977C61.1954 23.2107 61.6937 23.734 62.722 23.7396C63.4937 23.7396 64.2655 23.7396 65.0373 23.7396H105.991C106.993 23.7396 107.723 23.2811 107.995 22.428C108.115 22.0376 108.185 21.6337 108.203 21.226C108.235 20.6077 107.904 20.1079 107.309 19.9614C107.145 19.9275 106.994 19.8502 106.871 19.7378C106.748 19.6253 106.659 19.482 106.612 19.323C105.752 17.0253 105.179 14.6168 103.818 12.4712C104.852 11.8179 106.018 11.3945 107.234 11.2301C108.702 11.0456 109.235 10.5447 109.454 9.10564C109.63 7.93833 109.107 7.32895 107.911 7.32783C105.708 7.32783 103.505 7.31106 101.302 7.33902C100.65 7.34684 100.002 7.4799 99.3441 7.55593C99.5272 6.52055 99.7328 5.37001 99.9328 4.21835C100.126 3.10694 99.5531 2.41706 98.4401 2.44725C97.5938 2.47073 96.7452 2.52216 95.9022 2.5736C94.5135 2.65969 93.1236 2.73461 91.7383 2.86095C91.3643 2.8945 91.0603 2.99177 90.7315 2.67758C90.5451 2.50204 90.1767 2.45396 89.892 2.45396C89.101 2.45396 88.31 2.51098 87.519 2.56577C85.98 2.66305 84.4421 2.77933 82.9031 2.86095C82.7596 2.86878 82.5461 2.7156 82.4658 2.57919C82.2344 2.16115 81.91 1.8006 81.5171 1.52478C81.1243 1.24896 80.6732 1.06507 80.198 0.986988C78.2974 0.651552 76.6601 1.18601 75.303 2.52664C75.1936 2.64883 75.0583 2.74558 74.9067 2.80995C74.7551 2.87432 74.591 2.90472 74.4261 2.89897C71.8464 2.88555 69.2656 2.93363 66.687 2.87773C64.8203 2.83635 64.1412 4.09647 64.2621 5.57127C64.3164 6.21754 64.044 6.56528 63.6791 6.98681C63.6203 6.7084 63.557 6.41321 63.6339 6.1594C63.7853 5.65401 64.0779 5.18552 64.1988 4.67454C64.4531 3.57879 63.8711 2.89562 62.7378 2.89338C59.8191 2.89338 56.9004 2.91574 53.9817 2.88108C52.3071 2.86207 51.5726 4.30444 51.793 5.77253C51.837 6.06101 52.0958 6.45235 52.35 6.54627C52.8766 6.74082 52.8404 7.06731 52.7704 7.46425C52.1331 11.1115 51.4777 14.7566 50.8687 18.4084C50.7252 19.266 50.576 20.0431 49.5839 20.3025C49.5658 20.3025 49.5477 20.3103 49.5455 20.3114L48.5658 19.7904C48.8031 18.4196 49.0585 17.032 49.2811 15.6388C49.55 13.9516 50.0438 12.2934 49.915 10.5558C49.7895 8.85742 48.8223 7.66215 47.1692 7.20149C46.1906 6.92867 45.1895 6.85822 44.2132 7.10757C43.0595 7.40387 41.934 7.81198 40.7566 8.1832C40.5306 7.25628 39.7928 7.05054 38.8413 7.12657C37.2289 7.25628 35.613 7.37927 33.996 7.43517C33.0412 7.46648 32.2683 7.73259 31.8491 8.46384C31.1338 8.08592 30.4932 7.56935 29.7813 7.41281C28.5367 7.13749 27.2644 7.00393 25.9891 7.01476C24.5981 7.04383 23.2094 7.31777 21.8083 7.49108C21.867 6.34725 21.9472 5.17769 21.9811 4.00702C22.0173 2.73461 20.9529 2.10622 19.789 2.66528C19.5076 2.80376 19.1992 2.88007 18.885 2.88891C14.6669 2.90232 10.4476 2.92692 6.22944 2.88891C4.40681 2.85984 3.79324 4.3514 3.90963 5.69315C3.93675 6.0051 4.23619 6.44229 4.51868 6.5541C5.08366 6.77772 5.03507 7.12546 4.9571 7.5604C4.61811 9.4299 4.30059 11.3005 3.96839 13.17C3.60115 15.2408 3.23391 17.307 2.84746 19.3778C2.81243 19.5679 2.67571 19.8429 2.52542 19.8921C1.43614 20.2455 1.01127 21.0248 0.943473 22.0915C0.867765 23.1939 1.34687 23.7317 2.46892 23.7329C5.23733 23.7329 8.00575 23.7004 10.773 23.7452C12.6262 23.7753 13.1832 22.0143 12.9041 20.7262C12.8522 20.487 12.6103 20.1728 12.3911 20.1068C11.7324 19.9078 11.7132 19.4784 11.8069 18.9473C11.8612 18.6365 11.886 18.3201 11.9403 18.0092C12.1783 16.6399 12.419 15.2728 12.6623 13.908C13.4318 13.946 13.92 14.457 13.9121 15.3056C13.9053 16.0547 14.1381 16.6116 14.7946 16.9112C14.5573 17.61 14.2725 18.263 14.1166 18.9451C13.6194 21.1098 14.6816 22.9703 16.7867 23.7429C17.9072 24.1531 19.1236 24.2342 20.2896 23.9766C21.3992 23.7396 22.4795 23.3728 23.6241 23.0497C23.9461 23.6367 24.5495 23.7463 25.258 23.7452C32.5275 23.731 39.7969 23.7288 47.0663 23.7385C47.7646 23.7385 48.4652 23.7899 48.8551 23.403C49.4585 23.5383 49.8969 23.7139 50.3387 23.7228C51.976 23.7575 53.6156 23.7385 55.2529 23.7373C56.3829 23.7373 57.1524 23.1783 57.3739 22.201C57.7049 20.7397 57.5411 20.3807 56.2077 19.7524C56.4394 18.3268 56.6823 16.8833 56.9253 15.4375H56.9264Z" fill="#000313"/>
<path d="M73.7507 9.69448C73.7405 9.38141 73.6931 9.103 74.1315 9.08064C76.1044 8.98112 78.0773 8.86596 80.0502 8.75862C80.1322 8.76639 80.2135 8.7806 80.2932 8.80111C80.1598 9.62404 80.0367 10.4425 79.8932 11.261C79.4254 13.9187 78.9485 16.5754 78.4818 19.2331C78.4342 19.509 78.413 19.7886 78.4186 20.0684C78.4355 20.9182 78.7022 21.2592 79.5677 21.5443C79.5406 21.7098 79.5112 21.8797 79.4785 22.0888H62.9392C62.9731 21.8943 63.0036 21.7221 63.0375 21.5298C64.0963 21.4526 64.5754 20.7471 64.7799 19.8682C65.0963 18.5097 65.3325 17.1333 65.5799 15.7603C66.0104 13.3787 66.4229 10.9949 66.8398 8.61103C66.8479 8.55333 66.8434 8.49461 66.8269 8.43872C66.8103 8.38284 66.782 8.33105 66.7438 8.28677L59.851 18.5858L56.6781 8.26441H56.5493C56.3956 9.11306 56.2374 9.96059 56.0882 10.8092C55.6136 13.5039 55.1417 16.1993 54.6724 18.8955C54.62 19.2266 54.5913 19.561 54.5865 19.8962C54.556 20.926 54.8001 21.2558 55.8136 21.5577L55.7176 22.0866H50.5096C50.4226 21.7109 50.4915 21.5275 50.9096 21.4493C51.6554 21.3106 51.9774 20.6979 52.1322 20.0516C52.4079 18.8932 52.626 17.7203 52.8362 16.5485C53.356 13.6347 53.8652 10.7191 54.3639 7.80151C54.4432 7.3804 54.4945 6.9546 54.5176 6.52685C54.5492 5.6782 54.3063 5.36177 53.4565 5.09007C53.4486 4.79936 53.3955 4.50865 53.8678 4.50977C56.6928 4.5176 59.5177 4.50977 62.3426 4.51871C62.452 4.53786 62.5596 4.56553 62.6646 4.60145C62.4816 4.85974 62.372 5.12026 62.1765 5.26562C61.8375 5.51831 61.6533 5.82468 61.7471 6.22273C62.1064 7.73666 62.4906 9.24164 62.8646 10.7567L63.0409 10.8305C63.0717 10.7423 63.1095 10.6567 63.1539 10.5744C64.0579 9.24612 64.9799 7.92897 65.8658 6.58835C66.1551 6.15117 66.4941 5.69386 65.9788 5.1348C65.8455 4.98944 65.8127 4.5176 66.3178 4.5176H74.6558C74.4456 4.80607 74.3484 5.09119 74.1902 5.12921C73.4151 5.31817 72.9868 5.83362 72.8083 6.5358C72.5484 7.56223 72.336 8.60208 72.1507 9.64417C71.5864 12.8166 71.0365 15.9902 70.5009 19.1649C70.4416 19.5511 70.4189 19.9419 70.4331 20.3323C70.4557 21.2391 71.0659 21.674 71.9563 21.4504C72.693 21.2603 73.101 20.7281 73.2761 20.0494C73.4885 19.222 73.6309 18.3722 73.7801 17.5336C74.136 15.5355 74.4886 13.5363 74.8208 11.5338C74.9903 10.5286 74.6908 10.0344 73.7507 9.69448Z" fill="#000313"/>
<path d="M97.4971 22.0805C97.444 21.7082 97.5174 21.5327 97.896 21.4488C98.7796 21.252 99.1389 20.7779 99.0689 19.8834C98.9276 18.1828 98.0971 16.7527 97.2293 15.3316C96.5027 15.7028 96.0914 16.188 96.0225 16.9897C95.9468 17.8764 95.7219 18.7497 95.5976 19.633C95.427 20.8461 95.6767 21.2196 96.8553 21.5696C96.818 21.7406 96.7784 21.9139 96.7423 22.0973H88.5195C88.7331 21.8245 88.8416 21.5382 89.0156 21.4913C89.8698 21.252 90.2947 20.6493 90.4653 19.8644C90.723 18.6826 90.9252 17.4895 91.1365 16.2999C91.6533 13.3875 92.1648 10.4737 92.671 7.55842C92.7128 7.32026 92.7501 7.08098 92.784 6.84058C92.906 5.79626 92.6834 5.41498 91.706 5.01134C91.7162 4.8604 91.7275 4.69827 91.7444 4.45228L98.2982 4.07324C97.705 7.47679 97.1219 10.8133 96.5332 14.19C96.6587 14.1553 96.7231 14.1553 96.7592 14.1251C98.0553 13.0752 99.3581 12.0354 100.632 10.9575C100.894 10.7339 101.234 10.3213 101.175 10.082C101.11 9.81478 100.632 9.64594 100.253 9.37759C100.26 9.34293 100.293 9.16851 100.328 8.98178H107.798C107.77 9.17186 107.745 9.34517 107.735 9.42008C106.605 9.76111 105.495 9.99703 104.473 10.4331C103.452 10.8692 102.553 11.4975 101.666 11.9985C101.666 12.1897 101.651 12.2355 101.666 12.2601C103.124 14.465 103.991 16.9215 104.781 19.4105C104.887 19.7477 105.018 20.077 105.173 20.3955C105.487 21.0351 105.754 21.2576 106.474 21.5528C106.518 21.8782 106.506 22.1219 106.044 22.1197C103.277 22.1051 100.507 22.1118 97.7423 22.1096C97.66 22.1049 97.5782 22.0952 97.4971 22.0805Z" fill="#000313"/>
<path d="M33.1649 9.66091C33.2135 9.46748 33.2542 9.30759 33.3039 9.11527C34.5047 9.03179 35.702 8.94905 36.896 8.86705C37.4961 8.8268 38.0995 8.81338 38.6983 8.75524C39.0373 8.72058 39.1966 8.86705 39.2305 9.17006C39.304 9.81298 39.3582 10.4592 39.4294 11.2006C39.6159 11.0552 39.7684 10.9423 39.9153 10.8193C41.182 9.75148 42.5809 8.92743 44.2566 8.7038C44.8889 8.61917 45.5301 8.6252 46.1606 8.72169C47.5561 8.94532 48.3234 9.78391 48.2477 11.1894C48.1719 12.5758 47.9087 13.9523 47.6827 15.3264C47.4567 16.7006 47.2092 18.0401 46.9731 19.3964C46.9407 19.5812 46.9215 19.768 46.9154 19.9554C46.8827 20.8667 47.1414 21.2323 48.0454 21.5387C48.0318 21.7903 48.1584 22.1156 47.6928 22.1167C45.1346 22.1167 42.5764 22.1167 39.8215 22.1167C40.0226 21.8294 40.1164 21.5364 40.2735 21.4951C41.2227 21.2513 41.6848 20.5849 41.8634 19.7184C42.1639 18.2648 42.4114 16.7923 42.6622 15.3253C42.8069 14.4822 42.9673 13.6369 43.0272 12.7861C43.1075 11.6679 42.4724 11.2106 41.382 11.5561C40.478 11.8435 39.7289 12.4025 39.4102 13.2736C38.9774 14.4532 38.6791 15.6853 38.3865 16.9097C38.1786 17.7762 38.0678 18.6662 37.9254 19.5484C37.7571 20.5983 38.113 21.1876 39.1424 21.5342C39.1345 21.6975 39.1255 21.8696 39.1142 22.0832H31.0643C31.0247 21.7612 31.0168 21.5398 31.4451 21.4392C32.3039 21.2379 32.6745 20.5447 32.8383 19.7709C33.0926 18.5701 33.2903 17.358 33.505 16.1494C33.7627 14.7025 34.0169 13.2549 34.2677 11.8066C34.2903 11.6782 34.305 11.5487 34.3118 11.4186C34.3661 10.362 34.174 10.0634 33.1649 9.66091Z" fill="#000313"/>
<path d="M20.2918 4.40332C20.224 5.7719 20.1664 7.19861 20.0658 8.62869C20.0545 8.79193 19.8116 8.93841 19.6692 9.10053C19.5686 8.98872 19.5483 8.9809 19.5449 8.96524C19.0409 6.76031 18.068 6.42264 16.1708 6.29406C15.346 6.24671 14.5185 6.27328 13.6985 6.37344C12.8939 6.46401 12.2792 6.89784 12.1018 7.73308C11.9142 8.61751 11.7798 9.51312 11.6204 10.4166C12.6939 10.4166 13.6973 10.515 14.6714 10.3886C15.6002 10.2667 15.7527 9.40243 15.8782 8.63987C15.9346 8.29772 16.0273 8.11771 16.4126 8.23958C16.4126 8.72485 16.4307 9.20564 16.4126 9.68531C16.3373 11.396 16.2541 13.1064 16.1629 14.8164C16.1516 15.04 16.2228 15.381 15.8375 15.3117C15.7245 15.2904 15.5934 14.9953 15.5776 14.8175C15.4409 13.3158 14.4996 12.3576 12.9787 12.2167C11.3673 12.0635 11.3504 12.0602 11.0577 13.6166C10.7353 15.3363 10.434 17.0593 10.1538 18.7857C10.0895 19.2469 10.0766 19.7137 10.1153 20.1777C10.1707 21.0331 10.4351 21.3272 11.2961 21.5586C11.2668 21.7263 11.2374 21.8996 11.2035 22.0942H2.64062L2.66548 21.5407C3.89262 21.4356 4.26212 20.5277 4.46213 19.5538C4.82711 17.7648 5.12881 15.9691 5.43842 14.1723C5.86328 11.7125 6.28928 9.25819 6.6746 6.79274C6.82714 5.82109 6.53448 5.4141 5.63051 5.08425C5.50621 4.58446 5.78079 4.50842 6.21357 4.50954C10.4494 4.51849 14.6849 4.51849 18.92 4.50954C19.3618 4.50954 19.8025 4.44357 20.2918 4.40332Z" fill="#000313"/>
<path d="M17.9296 13.7362C18.3815 12.1809 18.8132 10.667 19.2674 9.08933C19.8324 9.64838 20.4528 9.48514 21.0539 9.35432C23.0404 8.92049 25.0291 8.48554 27.0823 8.63425C27.7387 8.67593 28.3891 8.78345 29.0235 8.95515C30.3795 9.33755 31.0767 10.2052 30.9784 11.5894C30.8789 12.9949 30.6066 14.3847 30.3852 15.7846C30.175 17.1085 29.9196 18.4245 29.7072 19.7472C29.5512 20.7233 29.8597 21.2008 30.8371 21.5362C30.81 21.7028 30.7818 21.8784 30.7433 22.1132H27.9184C27.184 22.1132 26.4495 22.0707 25.7161 22.1266C25.141 22.1713 24.8822 21.903 24.7421 21.4289C24.6528 21.1259 24.5907 20.8161 24.4992 20.4371C24.3704 20.531 24.2585 20.6037 24.1602 20.6876C23.398 21.3305 22.5134 21.8158 21.5586 22.1148C20.6037 22.4139 19.598 22.5205 18.6008 22.4285C16.0753 22.2239 14.9849 20.1799 16.1205 17.9068C16.7872 16.5707 17.9284 15.7421 19.2381 15.1048C21.1161 14.1891 23.1342 13.7496 25.1851 13.4377C25.593 13.3762 25.7986 13.2566 25.8811 12.8182C26.1444 11.4217 25.5817 10.6659 24.1308 10.6055C21.7466 10.5071 19.9951 11.6118 18.6493 13.4712C18.3951 13.8301 18.3985 13.8324 17.9296 13.7362ZM25.5252 14.8834C23.8088 14.9315 21.9884 16.0082 21.2313 17.3612C20.7341 18.2501 20.7985 19.1502 21.394 19.5974C21.959 20.0301 22.9545 19.868 23.654 19.1938C24.8528 18.0298 25.2054 16.498 25.5252 14.8834Z" fill="#000313"/>
<path d="M80.0612 22.0825C80.0205 21.747 80.042 21.5178 80.4601 21.4306C81.1787 21.2797 81.5787 20.734 81.7516 20.0788C81.9776 19.1989 82.1471 18.2999 82.3064 17.4032C82.9091 14.0145 83.5012 10.6229 84.0827 7.22829C84.1185 7.02692 84.1396 6.82327 84.146 6.61891C84.1675 5.67187 83.9426 5.34426 83.0409 5.02001C83.0104 4.717 82.9991 4.44082 83.4432 4.41734C85.4861 4.30553 87.5302 4.19372 89.658 4.0752C89.4794 5.11505 89.3111 6.11464 89.1359 7.112C88.4173 11.1991 87.6986 15.2862 86.9799 19.3733C86.9479 19.5954 86.9358 19.8199 86.9438 20.0442C86.9506 20.9152 87.1946 21.2439 88.0738 21.5313C88.0636 21.6956 88.0523 21.8723 88.0387 22.0836L80.0612 22.0825Z" fill="#000313"/>
<path d="M81.1759 4.52721C81.1691 6.106 79.6515 7.36835 77.8549 7.28449C76.9803 7.24424 76.2018 6.98372 75.8356 6.12165C75.4469 5.20479 75.6876 4.34161 76.3351 3.63831C77.2775 2.613 78.4922 2.32005 79.838 2.6443C80.7182 2.85898 81.1804 3.5634 81.1759 4.52721Z" fill="#000313"/>
</g>
<defs>
<clipPath id="clip0_32_6524">
<rect width="110.417" height="25" fill="white"/>
</clipPath>
</defs>
</svg>
