<svg width="156" height="25" viewBox="0 0 156 25" fill="none" xmlns="http://www.w3.org/2000/svg">
<g clip-path="url(#clip0_32_6556)">
<path d="M5.70837 10.0183H18.4286V0H24.1185V24.7259H18.4286V14.4032H5.70837V24.7259H0V0H5.70837V10.0183Z" fill="#000313"/>
<path d="M34.4854 14.8112C34.4854 19.1717 35.8878 21.0049 40.6015 21.0049C45.3153 21.0049 46.6929 19.1778 46.6929 14.8112V0H52.4075V14.9452C52.4075 18.1182 52.0121 20.2801 50.8012 21.5895C48.5834 24.0256 45.3338 25 40.6015 25C35.8693 25 32.5703 24.0012 30.3648 21.5895C29.1292 20.2558 28.8203 18.0816 28.8203 14.9452V0H34.4854V14.8112Z" fill="#000313"/>
<path d="M63.8288 14.4397H71.928L67.8012 4.93301L63.8288 14.4397ZM71.0446 0L82.6219 24.7259H76.2649L73.7937 18.8429H61.9816L59.5537 24.7259H53.5117L64.9841 0H71.0446Z" fill="#000313"/>
<path d="M85.2105 0L91.4872 19.0012L96.7693 0H103.503L109.595 19.0012L115.439 0H121.296L112.906 24.7259H105.913L100.13 6.27284L95.0704 24.7259H88.1141L79.082 0H85.2105Z" fill="#000313"/>
<path d="M128.994 10.0549H144.772V14.3545H128.951C128.994 18.8064 130.909 20.4446 135.394 20.4446H144.772V24.726H135.135C131.854 24.726 129.315 24.4946 126.677 22.5579C123.879 20.536 122.52 17.296 122.52 12.8137C122.52 4.06217 126.566 0.0244141 135.283 0.0244141H144.772V4.30578H135.394C131.292 4.30578 129.216 6.17545 128.994 10.0549Z" fill="#000313"/>
<path d="M155.762 0H149.801V24.7259H155.762V0Z" fill="#000313"/>
</g>
<defs>
<clipPath id="clip0_32_6556">
<rect width="155.769" height="25" fill="white"/>
</clipPath>
</defs>
</svg>
