<svg width="102" height="25" viewBox="0 0 102 25" fill="none" xmlns="http://www.w3.org/2000/svg">
<g clip-path="url(#clip0_32_6541)">
<path d="M25.2195 11.5932C25.4061 11.757 25.6048 11.9066 25.8141 12.0407C28.6025 13.517 29.7951 15.4642 29.5331 18.1496C29.2274 21.1389 27.5476 23.0962 24.7559 23.9646C23.3449 24.4021 21.7961 24.4889 20.3012 24.5424C17.7311 24.6292 15.1544 24.5891 12.5743 24.5424C10.6459 24.519 9.91691 23.8109 9.9102 21.9138C9.89452 15.6234 9.89452 9.33419 9.9102 3.04606C9.9102 1.39943 10.703 0.434169 12.2921 0.437509C15.8129 0.437509 19.3471 0.460889 22.8477 0.73811C25.4345 0.945191 27.3528 2.3814 28.0851 4.98661C28.7906 7.4983 27.8029 9.43217 25.7906 10.9519C25.583 11.1499 25.392 11.3643 25.2195 11.5932ZM18.5744 20.501C19.6881 20.5561 20.8041 20.5494 21.9171 20.4809C23.8757 20.2538 25.0448 18.8109 24.9406 16.9539C24.86 15.3039 23.5666 14.1048 21.692 14.028C20.1332 13.9579 18.5676 13.9946 17.0088 13.9913C14.4523 13.9913 14.4523 13.9913 14.4523 16.4763C14.4455 20.5444 14.4455 20.5444 18.5744 20.501ZM18.3829 9.76617V9.71941C19.3904 9.76343 20.3996 9.75674 21.4064 9.69937C22.0537 9.63181 22.6483 9.31356 23.0613 8.81349C23.4744 8.31343 23.6728 7.67176 23.6136 7.02736C23.4893 5.65127 22.7469 4.71607 21.2922 4.65595C19.4008 4.57913 17.5027 4.56911 15.6146 4.65595C15.3623 4.71837 15.1297 4.84284 14.9384 5.01792C14.747 5.193 14.6029 5.41308 14.5194 5.65795C13.9752 9.62255 14.1062 9.74279 18.0671 9.74279L18.3829 9.76617Z" fill="#000313"/>
<path d="M55.7671 12.4921C55.7671 9.37922 55.7671 6.26966 55.7671 3.15677C55.7671 1.74728 56.3819 0.534858 57.7828 0.541538C61.4481 0.541538 65.2477 0.321097 68.7483 1.16612C74.3822 2.52885 77.5132 7.93633 76.8111 13.748C76.0082 20.6017 71.6643 24.4894 64.7169 24.5596C62.6474 24.583 60.578 24.5863 58.5119 24.5596C56.5264 24.5329 55.7772 23.8014 55.7604 21.8308C55.7335 18.7045 55.7671 15.605 55.7671 12.4921ZM60.3629 12.4186C60.3629 13.6411 60.3361 14.8635 60.3629 16.0926C60.4906 21.1661 59.3282 20.4347 64.9924 20.3545C68.7987 20.3011 71.5064 17.8962 72.1078 14.4828C72.8368 10.3578 71.3653 6.8575 68.0764 5.48142C66.7804 4.98867 65.4056 4.73294 64.0181 4.72657C60.3428 4.61635 60.3428 4.68316 60.3428 8.25697L60.3629 12.4186Z" fill="#000313"/>
<path d="M33.822 12.5014C33.822 9.44527 33.822 6.38582 33.822 3.32971C33.822 1.35576 34.6854 0.440598 36.644 0.423898C40.6754 0.386044 44.7012 0.386044 48.7214 0.423898C50.4717 0.423898 51.3284 1.1921 51.3351 2.57153C51.3418 3.95095 50.4516 4.67573 48.7416 4.67573C45.7785 4.67573 42.812 4.71247 39.8489 4.67573C38.7672 4.65569 38.354 5.03312 38.3775 6.11862C38.485 11.1587 37.7056 10.0899 42.3484 10.2168C43.0203 10.2335 43.6922 10.1634 44.3641 10.2402C45.6407 10.3905 46.4537 11.1253 46.4302 12.4312C46.4067 13.7372 45.587 14.4787 44.2835 14.5321C42.7751 14.5922 41.2599 14.5856 39.7549 14.5321C38.747 14.5054 38.3607 14.9029 38.3808 15.9049C38.4883 21.3758 37.6283 20.2836 42.6676 20.3738C44.9017 20.4206 47.1391 20.3738 49.3866 20.3972C51.1369 20.4272 51.9734 21.1854 51.8928 22.5916C51.7954 24.1981 50.7203 24.5588 49.3328 24.5555C45.0831 24.5555 40.8333 24.5555 36.5869 24.5555C34.5208 24.5555 33.8388 23.804 33.8287 21.6731C33.8153 18.6169 33.822 15.5575 33.822 12.5014Z" fill="#000313"/>
<path d="M92.3882 24.9765C85.8405 24.9765 81.191 20.9685 80.1999 14.4722C79.229 8.09277 82.7262 2.21101 88.733 0.584422C92.9694 -0.564542 97.0613 -0.140361 100.511 2.94581C101.503 3.83426 101.875 4.92644 100.891 6.01862C99.9068 7.11081 98.6839 6.89371 97.5921 6.08542C95.2908 4.38536 92.8081 3.74742 90.0265 4.68262C89.4475 4.87776 88.8947 5.14247 88.3803 5.47086C84.7285 7.83559 83.6232 13.6138 86.0858 17.3479C88.5483 21.0821 93.2684 21.8636 97.2729 19.1983C97.6425 18.9545 98.0658 18.547 98.4286 18.5804C99.2987 18.6572 100.357 18.7107 100.952 19.2184C101.828 19.9732 101.536 21.0754 100.767 21.8904C98.956 23.8109 96.6144 24.6325 94.0646 24.9632C93.5066 25.0027 92.9467 25.0072 92.3882 24.9765Z" fill="#000313"/>
<path d="M0 12.535C0 9.30853 0 6.07873 0 2.84894C0.020157 1.02196 0.742451 0.243732 2.30798 0.267112C3.76937 0.290492 4.47151 1.0754 4.47486 2.80886C4.4883 9.31743 4.4883 15.8271 4.47486 22.3379C4.47486 23.9044 3.54764 24.9498 2.27103 24.9465C0.994414 24.9431 0.0268761 23.9478 0 22.378C0 19.1014 0 15.8182 0 12.535Z" fill="#000313"/>
</g>
<defs>
<clipPath id="clip0_32_6541">
<rect width="101.471" height="25" fill="white"/>
</clipPath>
</defs>
</svg>
