<svg width="120" height="25" viewBox="0 0 120 25" fill="none" xmlns="http://www.w3.org/2000/svg">
<g clip-path="url(#clip0_32_6571)">
<path fill-rule="evenodd" clip-rule="evenodd" d="M38.7165 21.6777C37.1505 22.8324 34.7421 23.2548 31.4573 23.2548H24.614C23.8991 23.236 23.1877 23.1465 22.4899 22.9875C21.7767 22.8431 21.066 22.5545 20.4975 22.4101C19.8569 22.1468 19.2757 21.7539 18.7893 21.2554C18.2979 20.7093 17.9113 20.0747 17.6496 19.3843C17.3355 18.5046 17.1907 17.5718 17.2232 16.6366V0.144531H21.4924V16.4735C21.4924 18.2083 23.0716 19.077 26.3327 19.077H32.168C35.3001 19.077 36.8662 18.2091 36.8662 16.4735V0.144531H41.1354V16.7649C40.9932 18.9326 40.2826 20.6647 38.7165 21.6777Z" fill="#000313"/>
<path fill-rule="evenodd" clip-rule="evenodd" d="M73.3083 23.557V8.38273L64.054 22.2553C63.7457 22.7102 63.3565 23.1027 62.9065 23.4127C62.4887 23.7059 61.9903 23.8574 61.4825 23.8457C60.485 23.8457 59.6401 23.4127 58.9215 22.3996L49.6673 8.23304V23.557H45.4086V2.60116C45.3937 2.25639 45.4492 1.91222 45.5715 1.59025C45.6938 1.26827 45.8803 0.975429 46.1193 0.730103C46.3411 0.498127 46.6067 0.313947 46.9002 0.18857C47.1937 0.0631922 47.5091 -0.000809271 47.8275 0.000390199C48.2913 -0.00709895 48.7506 0.0933062 49.1704 0.293917C49.5901 0.494527 49.959 0.790022 50.2489 1.15777L61.7773 17.9091L73.1715 1.30211C73.7347 0.433406 74.4454 0.000390199 75.4429 0.000390199C75.7608 -0.00185145 76.0758 0.0608894 76.3693 0.184876C76.6627 0.308862 76.9286 0.491559 77.1511 0.722084C77.6372 1.27759 77.892 2.003 77.8618 2.7455V23.4127H73.3083V23.557Z" fill="#000313"/>
<path fill-rule="evenodd" clip-rule="evenodd" d="M81.8555 23.4125V0.144531H86.1247V23.4125H81.8555Z" fill="#000313"/>
<path d="M115.157 23.5568L111.598 17.1979H98.2168L94.7951 23.5568H89.6758L102.486 1.73493C103.057 0.721886 103.91 0.144531 104.907 0.144531C105.905 0.144531 106.75 0.721886 107.326 1.74829L119.852 23.5702L115.157 23.5568ZM104.907 5.91541L100.778 12.8624H109.035L104.907 5.91541Z" fill="#000313"/>
<path fill-rule="evenodd" clip-rule="evenodd" d="M12.9523 13.0067C12.9523 20.0873 10.3913 23.1211 5.84578 24.1342C1.42394 25.0002 0 25.0002 0 25.0002V20.2317C1.7082 20.0873 4.41394 19.7987 6.11951 19.2213C7.68558 18.6413 8.82526 17.0535 8.82526 13.0067L8.96739 4.48004V0.144531H13.2392L12.9523 13.0067Z" fill="#000313"/>
</g>
<defs>
<clipPath id="clip0_32_6571">
<rect width="119.853" height="25" fill="white"/>
</clipPath>
</defs>
</svg>
