<svg width="84" height="25" viewBox="0 0 84 25" fill="none" xmlns="http://www.w3.org/2000/svg">
<g clip-path="url(#clip0_32_6508)">
<path d="M78.101 0.884933C76.0234 0.296629 73.8761 -0.00110942 71.7187 3.10626e-06C58.003 3.10626e-06 54.5243 7.84139 53.9614 13.1635C53.3302 19.1389 57.4145 25.0019 67.4863 25C71.7244 25 74.4932 24.2525 75.4794 23.9344C75.5997 23.8952 75.7074 23.8238 75.7909 23.7277C75.8744 23.6316 75.9308 23.5145 75.954 23.3887L76.5235 20.3726C76.5429 20.2689 76.5355 20.1619 76.5018 20.062C76.4682 19.9621 76.4095 19.8728 76.3316 19.8027C76.2537 19.7326 76.1591 19.6841 76.0571 19.6621C75.9552 19.6401 75.8493 19.6452 75.7499 19.677C73.9637 20.2346 72.1044 20.5155 70.2351 20.51C65.4228 20.51 61.9478 17.5852 62.3873 12.5514C62.8097 7.67709 66.0625 3.96634 70.5237 3.96537C73.2108 3.96537 74.3982 5.38741 74.31 7.29179C74.31 7.29179 74.31 7.3235 74.31 7.3994C74.3056 7.4819 74.3179 7.56443 74.346 7.64197C74.3742 7.71951 74.4177 7.79043 74.4738 7.8504C74.5299 7.91037 74.5975 7.95814 74.6725 7.99078C74.7475 8.02343 74.8282 8.04027 74.9099 8.04028H76.7323C76.8696 8.04027 77.0028 7.99256 77.1095 7.90512C77.2163 7.81768 77.2902 7.69581 77.3189 7.55986L78.5993 1.72951C78.6398 1.55085 78.6106 1.36327 78.5177 1.2059C78.4249 1.04853 78.2756 0.933546 78.101 0.884933Z" fill="#000313"/>
<path d="M29.5014 21.8633C28.2675 21.8441 27.6628 21.5549 26.4365 19.958L20.1102 11.2903L28.332 4.37225C29.4349 3.49885 30.7809 3.25383 31.526 3.15294L31.601 3.14526C31.7281 3.13316 31.8482 3.08063 31.944 2.99519C32.0399 2.90975 32.1065 2.79579 32.1344 2.66964L32.4704 1.13231C32.4909 1.04276 32.4911 0.949692 32.471 0.860057C32.4509 0.770422 32.4111 0.686534 32.3545 0.614657C32.298 0.542781 32.2261 0.484774 32.1442 0.444968C32.0624 0.405162 31.9727 0.384585 31.8819 0.384775H21.9905C21.8433 0.385466 21.7006 0.436672 21.5858 0.530034C21.4709 0.623396 21.3908 0.7534 21.3584 0.898823L21.0252 2.42079C20.9893 2.58467 21.0158 2.75622 21.0994 2.9012C21.1829 3.04618 21.3175 3.15392 21.4761 3.20291C22.056 3.42967 22.1851 3.99272 21.6792 4.41452L13.2552 11.5017L14.7018 4.82288C14.9485 3.79863 15.7525 3.38162 16.2613 3.20963L16.3438 3.18369C16.4536 3.14931 16.5525 3.08613 16.6303 3.00057C16.7082 2.91501 16.7623 2.81012 16.7871 2.69655L17.1326 1.11405C17.1517 1.02606 17.151 0.934857 17.1305 0.847188C17.11 0.75952 17.0704 0.677635 17.0144 0.6076C16.9584 0.537564 16.8876 0.481172 16.8072 0.4426C16.7268 0.404029 16.6388 0.384266 16.5498 0.384775H5.68929C5.54041 0.384884 5.39601 0.436337 5.27989 0.530654C5.16377 0.624971 5.08286 0.756523 5.05049 0.903627L4.6993 2.5063C4.66536 2.66426 4.6903 2.82934 4.76932 2.96981C4.84834 3.11028 4.97586 3.21622 5.12738 3.26728L5.23463 3.30476C5.91614 3.57475 6.70586 4.18296 6.37365 5.78179L3.77859 17.7807C3.10087 21.0581 2.00362 21.7278 0.956675 21.8499H0.923454C0.787225 21.8662 0.659347 21.9249 0.557377 22.0178C0.455407 22.1107 0.384344 22.2333 0.353945 22.3687L0.0179354 23.906C-0.00174228 23.9987 -0.000707588 24.0945 0.0209637 24.1867C0.0426349 24.2788 0.0843938 24.3649 0.143182 24.4386C0.20197 24.5123 0.276299 24.5718 0.360723 24.6126C0.445148 24.6535 0.537531 24.6747 0.631106 24.6747H12.0479C12.1813 24.6746 12.3109 24.6291 12.4158 24.5454C12.5206 24.4618 12.5946 24.3449 12.6259 24.2135L13.0208 22.4148C13.0517 22.2729 13.0316 22.1245 12.9641 21.9963C12.8966 21.8681 12.7861 21.7684 12.6525 21.7153L12.5784 21.6856C12.0004 21.4482 11.2116 20.9428 11.4129 19.9897L12.7417 13.8538C17.293 22.2621 18.7956 24.6843 24.2562 24.6834H29.1834C29.3184 24.6834 29.4494 24.6369 29.5549 24.5515C29.6603 24.4661 29.7338 24.3469 29.7634 24.2135L30.1089 22.655C30.13 22.5615 30.1303 22.4644 30.1098 22.3708C30.0894 22.2771 30.0486 22.1892 29.9905 22.1135C29.9323 22.0377 29.8583 21.976 29.7737 21.9327C29.6891 21.8894 29.5961 21.8657 29.5014 21.8633Z" fill="#000313"/>
<path d="M54.2831 7.08948L55.5911 1.12173C55.6101 1.03303 55.6092 0.941167 55.5886 0.852859C55.5679 0.764551 55.528 0.68204 55.4718 0.611375C55.4155 0.54071 55.3444 0.483682 55.2635 0.444471C55.1827 0.40526 55.0942 0.384859 55.0045 0.384766H34.7784C34.6293 0.384704 34.4845 0.436195 34.3682 0.530719C34.2519 0.625243 34.1709 0.757136 34.1387 0.904578L33.7903 2.49861C33.7573 2.64948 33.7798 2.80736 33.8535 2.94267C33.9273 3.07797 34.0472 3.18143 34.1909 3.23365L34.2592 3.25767C34.9237 3.51517 35.852 4.16758 35.4476 5.77121L31.4829 23.9483C31.4636 24.0366 31.4641 24.1282 31.4844 24.2163C31.5047 24.3044 31.5442 24.3867 31.6002 24.4573C31.6561 24.5278 31.727 24.5848 31.8075 24.6239C31.8881 24.663 31.9763 24.6833 32.0657 24.6834H41.1636C41.2996 24.6834 41.4315 24.6364 41.5377 24.5503C41.6438 24.4642 41.7177 24.3441 41.7473 24.2097L42.1431 22.3946C42.1716 22.2649 42.1549 22.1292 42.096 22.0105C42.037 21.8918 41.9393 21.7974 41.8195 21.7432L41.7312 21.7019C41.1541 21.4136 40.2951 20.7564 40.5827 19.4843C40.6149 19.3132 41.4787 15.3738 41.4787 15.3738H49.2145C49.3517 15.3736 49.4846 15.3258 49.5912 15.2383C49.6978 15.1509 49.7715 15.0292 49.8002 14.8934L50.5282 11.5747C50.5477 11.4856 50.5471 11.3933 50.5266 11.3045C50.5062 11.2158 50.4663 11.1328 50.4099 11.0617C50.3535 10.9906 50.2821 10.9332 50.2008 10.8938C50.1196 10.8543 50.0307 10.8339 49.9406 10.8339H42.4706L43.8649 4.39626L49.0854 4.39049C50.7721 4.39049 51.2866 5.28119 51.1888 6.80219C51.1888 6.80219 51.1888 6.82141 51.1803 6.8829C51.1711 6.96834 51.1798 7.05479 51.2058 7.13661C51.2318 7.21843 51.2745 7.29379 51.3312 7.35778C51.3878 7.42178 51.4572 7.47297 51.5347 7.50803C51.6123 7.54308 51.6962 7.56122 51.7811 7.56125H53.7041C53.839 7.56011 53.9696 7.5129 54.0747 7.42728C54.1798 7.34166 54.2532 7.22263 54.2831 7.08948Z" fill="#000313"/>
<path d="M79.6367 1.93711C79.6367 1.44019 79.8317 0.963624 80.1788 0.61225C80.5259 0.260876 80.9967 0.0634766 81.4876 0.0634766C81.9785 0.0634766 82.4493 0.260876 82.7964 0.61225C83.1435 0.963624 83.3385 1.44019 83.3385 1.93711C83.3385 2.43403 83.1435 2.91059 82.7964 3.26196C82.4493 3.61334 81.9785 3.81074 81.4876 3.81074C80.9967 3.81074 80.5259 3.61334 80.1788 3.26196C79.8317 2.91059 79.6367 2.43403 79.6367 1.93711ZM83.0538 1.93711C83.0538 1.02623 82.4159 0.311372 81.4819 0.311372C80.5479 0.311372 79.9101 1.02623 79.9101 1.93711C79.9101 2.84798 80.5546 3.55516 81.4772 3.55516C82.3998 3.55516 83.0538 2.83645 83.0538 1.93711ZM81.835 2.57126V2.36372C81.8388 2.32743 81.8348 2.29073 81.8231 2.25619C81.8114 2.22166 81.7925 2.19011 81.7675 2.16376C81.7426 2.13741 81.7123 2.11689 81.6787 2.10363C81.6451 2.09037 81.609 2.0847 81.5731 2.087H81.1744V2.85567H80.8327V1.0147H81.63C82.0173 1.0147 82.1653 1.22225 82.1653 1.52203V1.54509C82.1653 1.75263 82.1198 1.89099 81.9034 1.96017C82.1084 1.99476 82.1653 2.17924 82.1653 2.35219V2.54436C82.1653 2.59048 82.1995 2.62507 82.2906 2.62507V2.89026H82.1881C81.9328 2.8941 81.8303 2.7788 81.8303 2.57126H81.835ZM81.5731 1.84487C81.6085 1.8494 81.6445 1.84566 81.6784 1.83394C81.7122 1.82222 81.7429 1.80282 81.7682 1.77723C81.7935 1.75163 81.8126 1.72053 81.8242 1.68629C81.8358 1.65205 81.8395 1.61558 81.835 1.57968V1.52203C81.8361 1.49145 81.8309 1.46099 81.8198 1.43252C81.8088 1.40406 81.792 1.37821 81.7707 1.35658C81.7493 1.33495 81.7237 1.318 81.6956 1.30679C81.6675 1.29558 81.6374 1.29035 81.6072 1.29143H81.1744V1.84487H81.5731Z" fill="#000313"/>
</g>
<defs>
<clipPath id="clip0_32_6508">
<rect width="83.3333" height="25" fill="white"/>
</clipPath>
</defs>
</svg>
