<svg width="93" height="40" viewBox="0 0 93 40" fill="none" xmlns="http://www.w3.org/2000/svg">
<g clip-path="url(#clip0_31_1733)">
<path d="M93.001 35.0017C92.7725 35.2102 92.8383 35.5091 92.769 35.7664C92.2877 37.5356 90.9927 38.4601 89.3826 39.0302C88.0358 39.4911 86.6226 39.726 85.1997 39.7253C82.6754 39.7566 80.1511 39.7253 77.6269 39.7532C77.3152 39.7532 77.2009 39.6906 77.2113 39.3465C77.239 38.4949 77.239 37.6364 77.2113 36.7813C77.2113 36.4337 77.3014 36.3712 77.6199 36.3712C79.7841 36.3712 81.9483 36.3712 84.1124 36.3712C85.0142 36.3959 85.9111 36.2289 86.744 35.8811C86.911 35.8161 87.071 35.7346 87.2219 35.6378C87.6339 35.3666 87.9871 35.0295 87.9386 34.4907C87.8902 33.952 87.4746 33.7956 87.0903 33.6183C86.0203 33.1039 84.8465 32.9231 83.7142 32.6207C82.2703 32.2245 80.8125 31.8665 79.4655 31.1817C78.3748 30.6256 77.4849 29.8957 77.2633 28.5957C76.917 26.5102 77.7654 24.6993 79.6456 23.5662C81.1571 22.6679 82.8788 22.1882 84.6353 22.1758C86.8618 22.1306 89.0917 22.1758 91.3217 22.1445C91.6887 22.1445 91.8376 22.2071 91.8203 22.6207C91.7857 23.5476 91.7857 24.4849 91.8203 25.4327C91.8376 25.8498 91.6818 25.9158 91.3182 25.9123C89.2406 25.9123 87.163 25.9123 85.0854 25.9123C84.4134 25.9239 83.751 26.0741 83.1394 26.3538C82.9602 26.4326 82.7924 26.5355 82.6408 26.6597C82.0037 27.1915 82.066 27.7337 82.807 28.1056C83.8666 28.6409 85.03 28.8529 86.1554 29.1692C87.7101 29.6072 89.2718 30.0416 90.6915 30.8376C91.8757 31.498 92.7448 32.3983 92.9214 33.8199C92.9214 33.8546 92.9837 33.8825 93.0149 33.9137L93.001 35.0017Z" fill="#1F1B18"/>
<path d="M57.2832 31.4562C55.3337 31.4562 53.3842 31.4562 51.4313 31.4562C51.0504 31.4562 50.9465 31.557 51.0019 31.9289C51.2374 33.5 51.7395 34.9007 53.2976 35.6411C53.9494 35.9394 54.659 36.0889 55.3752 36.079C57.9515 36.0929 60.5265 36.0929 63.1004 36.079C63.4813 36.079 63.5921 36.1694 63.5817 36.5622C63.5506 37.5146 63.5575 38.4704 63.5817 39.4228C63.5817 39.7287 63.5298 39.8538 63.187 39.8503C60.5484 39.819 57.9099 39.972 55.2714 39.8503C53.2215 39.7565 51.2581 39.315 49.506 38.1784C47.4111 36.8229 46.3169 34.8451 46.0745 32.3877C45.8551 30.6354 46.1223 28.8563 46.8467 27.2469C48.0621 24.6644 50.1293 23.1176 52.844 22.4537C55.2333 21.8698 57.5983 22.0088 59.8005 23.1906C60.8239 23.7012 61.7004 24.4656 62.347 25.4115C62.9935 26.3574 63.3888 27.4534 63.4952 28.5955C63.5956 29.4193 63.5471 30.2396 63.5852 31.0599C63.5852 31.3832 63.5021 31.4701 63.1801 31.4666C61.2202 31.4492 59.2534 31.4562 57.2832 31.4562ZM58.322 27.7857C58.2454 27.4378 58.0909 27.1121 57.8701 26.8332C57.6493 26.5544 57.368 26.3297 57.0477 26.1764C55.8219 25.5333 53.7062 25.8288 52.5463 26.8715C52.2153 27.1123 51.9498 27.4326 51.7741 27.803L58.322 27.7857Z" fill="#1F1B18"/>
<path d="M39.8369 32.7632C39.8369 34.9495 39.8369 37.1393 39.8369 39.3256C39.8369 39.6732 39.7434 39.8053 39.3729 39.8018C37.9625 39.781 36.5532 39.781 35.145 39.8018C34.778 39.8018 34.681 39.708 34.6845 39.3326C34.6845 34.9774 34.6845 30.6186 34.6845 26.2634C34.6845 25.5161 34.7503 25.6412 34.0647 25.6308C33.6042 25.6308 33.1471 25.6308 32.6796 25.6308C32.4095 25.6308 32.3091 25.5648 32.3126 25.2832C32.3334 24.2648 32.3334 23.2464 32.3126 22.228C32.3126 21.9499 32.3749 21.8491 32.6589 21.8804C33.1679 21.9012 33.6769 21.856 34.1824 21.8804C34.6014 21.9117 34.6984 21.7483 34.7261 21.359C34.7782 19.6406 35.4401 17.9975 36.5924 16.7257C37.8494 15.3736 39.4491 14.7479 41.2462 14.5811C42.195 14.4907 43.1472 14.4977 44.096 14.4977C44.3799 14.4977 44.4977 14.5568 44.4907 14.8765C44.47 15.9436 44.4734 17.0142 44.4907 18.0813C44.4907 18.3732 44.3938 18.4289 44.1272 18.4289C43.4762 18.4497 42.8217 18.335 42.1742 18.5053C41.5035 18.6982 40.9123 19.1023 40.4878 19.658C40.0632 20.2137 39.8278 20.8917 39.8162 21.5919C39.8162 21.8804 39.9547 21.8699 40.1624 21.8665C40.9173 21.8665 41.6687 21.8665 42.4235 21.8665C42.6763 21.8665 42.8044 21.8943 42.7975 22.2141C42.7767 23.2325 42.7975 24.2544 42.7975 25.2728C42.7975 25.5682 42.7179 25.669 42.4132 25.6586C41.7206 25.6343 41.0004 25.6586 40.2975 25.6412C39.9131 25.6412 39.8023 25.7281 39.8058 26.1244C39.8058 28.3454 39.8058 30.5665 39.8058 32.7841L39.8369 32.7632Z" fill="#1F1B18"/>
<path d="M65.7703 25.5231C65.7703 22.9753 65.7703 20.4241 65.7703 17.8763C65.7703 17.48 65.8638 17.3375 66.2862 17.3445C67.6713 17.37 69.0644 17.37 70.4657 17.3445C70.85 17.3445 70.9227 17.4661 70.9193 17.8207C70.8985 19.1033 70.9193 20.3858 70.902 21.6684C70.902 22.016 70.9885 22.089 71.3105 22.0821C72.2628 22.0612 73.2115 22.0821 74.1638 22.0821C74.4269 22.0821 74.5343 22.1377 74.5308 22.4296C74.5135 23.4515 74.5135 24.47 74.5308 25.4919C74.5308 25.7734 74.4477 25.8394 74.1846 25.8394C73.2323 25.8394 72.2836 25.8394 71.3313 25.8394C71.0162 25.8394 70.9123 25.909 70.9158 26.2496C70.9158 28.4707 70.947 30.6917 70.9158 32.9093C70.8881 34.5569 72.6471 36.1279 74.1395 36.0688C74.5308 36.0688 74.9256 36.0688 75.3203 36.0688C75.6077 36.0688 75.6666 36.1627 75.6666 36.4373C75.6493 37.5252 75.6666 38.6097 75.6666 39.6941C75.6666 39.8923 75.6666 40.0417 75.3896 40.0417C73.6063 40.0417 71.8161 40.0973 70.109 39.423C69.1962 39.0751 68.3755 38.5206 67.7107 37.8026C67.0459 37.0847 66.5549 36.2226 66.2758 35.2833C65.917 34.1002 65.7533 32.8663 65.7911 31.6302C65.7634 29.6038 65.7703 27.5635 65.7703 25.5231Z" fill="#1F1B18"/>
<path d="M16.4258 10.0244C21.3872 11.5566 26.1248 13.741 30.5153 16.5208L30.4669 16.6389C29.3761 16.3956 28.2819 16.1593 27.1912 15.8986C26.8754 15.8198 26.5533 15.7697 26.2286 15.7491C25.6572 15.7248 25.3525 16.0341 25.4391 16.6007C25.8173 19.2685 25.9333 21.9671 25.7853 24.6577C25.7619 26.4185 25.4326 28.1617 24.8123 29.8089C23.3926 22.6104 20.9515 15.9264 16.4258 10.0244Z" fill="#85C227"/>
<path d="M4.60547 14.4908C5.93085 9.45281 7.84271 4.58904 10.3015 0C10.4747 0.302398 10.2773 0.552659 10.2634 0.809871C10.2391 1.07073 10.1974 1.32967 10.1388 1.58498C9.99336 2.4748 9.841 3.36462 9.7025 4.25443C9.60554 4.8488 9.80292 5.07473 10.395 5.08516C11.163 5.07519 11.9283 4.99138 12.6804 4.8349C13.6151 4.67516 14.5612 4.59262 15.5094 4.58811C16.919 4.52289 18.3315 4.55192 19.7373 4.67501C20.9817 4.79672 22.2154 5.01048 23.4285 5.31456C21.6175 5.73862 19.9381 6.19743 18.2864 6.73966C16.6032 7.30021 14.9564 7.96538 13.3556 8.73132C11.771 9.48205 10.2453 10.3523 8.79182 11.3347C7.33956 12.3086 5.94198 13.3622 4.60547 14.4908Z" fill="#E67817"/>
<path d="M0 15.3805C0.5471 15.4709 0.948768 15.8602 1.40238 16.1244C5.74628 18.6869 10.522 20.427 15.4919 21.2582C16.8181 21.4772 18.1547 21.6058 19.5986 21.6996C15.2065 24.2808 10.5321 26.344 5.66837 27.8484C6.78334 27.0211 7.90524 26.2008 9.0029 25.3736C9.53962 24.9704 9.51884 24.6124 8.95443 24.2231C6.62136 22.6442 4.47866 20.7989 2.56929 18.7243C1.62606 17.6804 0.772367 16.5583 0.0173133 15.3701L0 15.3805Z" fill="#7C2F7F"/>
<path d="M14.3518 15.7314C14.3584 15.892 14.3323 16.0522 14.2749 16.2023C14.2176 16.3523 14.1303 16.489 14.0184 16.6039C13.9065 16.7188 13.7724 16.8096 13.6243 16.8705C13.4762 16.9315 13.3172 16.9614 13.1572 16.9584C12.9938 16.9589 12.8319 16.9269 12.6809 16.8644C12.5299 16.8018 12.3927 16.7099 12.2771 16.594C12.1616 16.478 12.0701 16.3403 12.0078 16.1887C11.9455 16.0371 11.9136 15.8746 11.9141 15.7106C11.9203 15.5511 11.9579 15.3944 12.0247 15.2496C12.0916 15.1047 12.1863 14.9746 12.3035 14.8667C12.4206 14.7588 12.5579 14.6752 12.7074 14.6208C12.8569 14.5664 13.0156 14.5422 13.1745 14.5497C13.3293 14.5487 13.4828 14.5787 13.6261 14.6377C13.7693 14.6968 13.8995 14.7838 14.009 14.8937C14.1185 15.0037 14.2052 15.1343 14.264 15.2781C14.3229 15.4219 14.3527 15.576 14.3518 15.7314Z" fill="#E67817"/>
</g>
<defs>
<clipPath id="clip0_31_1733">
<rect width="93" height="40" fill="white"/>
</clipPath>
</defs>
</svg>
