<svg width="121" height="25" viewBox="0 0 121 25" fill="none" xmlns="http://www.w3.org/2000/svg">
<g clip-path="url(#clip0_34_6592)">
<path d="M0 0.226142C1.4079 0.226142 2.82227 0.226142 4.23017 0.258434C4.43684 0.258434 4.68871 0.620097 4.82433 0.865512C7.66167 5.93311 10.4861 11.0072 13.2976 16.0877C13.627 16.6883 13.9434 17.2889 14.3632 17.9929C15.4417 16.0554 16.4557 14.2471 17.4696 12.4194C19.6224 8.54441 21.7601 4.68451 23.8827 0.839679C23.97 0.62686 24.1246 0.448497 24.3229 0.331867C24.5212 0.215236 24.7522 0.16676 24.9806 0.193851C26.1367 0.2326 27.2927 0.193851 28.5198 0.193851V24.7159H22.8623V11.4765L22.6879 11.4054C22.4748 11.7606 22.2552 12.1158 22.0421 12.4775C19.786 16.3912 17.5342 20.3049 15.2867 24.2187C15.2084 24.4054 15.0717 24.5617 14.897 24.6642C14.7224 24.7666 14.5192 24.8097 14.318 24.787C13.4203 24.7353 12.3482 25.0324 11.6637 24.6384C10.9791 24.2445 10.7595 23.1918 10.372 22.4233C8.47757 18.8411 6.5896 15.2546 4.70809 11.6638C4.63749 11.5025 4.51148 11.3719 4.35288 11.2956V24.7289H0V0.226142Z" fill="#000313"/>
<path d="M59.8684 14.8084V0.206184H64.1696V24.8574C63.4015 24.8963 62.632 24.8963 61.864 24.8574C61.5927 24.8251 61.315 24.5087 61.0954 24.2697C56.9105 19.6241 52.7298 14.9784 48.5535 10.3328C48.4484 10.1868 48.3617 10.0284 48.2951 9.86131L48.0562 10.0099V24.7993H43.7227V0.141602C44.7689 0.141602 45.7958 0.141602 46.8162 0.141602C47.0616 0.141602 47.3264 0.451599 47.5201 0.67118C51.3176 5.01545 55.1043 9.35757 58.8802 13.6975L59.8684 14.8084Z" fill="#000313"/>
<path d="M109.831 0C110.885 0.072282 111.934 0.197299 112.976 0.37458C116.851 1.2077 119.234 3.72643 120.293 7.39473C121.523 11.5029 121.159 15.9239 119.273 19.7753C118.759 20.8643 118.018 21.8311 117.1 22.6108C116.183 23.3904 115.109 23.965 113.951 24.296C111.291 25.1192 108.447 25.1394 105.775 24.3542C104.503 24.0176 103.325 23.3937 102.332 22.5305C101.339 21.6672 100.557 20.5877 100.046 19.3748C98.4006 15.7234 98.0808 11.612 99.1423 7.74994C100.479 2.82227 103.934 0.245415 109.049 0.109791C109.308 0.109791 109.566 0.109791 109.824 0.109791L109.831 0ZM114.997 12.1803C114.939 10.2428 114.888 8.23431 114.119 6.36786C113.845 5.53876 113.33 4.81021 112.64 4.27529C111.949 3.74036 111.115 3.42335 110.244 3.36476C107.738 3.13872 105.923 4.46913 105.148 7.14932C104.571 9.27232 104.39 11.4834 104.612 13.6722C104.722 15.1868 105.004 16.6839 105.452 18.1348C106.272 20.6407 108.268 21.8096 110.619 21.364C112.343 21.054 113.338 19.8786 113.99 18.3609C114.733 16.3972 115.074 14.3041 114.991 12.2061L114.997 12.1803Z" fill="#000313"/>
<path d="M95.5834 0.755735C95.3121 2.00864 95.0603 3.15176 94.8149 4.26904C93.3399 3.98567 91.8499 3.78729 90.3522 3.67488C88.7607 3.69975 87.1717 3.81186 85.5924 4.01071C85.3369 4.05353 85.0902 4.13865 84.8626 4.26258C82.9833 5.12799 82.7056 6.9686 84.3847 8.13755C85.4827 8.85819 86.6647 9.44163 87.9045 9.87483C90.0099 10.6563 92.1282 11.3796 93.9946 12.6842C96.3067 14.2987 97.2238 16.4687 96.6684 19.0262C96.4632 20.0738 95.9875 21.0494 95.2884 21.8561C94.5894 22.6627 93.6913 23.2724 92.6836 23.6245C91.0978 24.2335 89.4427 24.6435 87.756 24.8451C84.59 25.1882 81.3875 24.9006 78.3333 23.9991C78.1396 23.941 77.9458 23.8699 77.6875 23.7795L78.4302 20.2727C80.2837 20.5697 82.0468 20.9185 83.8358 21.1122C85.1267 21.2245 86.4259 21.1964 87.7107 21.0283C88.5484 20.9 89.3483 20.5915 90.0551 20.1241C90.3756 19.947 90.6458 19.6913 90.8402 19.3809C91.0346 19.0706 91.1467 18.7159 91.1661 18.3502C91.1855 17.9845 91.1114 17.6199 90.951 17.2907C90.7905 16.9616 90.5489 16.6787 90.2489 16.4687C89.5257 15.9326 88.7326 15.498 87.8916 15.1771C86.1091 14.4344 84.2749 13.8079 82.4989 13.0458C81.6412 12.6679 80.8306 12.1911 80.0835 11.625C76.4411 8.95129 77.5002 3.80404 80.4969 1.83427C81.9098 0.96528 83.4979 0.420469 85.1468 0.239072C88.6295 -0.190439 92.1602 -0.0156529 95.5834 0.755735Z" fill="#000313"/>
<path d="M68.9531 0.28418H74.5525V24.7159H68.9531V0.28418Z" fill="#000313"/>
<path d="M39.0652 24.7545H33.4336V0.316406H39.0652V24.7545Z" fill="#000313"/>
</g>
<defs>
<clipPath id="clip0_34_6592">
<rect width="121.009" height="25" fill="white"/>
</clipPath>
</defs>
</svg>
