<svg width="137" height="61" viewBox="0 0 137 61" fill="none" xmlns="http://www.w3.org/2000/svg">
<path d="M136.415 4.22154C136.569 4.45082 136.508 4.76145 136.279 4.91535L132.542 7.42327C132.313 7.57717 132.002 7.51606 131.849 7.28678C131.695 7.0575 131.756 6.74687 131.985 6.59297L135.306 4.36371L133.077 1.04251C132.923 0.813225 132.984 0.502597 133.213 0.348698C133.443 0.194799 133.753 0.255908 133.907 0.485189L136.415 4.22154ZM135.903 4.99079C135.139 4.84035 134.335 4.71742 133.493 4.62134L133.607 3.62779C134.472 3.72662 135.303 3.85348 136.097 4.0096L135.903 4.99079ZM128.566 4.35941C126.997 4.35767 125.342 4.42295 123.61 4.55155L123.536 3.5543C125.29 3.42408 126.97 3.35764 128.567 3.35941L128.566 4.35941ZM118.649 5.06371C117.051 5.27101 115.404 5.52222 113.713 5.81488L113.542 4.82953C115.246 4.53467 116.907 4.28129 118.521 4.07202L118.649 5.06371ZM108.822 6.75064C107.229 7.08264 105.607 7.44631 103.958 7.83981L103.726 6.86713C105.383 6.47153 107.015 6.10576 108.617 5.7717L108.822 6.75064ZM99.1199 9.05933C97.5343 9.47954 95.9295 9.92425 94.3089 10.392L94.0316 9.43119C95.6589 8.96153 97.2708 8.51485 98.8638 8.0927L99.1199 9.05933ZM89.53 11.8234C87.9567 12.3114 86.3723 12.819 84.7799 13.3449L84.4664 12.3953C86.0644 11.8676 87.6545 11.3582 89.2337 10.8683L89.53 11.8234ZM80.055 14.9503C78.4921 15.4961 76.9245 16.0579 75.355 16.6346L75.0102 15.6959C76.5846 15.1174 78.1573 14.5538 79.7253 14.0062L80.055 14.9503ZM70.6807 18.3937C69.1297 18.9911 67.5796 19.6018 66.0331 20.2247L65.6595 19.2971C67.2106 18.6724 68.7654 18.0598 70.3212 17.4605L70.6807 18.3937ZM61.414 22.1255C59.8771 22.7716 58.3466 23.4285 56.8252 24.0952L56.4238 23.1793C57.9498 22.5106 59.4849 21.8517 61.0265 21.2037L61.414 22.1255ZM52.2691 26.1334C50.7479 26.8281 49.239 27.5315 47.7451 28.2424L47.3154 27.3394C48.8141 26.6262 50.3278 25.9206 51.8537 25.2238L52.2691 26.1334ZM43.252 30.4263C41.7468 31.1735 40.2608 31.9274 38.7971 32.6865L38.3367 31.7988C39.8057 31.0369 41.297 30.2803 42.8073 29.5306L43.252 30.4263ZM34.3853 35.0278C32.9019 35.8335 31.4465 36.6435 30.0228 37.4563L29.527 36.5878C30.9571 35.7715 32.4186 34.958 33.908 34.149L34.3853 35.0278ZM25.7177 39.9807C24.2634 40.8575 22.8499 41.7355 21.4818 42.6127L20.942 41.7708C22.3184 40.8884 23.7397 40.0056 25.2014 39.1243L25.7177 39.9807ZM17.3324 45.3673C15.9238 46.3373 14.577 47.3038 13.2981 48.2639L12.6977 47.4642C13.9885 46.4952 15.3464 45.5208 16.7653 44.5437L17.3324 45.3673ZM9.38541 51.3611C8.04334 52.4868 6.80815 53.5985 5.68967 54.6918L4.99066 53.9767C6.12971 52.8633 7.38408 51.7346 8.74278 50.595L9.38541 51.3611ZM2.36343 58.3157C1.82758 58.9809 1.34441 59.6353 0.916031 60.2779L0.0839691 59.7232C0.530869 59.0528 1.03221 58.3741 1.5847 57.6883L2.36343 58.3157Z" fill="#182700"/>
</svg>
