<svg width="133" height="146" viewBox="0 0 133 146" fill="none" xmlns="http://www.w3.org/2000/svg">
<path d="M132.332 3.12643C132.539 3.30997 132.557 3.62602 132.374 3.83233L129.383 7.19447C129.199 7.40079 128.883 7.41925 128.677 7.23571C128.47 7.05217 128.452 6.73612 128.635 6.5298L131.294 3.54124L128.306 0.882579C128.099 0.699037 128.081 0.382993 128.264 0.176675C128.448 -0.0296421 128.764 -0.048105 128.97 0.135437L132.332 3.12643ZM132.029 3.99915C131.185 4.04846 130.346 4.1022 129.512 4.1603L129.443 3.16272C130.28 3.10435 131.123 3.05038 131.971 3.00085L132.029 3.99915ZM124.571 4.56097C122.916 4.71437 121.282 4.88545 119.668 5.07378L119.552 4.08052C121.174 3.89126 122.816 3.71936 124.478 3.56524L124.571 4.56097ZM114.741 5.71135C113.097 5.9453 111.476 6.19768 109.876 6.468L109.71 5.48198C111.318 5.2102 112.948 4.95649 114.6 4.72133L114.741 5.71135ZM104.99 7.36281C103.359 7.68502 101.752 8.02645 100.169 8.38655L99.9468 7.41146C101.539 7.04922 103.156 6.7058 104.796 6.38177L104.99 7.36281ZM95.3533 9.55782C93.7395 9.97639 92.1518 10.415 90.5898 10.8729L90.3084 9.91331C91.8806 9.45239 93.4784 9.01102 95.1023 8.58985L95.3533 9.55782ZM85.8782 12.3377C84.2892 12.8606 82.7282 13.4042 81.1948 13.9677L80.8499 13.0291C82.3941 12.4616 83.9658 11.9143 85.5656 11.3878L85.8782 12.3377ZM76.6215 15.7399C75.0674 16.3741 73.5432 17.0295 72.0485 17.7052L71.6366 16.794C73.1426 16.1131 74.6782 15.4529 76.2437 14.814L76.6215 15.7399ZM67.5973 19.82C66.1081 20.5628 64.6502 21.3264 63.2228 22.11L62.7416 21.2335C64.1805 20.4435 65.6501 19.6737 67.1509 18.9251L67.5973 19.82ZM58.9306 24.5808C57.5111 25.437 56.124 26.3137 54.7687 27.2098L54.2172 26.3756C55.584 25.4719 56.9828 24.5879 58.4142 23.7245L58.9306 24.5808ZM50.703 30.0236C49.355 30.9997 48.041 31.9956 46.7603 33.0102L46.1393 32.2264C47.4313 31.2029 48.7568 30.1982 50.1165 29.2136L50.703 30.0236ZM42.9652 36.1539C41.711 37.2399 40.4916 38.3445 39.306 39.4663L38.6187 38.74C39.8149 37.6081 41.0452 36.4936 42.3106 35.3979L42.9652 36.1539ZM35.7886 42.9458C34.6365 44.1373 33.5196 45.3456 32.4371 46.5692L31.6881 45.9066C32.7803 44.672 33.9073 43.4529 35.0698 42.2507L35.7886 42.9458ZM29.2535 50.3314C28.21 51.6212 27.2019 52.9255 26.2284 54.2427L25.4242 53.6484C26.4063 52.3195 27.4233 51.0036 28.4762 49.7024L29.2535 50.3314ZM23.3772 58.281C22.4517 59.6539 21.5613 61.0386 20.7051 62.4333L19.8529 61.9101C20.7164 60.5035 21.6145 59.1069 22.548 57.722L23.3772 58.281ZM18.2126 66.6913C17.4059 68.1378 16.6339 69.593 15.8955 71.055L15.0029 70.6042C15.7473 69.1302 16.5258 67.6629 17.3393 66.2042L18.2126 66.6913ZM13.7553 75.5141C13.0683 77.0224 12.4154 78.5357 11.7955 80.0519L10.8699 79.6735C11.4946 78.1453 12.1527 76.62 12.8453 75.0996L13.7553 75.5141ZM10.0145 84.6599C9.44697 86.2163 8.9128 87.7736 8.41074 89.3297L7.45905 89.0226C7.96488 87.4548 8.50311 85.8857 9.075 84.3174L10.0145 84.6599ZM6.98103 94.0581C6.52911 95.6581 6.11003 97.2545 5.72243 98.8448L4.75087 98.608C5.14128 97.0062 5.56342 95.3981 6.01868 93.7863L6.98103 94.0581ZM4.6368 103.672C4.30045 105.302 3.99634 106.923 3.72296 108.533L2.73708 108.365C3.01239 106.745 3.31866 105.112 3.65742 103.47L4.6368 103.672ZM2.98027 113.421C2.75851 115.075 2.56863 116.713 2.40894 118.332L1.41377 118.234C1.5746 116.603 1.76581 114.954 1.98914 113.288L2.98027 113.421ZM2.01033 123.259C1.90479 124.931 1.83118 126.578 1.78745 128.197L0.787811 128.17C0.831863 126.539 0.906006 124.88 1.01231 123.196L2.01033 123.259ZM1.74557 133.141C1.76303 134.828 1.81313 136.477 1.89323 138.084L0.89447 138.134C0.813705 136.514 0.763229 134.852 0.745636 133.151L1.74557 133.141ZM2.24345 143.016C2.31993 143.839 2.40448 144.648 2.49666 145.442L1.50334 145.558C1.41025 144.756 1.32492 143.939 1.24774 143.109L2.24345 143.016Z" fill="#182700"/>
</svg>
