<svg width="29" height="37" viewBox="0 0 29 37" fill="none" xmlns="http://www.w3.org/2000/svg">
<g clip-path="url(#clip0_34_6770)">
<path d="M3.07082 4.04102V4.4781C3.07082 5.89398 3.07082 7.30986 3.07082 8.72574C3.07082 9.91778 3.7974 10.628 5.01923 10.629C8.12732 10.629 11.2354 10.629 14.3435 10.629C15.5796 10.629 16.2909 9.93368 16.294 8.74164C16.294 7.32642 16.294 5.91054 16.294 4.49399V4.0728C16.8198 4.0728 17.3212 4.01221 17.8001 4.08572C18.7682 4.23373 19.4143 5.12975 19.3827 6.20755C19.2869 9.48567 19.185 12.7638 19.077 16.0419C18.9608 19.7412 18.8439 23.4405 18.7264 27.1398C18.6439 29.8458 18.5705 32.5527 18.489 35.2586C18.4667 35.7033 18.2782 36.1247 17.9591 36.4431C17.6399 36.7616 17.2121 36.9551 16.7566 36.9871C16.2868 37.0089 15.815 36.998 15.3432 36.998C11.2419 36.998 7.13987 36.998 3.03719 36.998C2.52766 36.998 2.05075 36.9146 1.63702 36.6007C1.15909 36.2421 0.943049 35.7623 0.923687 35.1811C0.817707 31.8037 0.710027 28.4262 0.60065 25.0488C0.438961 19.9025 0.272857 14.7538 0.102336 9.60289C0.0656508 8.47343 0.0197938 7.34397 0.000431889 6.21351C-0.0219871 4.87445 0.829935 4.04499 2.19953 4.04201L3.07082 4.04102ZM9.79652 13.5178H3.64148C2.95872 13.5178 2.76918 13.7085 2.78243 14.3562C2.82251 16.3171 2.86123 18.278 2.8986 20.2389C2.90981 20.8677 3.07795 21.0336 3.71383 21.0336H15.7814C16.3846 21.0336 16.5813 20.8468 16.5966 20.2637C16.6523 18.2909 16.7077 16.3177 16.7627 14.3442C16.7811 13.7125 16.5874 13.5148 15.9393 13.5148L9.79652 13.5178ZM14.9396 32.7285H16.0056C16.4203 32.7076 16.6527 32.502 16.6567 32.1524C16.6608 31.8027 16.4325 31.5732 16.0208 31.5663C15.2973 31.5543 14.5741 31.5543 13.8513 31.5663C13.4355 31.5732 13.2175 31.7957 13.2236 32.1563C13.2297 32.5169 13.4529 32.7146 13.8737 32.7265C14.2294 32.7355 14.584 32.7275 14.9396 32.7285ZM9.71397 32.7285C10.0686 32.7285 10.4273 32.7285 10.7789 32.7285C11.1977 32.7216 11.425 32.5219 11.4382 32.1663C11.4514 31.8106 11.2089 31.5702 10.7758 31.5653C10.0625 31.5553 9.35527 31.5534 8.645 31.5653C8.22107 31.5722 8.00911 31.7818 8.01115 32.1464C8.01319 32.511 8.22515 32.7136 8.64805 32.7265C9.00268 32.7365 9.35833 32.7275 9.71397 32.7285ZM4.55149 24.7984H5.62149C5.6473 24.7984 5.67278 24.7984 5.69792 24.7984C6.08719 24.7607 6.28591 24.5511 6.27062 24.1935C6.25737 23.8627 6.04643 23.6541 5.67448 23.6491C4.93567 23.6382 4.19686 23.6392 3.45805 23.6491C3.07184 23.6491 2.84663 23.8766 2.83847 24.2163C2.83032 24.5561 3.05757 24.7816 3.44379 24.7975C3.81166 24.8104 4.17852 24.7984 4.55149 24.7984ZM4.56779 32.7265C4.93567 32.7265 5.30456 32.7384 5.67142 32.7265C6.05968 32.7096 6.27062 32.4941 6.27164 32.1474C6.27266 31.8007 6.06783 31.5782 5.67244 31.5702C4.93771 31.5543 4.20094 31.5563 3.46519 31.5702C3.07184 31.5772 2.85376 31.7947 2.83847 32.1295C2.82726 32.4802 3.06063 32.7146 3.46417 32.7255C3.83204 32.7374 4.19992 32.7265 4.56779 32.7265ZM14.9621 23.6441C14.5921 23.6441 14.2233 23.6372 13.8533 23.6441C13.4569 23.6531 13.2348 23.8547 13.2236 24.1965C13.2103 24.563 13.4274 24.7865 13.8442 24.7925C14.5833 24.8051 15.3221 24.8051 16.0606 24.7925C16.4458 24.7845 16.6659 24.5461 16.6578 24.2064C16.6496 23.8667 16.4213 23.6561 16.0321 23.6451C15.6754 23.6422 15.3187 23.6422 14.9621 23.6422V23.6441ZM9.72111 24.7994C10.089 24.7994 10.4569 24.8074 10.8247 24.7994C11.212 24.7885 11.4362 24.5789 11.4362 24.2352C11.4362 23.8915 11.2099 23.6531 10.8044 23.6481C10.089 23.6422 9.36037 23.6422 8.63786 23.6422C8.23636 23.6471 8.02644 23.8408 8.01115 24.1895C7.99688 24.562 8.20069 24.7756 8.62258 24.7925C8.98536 24.8104 9.35323 24.7994 9.72111 24.7994ZM4.51582 28.7868C4.89797 28.7868 5.28011 28.7938 5.66225 28.7868C6.04439 28.7799 6.27368 28.5673 6.27368 28.2196C6.27368 27.8719 6.07496 27.6534 5.67346 27.6474C4.93567 27.6365 4.19686 27.6385 3.45805 27.6474C3.0698 27.6524 2.84663 27.8729 2.84051 28.2107C2.8344 28.5484 3.07693 28.7789 3.48659 28.7868C3.82797 28.7918 4.1724 28.7868 4.51582 28.7868ZM9.71296 28.7868C10.0819 28.7868 10.4518 28.7868 10.8207 28.7868C11.211 28.7799 11.4321 28.5772 11.4433 28.2305C11.4545 27.8838 11.2283 27.6534 10.8461 27.6474C10.0948 27.6362 9.34338 27.6362 8.59201 27.6474C8.20986 27.6534 8.02032 27.854 8.01523 28.2007C8.01013 28.5474 8.21904 28.7719 8.60423 28.7838C8.96803 28.7948 9.33897 28.7858 9.70888 28.7868H9.71296ZM14.9244 28.7868C15.3055 28.7868 15.6886 28.7958 16.0698 28.7868C16.4305 28.7759 16.6506 28.5593 16.6618 28.2335C16.673 27.9077 16.4478 27.6554 16.0677 27.6494C15.3163 27.6382 14.565 27.6382 13.8136 27.6494C13.4233 27.6564 13.2164 27.8809 13.2276 28.2355C13.2368 28.5643 13.4518 28.7759 13.8156 28.7868C14.1794 28.7977 14.5504 28.7858 14.9203 28.7858L14.9244 28.7868Z" fill="black"/>
<path d="M19.8633 31.2257C20.1007 23.8639 20.3361 16.5547 20.5766 9.18784H20.9924C23.057 9.18784 25.1205 9.20771 27.1841 9.17791C28.0686 9.16599 29.0092 9.763 29.0031 10.9342C28.9725 17.0586 28.9725 23.1824 29.0031 29.3055C29.0102 30.5532 28.2082 31.2565 27.0333 31.2367C24.8046 31.1979 22.5739 31.2257 20.3443 31.2257H19.8633ZM24.824 28.7195C25.1684 28.7195 25.5129 28.7363 25.8553 28.7195C26.2532 28.6998 26.6293 28.5362 26.9101 28.2607C27.1909 27.9851 27.3562 27.6174 27.3736 27.2294C27.3974 26.7208 27.3974 26.2119 27.3736 25.7026C27.3527 25.3017 27.1789 24.923 26.8863 24.6405C26.5937 24.3581 26.2035 24.1924 25.7921 24.1758C25.1562 24.1539 24.5183 24.1529 23.8824 24.1758C23.4711 24.1939 23.0816 24.3609 22.79 24.6442C22.4984 24.9275 22.3258 25.3067 22.3059 25.7076C22.2835 26.2162 22.2825 26.7268 22.3059 27.2344C22.3228 27.6233 22.4885 27.9919 22.7702 28.2677C23.052 28.5435 23.4295 28.7064 23.8284 28.7244C24.1616 28.7354 24.4938 28.7204 24.824 28.7195ZM22.9388 16.7474C22.9388 18.1878 22.9388 19.6281 22.9388 21.0675C22.9388 21.449 23.1945 21.7182 23.5237 21.7232C23.8528 21.7281 24.1045 21.4679 24.1351 21.0864C24.1351 21.0248 24.1351 20.9622 24.1351 20.8997C24.1351 18.1441 24.1351 15.3878 24.1351 12.6309C24.1416 12.4826 24.1251 12.3343 24.0862 12.1908C24.0623 12.1099 24.0197 12.0354 23.9617 11.973C23.9036 11.9106 23.8317 11.8621 23.7514 11.831C23.6712 11.7999 23.5846 11.7872 23.4985 11.7938C23.4124 11.8003 23.329 11.8261 23.2547 11.8689C22.9836 12.017 22.9377 12.2663 22.9377 12.5385C22.9408 13.9411 22.9388 15.3437 22.9388 16.7474ZM26.6134 15.6547C26.6134 14.5987 26.6134 13.5438 26.6134 12.4878C26.6134 12.0358 26.4168 11.8034 26.0519 11.7925C25.6871 11.7815 25.4405 12.0398 25.4405 12.4878C25.4405 14.5865 25.4405 16.6855 25.4405 18.7848C25.4405 19.2378 25.6667 19.4801 26.0519 19.4712C26.4371 19.4623 26.6094 19.2427 26.6104 18.7818C26.6155 17.7398 26.6134 16.6957 26.6134 15.6527V15.6547Z" fill="black"/>
<path d="M9.70937 0C11.2488 0 12.7889 0 14.3297 0C14.9513 0 15.1205 0.166886 15.1205 0.775821C15.1205 3.41951 15.1205 6.06286 15.1205 8.70588C15.1205 9.3019 14.9411 9.47773 14.3216 9.47872H5.08086C4.44905 9.47872 4.26562 9.30091 4.26562 8.67906V0.787741C4.26562 0.167879 4.43988 0.000993369 5.08086 0.000993369C6.62573 0.000331123 8.16857 0 9.70937 0ZM9.70937 7.23073H11.2756C11.8106 7.23073 12.3456 7.24066 12.8796 7.23073C13.2536 7.2208 13.5145 6.97146 13.5165 6.66352C13.5186 6.35557 13.2424 6.10028 12.8949 6.0675C12.793 6.05856 12.6911 6.0675 12.5892 6.0675H7.23512C6.98036 6.0675 6.71439 6.02875 6.47492 6.08736C6.28945 6.13306 6.05711 6.27114 5.98985 6.42709C5.95798 6.52334 5.94949 6.62548 5.96506 6.72547C5.98062 6.82546 6.01981 6.92055 6.07953 7.00325C6.20996 7.14431 6.47593 7.22278 6.68586 7.22676C7.69369 7.24265 8.69949 7.22974 9.70631 7.23073H9.70937ZM9.74809 4.68473C10.6992 4.68473 11.6534 4.68473 12.6106 4.68473C12.7379 4.68909 12.8653 4.68344 12.9917 4.66784C13.3086 4.61817 13.5012 4.42645 13.5094 4.11652C13.5175 3.80659 13.3056 3.61984 13.0101 3.53739C12.8974 3.51809 12.7827 3.51275 12.6687 3.52149H6.74802C6.67261 3.52149 6.59516 3.52149 6.51975 3.52149C6.1692 3.55129 5.9389 3.77679 5.9338 4.0897C5.92871 4.40261 6.13761 4.63108 6.50039 4.67479C6.61456 4.68474 6.72926 4.68773 6.84381 4.68373L9.74809 4.68473Z" fill="black"/>
<path d="M24.8492 27.5819C24.5944 27.5819 24.3397 27.5819 24.0859 27.5819C23.6487 27.5729 23.4816 27.416 23.4745 27.0008C23.4674 26.6292 23.4663 26.2567 23.4745 25.8852C23.4826 25.4968 23.6355 25.3359 24.0248 25.3279C24.571 25.317 25.1182 25.32 25.6654 25.3279C26.0201 25.3279 26.2015 25.5266 26.2076 25.8683C26.2147 26.2657 26.2157 26.663 26.2076 27.0604C26.1994 27.407 26.0038 27.5789 25.6502 27.5839C25.3832 27.5849 25.1162 27.5819 24.8492 27.5819Z" fill="black"/>
</g>
<defs>
<clipPath id="clip0_34_6770">
<rect width="29" height="37" fill="white"/>
</clipPath>
</defs>
</svg>
