<svg width="339" height="343" viewBox="0 0 339 343" fill="none" xmlns="http://www.w3.org/2000/svg">
<g filter="url(#filter0_d_98_118)">
<rect x="51" y="29" width="273" height="237" rx="14" fill="#F5F6F3"/>
<rect x="52.5" y="30.5" width="270" height="234" rx="12.5" stroke="white" stroke-width="3"/>
<rect x="73" y="53" width="40" height="40" rx="20" fill="#152400" fill-opacity="0.08"/>
<g clip-path="url(#clip0_98_118)">
<path d="M100.995 74.0204C100.79 73.8629 100.556 73.7486 100.306 73.6845C100.056 73.6205 99.7956 73.608 99.5406 73.6477C101.008 72.1665 101.75 70.6938 101.75 69.2501C101.75 67.1821 100.087 65.5001 98.0422 65.5001C97.4997 65.4967 96.963 65.612 96.4699 65.8381C95.9767 66.0642 95.539 66.3954 95.1875 66.8087C94.836 66.3954 94.3983 66.0642 93.9051 65.8381C93.412 65.612 92.8753 65.4967 92.3328 65.5001C90.2883 65.5001 88.625 67.1821 88.625 69.2501C88.625 70.1094 88.8781 70.9446 89.4109 71.8282C88.9746 71.9388 88.5763 72.1655 88.2586 72.4844L86.4914 74.2501H84.25C83.9185 74.2501 83.6005 74.3818 83.3661 74.6162C83.1317 74.8506 83 75.1686 83 75.5001V78.6251C83 78.9566 83.1317 79.2745 83.3661 79.509C83.6005 79.7434 83.9185 79.8751 84.25 79.8751H92.375C92.4261 79.8751 92.477 79.8688 92.5266 79.8563L97.5266 78.6063C97.5584 78.5987 97.5896 78.5883 97.6195 78.5751L100.656 77.2829L100.691 77.2673C100.982 77.1214 101.232 76.9037 101.417 76.6346C101.601 76.3655 101.714 76.0538 101.745 75.729C101.776 75.4042 101.723 75.0769 101.592 74.778C101.462 74.4791 101.257 74.2183 100.998 74.0204H100.995ZM100.143 76.1415L97.1742 77.4055L92.2969 78.6251H87.375V75.1337L89.143 73.3665C89.2586 73.2499 89.3963 73.1575 89.548 73.0946C89.6997 73.0317 89.8623 72.9995 90.0266 73.0001H93.9375C94.1861 73.0001 94.4246 73.0988 94.6004 73.2747C94.7762 73.4505 94.875 73.6889 94.875 73.9376C94.875 74.1862 94.7762 74.4247 94.6004 74.6005C94.4246 74.7763 94.1861 74.8751 93.9375 74.8751H91.75C91.5842 74.8751 91.4253 74.9409 91.3081 75.0581C91.1908 75.1753 91.125 75.3343 91.125 75.5001C91.125 75.6658 91.1908 75.8248 91.3081 75.942C91.4253 76.0592 91.5842 76.1251 91.75 76.1251H94.25C94.297 76.1249 94.3439 76.1197 94.3898 76.1094L99.6242 74.9055L99.6484 74.8993C99.8082 74.8549 99.9788 74.8712 100.127 74.9451C100.276 75.0189 100.392 75.145 100.453 75.2992C100.514 75.4534 100.516 75.6247 100.458 75.7802C100.401 75.9357 100.287 76.0644 100.141 76.1415H100.143Z" fill="#667057"/>
</g>
<path d="M73.6165 114.141V112.818H81.4964V114.141H78.3196V123H76.7884V114.141H73.6165ZM85.0036 123.154C84.2877 123.154 83.663 122.99 83.1293 122.662C82.5957 122.334 82.1814 121.875 81.8864 121.285C81.5915 120.695 81.444 120.005 81.444 119.217C81.444 118.424 81.5915 117.732 81.8864 117.138C82.1814 116.545 82.5957 116.085 83.1293 115.756C83.663 115.428 84.2877 115.264 85.0036 115.264C85.7195 115.264 86.3443 115.428 86.8779 115.756C87.4115 116.085 87.8258 116.545 88.1208 117.138C88.4158 117.732 88.5633 118.424 88.5633 119.217C88.5633 120.005 88.4158 120.695 88.1208 121.285C87.8258 121.875 87.4115 122.334 86.8779 122.662C86.3443 122.99 85.7195 123.154 85.0036 123.154ZM85.0086 121.906C85.4726 121.906 85.8571 121.784 86.162 121.538C86.4669 121.293 86.6923 120.967 86.8381 120.559C86.9873 120.151 87.0619 119.702 87.0619 119.212C87.0619 118.724 86.9873 118.277 86.8381 117.869C86.6923 117.458 86.4669 117.129 86.162 116.88C85.8571 116.631 85.4726 116.507 85.0086 116.507C84.5413 116.507 84.1535 116.631 83.8452 116.88C83.5403 117.129 83.3133 117.458 83.1641 117.869C83.0183 118.277 82.9454 118.724 82.9454 119.212C82.9454 119.702 83.0183 120.151 83.1641 120.559C83.3133 120.967 83.5403 121.293 83.8452 121.538C84.1535 121.784 84.5413 121.906 85.0086 121.906ZM93.5632 115.364V116.557H89.392V115.364H93.5632ZM90.5106 113.534H91.9971V120.758C91.9971 121.046 92.0402 121.263 92.1264 121.409C92.2126 121.552 92.3236 121.649 92.4595 121.702C92.5987 121.752 92.7495 121.777 92.9119 121.777C93.0312 121.777 93.1356 121.769 93.2251 121.752C93.3146 121.736 93.3842 121.722 93.4339 121.712L93.7024 122.94C93.6162 122.973 93.4936 123.007 93.3345 123.04C93.1754 123.076 92.9765 123.096 92.7379 123.099C92.3468 123.106 91.9822 123.036 91.6442 122.891C91.3061 122.745 91.0326 122.519 90.8238 122.214C90.615 121.91 90.5106 121.527 90.5106 121.066V113.534ZM97.2058 123.169C96.7219 123.169 96.2844 123.08 95.8933 122.901C95.5022 122.718 95.1923 122.455 94.9637 122.11C94.7383 121.765 94.6256 121.343 94.6256 120.842C94.6256 120.411 94.7084 120.057 94.8742 119.778C95.0399 119.5 95.2636 119.28 95.5453 119.117C95.8271 118.955 96.1419 118.832 96.4899 118.749C96.8379 118.666 97.1926 118.603 97.5539 118.56C98.0112 118.507 98.3825 118.464 98.6675 118.431C98.9525 118.395 99.1597 118.337 99.2889 118.257C99.4182 118.178 99.4828 118.048 99.4828 117.869V117.835C99.4828 117.4 99.3602 117.064 99.1149 116.825C98.873 116.587 98.5117 116.467 98.0311 116.467C97.5307 116.467 97.1362 116.578 96.8479 116.8C96.5628 117.019 96.3656 117.263 96.2563 117.531L94.8592 117.213C95.025 116.749 95.2669 116.375 95.5851 116.089C95.9066 115.801 96.2762 115.592 96.6938 115.463C97.1114 115.33 97.5505 115.264 98.0112 115.264C98.3162 115.264 98.6393 115.301 98.9807 115.374C99.3254 115.443 99.6469 115.572 99.9452 115.761C100.247 115.95 100.494 116.22 100.686 116.572C100.878 116.92 100.974 117.372 100.974 117.929V123H99.5226V121.956H99.4629C99.3668 122.148 99.2226 122.337 99.0304 122.523C98.8382 122.708 98.5913 122.862 98.2896 122.985C97.988 123.108 97.6268 123.169 97.2058 123.169ZM97.529 121.976C97.94 121.976 98.2913 121.895 98.583 121.732C98.878 121.57 99.1017 121.358 99.2541 121.096C99.4099 120.831 99.4878 120.547 99.4878 120.246V119.261C99.4348 119.314 99.332 119.364 99.1796 119.411C99.0304 119.454 98.8597 119.492 98.6675 119.525C98.4753 119.555 98.288 119.583 98.1057 119.609C97.9234 119.633 97.7709 119.652 97.6483 119.669C97.36 119.705 97.0965 119.767 96.8578 119.853C96.6225 119.939 96.4336 120.063 96.2911 120.226C96.1519 120.385 96.0823 120.597 96.0823 120.862C96.0823 121.23 96.2182 121.509 96.4899 121.697C96.7617 121.883 97.1081 121.976 97.529 121.976ZM104.217 112.818V123H102.73V112.818H104.217ZM109.091 114.141V112.818H116.971V114.141H113.794V123H112.263V114.141H109.091ZM117.576 123V115.364H119.013V116.577H119.092C119.231 116.166 119.477 115.843 119.828 115.607C120.183 115.369 120.584 115.249 121.031 115.249C121.124 115.249 121.233 115.253 121.359 115.259C121.488 115.266 121.59 115.274 121.662 115.284V116.706C121.603 116.689 121.497 116.671 121.344 116.651C121.192 116.628 121.039 116.616 120.887 116.616C120.536 116.616 120.222 116.691 119.947 116.84C119.675 116.986 119.46 117.19 119.301 117.452C119.142 117.71 119.062 118.005 119.062 118.337V123H117.576ZM124.879 123.169C124.395 123.169 123.957 123.08 123.566 122.901C123.175 122.718 122.865 122.455 122.637 122.11C122.411 121.765 122.299 121.343 122.299 120.842C122.299 120.411 122.381 120.057 122.547 119.778C122.713 119.5 122.937 119.28 123.218 119.117C123.5 118.955 123.815 118.832 124.163 118.749C124.511 118.666 124.866 118.603 125.227 118.56C125.684 118.507 126.055 118.464 126.34 118.431C126.625 118.395 126.833 118.337 126.962 118.257C127.091 118.178 127.156 118.048 127.156 117.869V117.835C127.156 117.4 127.033 117.064 126.788 116.825C126.546 116.587 126.185 116.467 125.704 116.467C125.204 116.467 124.809 116.578 124.521 116.8C124.236 117.019 124.039 117.263 123.929 117.531L122.532 117.213C122.698 116.749 122.94 116.375 123.258 116.089C123.58 115.801 123.949 115.592 124.367 115.463C124.784 115.33 125.224 115.264 125.684 115.264C125.989 115.264 126.312 115.301 126.654 115.374C126.998 115.443 127.32 115.572 127.618 115.761C127.92 115.95 128.167 116.22 128.359 116.572C128.551 116.92 128.647 117.372 128.647 117.929V123H127.196V121.956H127.136C127.04 122.148 126.896 122.337 126.703 122.523C126.511 122.708 126.264 122.862 125.963 122.985C125.661 123.108 125.3 123.169 124.879 123.169ZM125.202 121.976C125.613 121.976 125.964 121.895 126.256 121.732C126.551 121.57 126.775 121.358 126.927 121.096C127.083 120.831 127.161 120.547 127.161 120.246V119.261C127.108 119.314 127.005 119.364 126.853 119.411C126.703 119.454 126.533 119.492 126.34 119.525C126.148 119.555 125.961 119.583 125.779 119.609C125.596 119.633 125.444 119.652 125.321 119.669C125.033 119.705 124.769 119.767 124.531 119.853C124.295 119.939 124.107 120.063 123.964 120.226C123.825 120.385 123.755 120.597 123.755 120.862C123.755 121.23 123.891 121.509 124.163 121.697C124.435 121.883 124.781 121.976 125.202 121.976ZM131.89 118.466V123H130.403V115.364H131.83V116.607H131.925C132.1 116.202 132.375 115.877 132.75 115.632C133.128 115.387 133.603 115.264 134.177 115.264C134.697 115.264 135.153 115.374 135.544 115.592C135.935 115.808 136.238 116.129 136.454 116.557C136.669 116.984 136.777 117.513 136.777 118.143V123H135.29V118.322C135.29 117.768 135.146 117.336 134.858 117.024C134.569 116.709 134.173 116.552 133.67 116.552C133.325 116.552 133.018 116.626 132.75 116.776C132.485 116.925 132.274 117.143 132.118 117.432C131.966 117.717 131.89 118.062 131.89 118.466ZM144.269 117.228L142.921 117.467C142.865 117.294 142.776 117.13 142.653 116.974C142.534 116.819 142.371 116.691 142.166 116.592C141.96 116.492 141.703 116.442 141.395 116.442C140.974 116.442 140.623 116.537 140.341 116.726C140.059 116.911 139.919 117.152 139.919 117.447C139.919 117.702 140.013 117.907 140.202 118.063C140.391 118.219 140.696 118.347 141.117 118.446L142.33 118.724C143.032 118.887 143.556 119.137 143.901 119.475C144.246 119.813 144.418 120.252 144.418 120.793C144.418 121.25 144.285 121.658 144.02 122.016C143.758 122.37 143.392 122.649 142.921 122.851C142.454 123.053 141.912 123.154 141.296 123.154C140.441 123.154 139.743 122.972 139.203 122.607C138.662 122.239 138.331 121.717 138.208 121.041L139.645 120.822C139.735 121.197 139.919 121.48 140.197 121.673C140.475 121.862 140.838 121.956 141.286 121.956C141.773 121.956 142.162 121.855 142.454 121.653C142.746 121.447 142.892 121.197 142.892 120.902C142.892 120.663 142.802 120.463 142.623 120.3C142.447 120.138 142.177 120.015 141.813 119.933L140.52 119.649C139.808 119.487 139.281 119.228 138.939 118.874C138.601 118.519 138.432 118.07 138.432 117.526C138.432 117.076 138.558 116.681 138.81 116.343C139.062 116.005 139.41 115.741 139.854 115.553C140.298 115.36 140.807 115.264 141.38 115.264C142.205 115.264 142.855 115.443 143.329 115.801C143.803 116.156 144.116 116.631 144.269 117.228ZM149.462 115.364V116.557H145.147V115.364H149.462ZM146.33 123V114.479C146.33 114.001 146.435 113.605 146.644 113.29C146.852 112.972 147.129 112.735 147.474 112.58C147.819 112.42 148.193 112.341 148.597 112.341C148.896 112.341 149.151 112.366 149.363 112.415C149.575 112.462 149.733 112.505 149.835 112.545L149.487 113.748C149.418 113.728 149.328 113.705 149.219 113.678C149.11 113.648 148.977 113.634 148.821 113.634C148.46 113.634 148.201 113.723 148.046 113.902C147.893 114.081 147.817 114.339 147.817 114.678V123H146.33ZM153.763 123.154C153.01 123.154 152.362 122.993 151.819 122.672C151.278 122.347 150.861 121.891 150.566 121.305C150.274 120.715 150.128 120.024 150.128 119.232C150.128 118.449 150.274 117.76 150.566 117.163C150.861 116.567 151.272 116.101 151.799 115.766C152.329 115.432 152.949 115.264 153.658 115.264C154.089 115.264 154.507 115.335 154.911 115.478C155.315 115.621 155.678 115.844 156 116.149C156.321 116.454 156.575 116.85 156.761 117.337C156.946 117.821 157.039 118.41 157.039 119.102V119.629H150.969V118.516H155.582C155.582 118.125 155.503 117.778 155.344 117.477C155.185 117.172 154.961 116.931 154.672 116.756C154.387 116.58 154.053 116.492 153.668 116.492C153.251 116.492 152.886 116.595 152.574 116.8C152.266 117.003 152.028 117.268 151.859 117.596C151.693 117.921 151.61 118.274 151.61 118.655V119.525C151.61 120.035 151.699 120.469 151.878 120.827C152.061 121.185 152.314 121.459 152.639 121.648C152.964 121.833 153.343 121.926 153.778 121.926C154.059 121.926 154.316 121.886 154.548 121.807C154.78 121.724 154.981 121.601 155.15 121.439C155.319 121.277 155.448 121.076 155.537 120.837L156.944 121.091C156.832 121.505 156.63 121.868 156.338 122.18C156.05 122.488 155.687 122.728 155.249 122.901C154.815 123.07 154.319 123.154 153.763 123.154ZM158.464 123V115.364H159.901V116.577H159.981C160.12 116.166 160.365 115.843 160.716 115.607C161.071 115.369 161.472 115.249 161.919 115.249C162.012 115.249 162.122 115.253 162.248 115.259C162.377 115.266 162.478 115.274 162.551 115.284V116.706C162.491 116.689 162.385 116.671 162.233 116.651C162.08 116.628 161.928 116.616 161.775 116.616C161.424 116.616 161.111 116.691 160.836 116.84C160.564 116.986 160.348 117.19 160.189 117.452C160.03 117.71 159.951 118.005 159.951 118.337V123H158.464Z" fill="black" fill-opacity="0.64"/>
<path d="M81.6804 163.278C80.4342 163.278 79.3139 163.04 78.3196 162.562C77.3319 162.079 76.5431 161.416 75.9531 160.574C75.3632 159.732 75.0483 158.771 75.0085 157.69H77.9915C78.0644 158.565 78.4522 159.285 79.1548 159.848C79.8575 160.411 80.6993 160.693 81.6804 160.693C82.4626 160.693 83.1553 160.514 83.7585 160.156C84.3684 159.792 84.8456 159.291 85.1903 158.655C85.5417 158.018 85.7173 157.293 85.7173 156.477C85.7173 155.649 85.5384 154.91 85.1804 154.26C84.8224 153.61 84.3286 153.1 83.6989 152.729C83.0758 152.357 82.3598 152.169 81.5511 152.162C80.9347 152.162 80.3149 152.268 79.6918 152.48C79.0687 152.692 78.5649 152.971 78.1804 153.315L75.3665 152.898L76.5099 142.636H87.706V145.271H79.0653L78.419 150.969H78.5384C78.9361 150.584 79.4631 150.263 80.1193 150.004C80.7822 149.746 81.4915 149.616 82.2472 149.616C83.4867 149.616 84.5904 149.911 85.5582 150.501C86.5327 151.091 87.2983 151.897 87.8551 152.918C88.4186 153.932 88.697 155.098 88.6903 156.418C88.697 157.737 88.3987 158.913 87.7955 159.947C87.1989 160.982 86.3703 161.797 85.3097 162.393C84.2557 162.983 83.0459 163.278 81.6804 163.278ZM98.9636 163.338C97.3926 163.331 96.0502 162.917 94.9366 162.095C93.823 161.273 92.9712 160.077 92.3812 158.506C91.7912 156.935 91.4962 155.042 91.4962 152.828C91.4962 150.621 91.7912 148.735 92.3812 147.17C92.9778 145.606 93.8329 144.413 94.9465 143.591C96.0668 142.769 97.4058 142.358 98.9636 142.358C100.521 142.358 101.857 142.772 102.971 143.601C104.084 144.423 104.936 145.616 105.526 147.18C106.123 148.738 106.421 150.621 106.421 152.828C106.421 155.049 106.126 156.945 105.536 158.516C104.946 160.08 104.094 161.277 102.981 162.105C101.867 162.927 100.528 163.338 98.9636 163.338ZM98.9636 160.683C100.342 160.683 101.42 160.01 102.195 158.665C102.977 157.319 103.368 155.374 103.368 152.828C103.368 151.138 103.189 149.709 102.831 148.543C102.48 147.369 101.973 146.481 101.31 145.878C100.654 145.268 99.8717 144.963 98.9636 144.963C97.5914 144.963 96.5142 145.639 95.732 146.991C94.9498 148.344 94.5554 150.289 94.5488 152.828C94.5488 154.525 94.7245 155.96 95.0758 157.134C95.4337 158.3 95.9408 159.185 96.5971 159.788C97.2533 160.385 98.0422 160.683 98.9636 160.683ZM112.67 160.216L112.521 161.3C112.421 162.095 112.252 162.924 112.013 163.786C111.781 164.654 111.539 165.459 111.288 166.202C111.042 166.944 110.84 167.534 110.681 167.972H108.573C108.659 167.561 108.779 167.004 108.931 166.301C109.084 165.605 109.233 164.826 109.379 163.964C109.524 163.103 109.634 162.224 109.707 161.33L109.806 160.216H112.67ZM122.732 163.338C121.161 163.331 119.818 162.917 118.705 162.095C117.591 161.273 116.739 160.077 116.149 158.506C115.559 156.935 115.264 155.042 115.264 152.828C115.264 150.621 115.559 148.735 116.149 147.17C116.746 145.606 117.601 144.413 118.715 143.591C119.835 142.769 121.174 142.358 122.732 142.358C124.289 142.358 125.625 142.772 126.739 143.601C127.852 144.423 128.704 145.616 129.294 147.18C129.891 148.738 130.189 150.621 130.189 152.828C130.189 155.049 129.894 156.945 129.304 158.516C128.714 160.08 127.862 161.277 126.749 162.105C125.635 162.927 124.296 163.338 122.732 163.338ZM122.732 160.683C124.11 160.683 125.188 160.01 125.963 158.665C126.745 157.319 127.136 155.374 127.136 152.828C127.136 151.138 126.957 149.709 126.6 148.543C126.248 147.369 125.741 146.481 125.078 145.878C124.422 145.268 123.64 144.963 122.732 144.963C121.359 144.963 120.282 145.639 119.5 146.991C118.718 148.344 118.323 150.289 118.317 152.828C118.317 154.525 118.493 155.96 118.844 157.134C119.202 158.3 119.709 159.185 120.365 159.788C121.021 160.385 121.81 160.683 122.732 160.683ZM140.358 163.338C138.787 163.331 137.445 162.917 136.331 162.095C135.217 161.273 134.365 160.077 133.775 158.506C133.186 156.935 132.891 155.042 132.891 152.828C132.891 150.621 133.186 148.735 133.775 147.17C134.372 145.606 135.227 144.413 136.341 143.591C137.461 142.769 138.8 142.358 140.358 142.358C141.916 142.358 143.251 142.772 144.365 143.601C145.479 144.423 146.33 145.616 146.92 147.18C147.517 148.738 147.815 150.621 147.815 152.828C147.815 155.049 147.52 156.945 146.93 158.516C146.34 160.08 145.489 161.277 144.375 162.105C143.261 162.927 141.922 163.338 140.358 163.338ZM140.358 160.683C141.737 160.683 142.814 160.01 143.589 158.665C144.372 157.319 144.763 155.374 144.763 152.828C144.763 151.138 144.584 149.709 144.226 148.543C143.874 147.369 143.367 146.481 142.704 145.878C142.048 145.268 141.266 144.963 140.358 144.963C138.986 144.963 137.909 145.639 137.126 146.991C136.344 148.344 135.95 150.289 135.943 152.828C135.943 154.525 136.119 155.96 136.47 157.134C136.828 158.3 137.335 159.185 137.991 159.788C138.648 160.385 139.436 160.683 140.358 160.683ZM157.984 163.338C156.413 163.331 155.071 162.917 153.957 162.095C152.843 161.273 151.992 160.077 151.402 158.506C150.812 156.935 150.517 155.042 150.517 152.828C150.517 150.621 150.812 148.735 151.402 147.17C151.998 145.606 152.853 144.413 153.967 143.591C155.087 142.769 156.426 142.358 157.984 142.358C159.542 142.358 160.878 142.772 161.991 143.601C163.105 144.423 163.957 145.616 164.547 147.18C165.143 148.738 165.441 150.621 165.441 152.828C165.441 155.049 165.146 156.945 164.557 158.516C163.967 160.08 163.115 161.277 162.001 162.105C160.887 162.927 159.548 163.338 157.984 163.338ZM157.984 160.683C159.363 160.683 160.44 160.01 161.216 158.665C161.998 157.319 162.389 155.374 162.389 152.828C162.389 151.138 162.21 149.709 161.852 148.543C161.501 147.369 160.994 146.481 160.331 145.878C159.674 145.268 158.892 144.963 157.984 144.963C156.612 144.963 155.535 145.639 154.753 146.991C153.97 148.344 153.576 150.289 153.569 152.828C153.569 154.525 153.745 155.96 154.096 157.134C154.454 158.3 154.961 159.185 155.618 159.788C156.274 160.385 157.063 160.683 157.984 160.683Z" fill="black"/>
<path d="M77.4148 191H74.1186V180.818H77.5192C78.5168 180.818 79.3736 181.022 80.0895 181.43C80.8054 181.834 81.3539 182.416 81.7351 183.175C82.1196 183.93 82.3118 184.837 82.3118 185.894C82.3118 186.955 82.1179 187.866 81.7301 188.629C81.3456 189.391 80.7888 189.978 80.0597 190.388C79.3305 190.796 78.4489 191 77.4148 191ZM75.6548 189.658H77.3303C78.1058 189.658 78.7505 189.512 79.2642 189.22C79.7779 188.925 80.1624 188.499 80.4176 187.942C80.6728 187.382 80.8004 186.7 80.8004 185.894C80.8004 185.095 80.6728 184.418 80.4176 183.861C80.1657 183.304 79.7895 182.881 79.2891 182.593C78.7886 182.305 78.1671 182.161 77.4247 182.161H75.6548V189.658ZM87.17 191.154C86.4176 191.154 85.7697 190.993 85.2261 190.672C84.6859 190.347 84.2682 189.891 83.9733 189.305C83.6816 188.715 83.5358 188.024 83.5358 187.232C83.5358 186.449 83.6816 185.76 83.9733 185.163C84.2682 184.567 84.6792 184.101 85.2062 183.766C85.7365 183.432 86.3563 183.264 87.0656 183.264C87.4965 183.264 87.9141 183.335 88.3184 183.478C88.7228 183.621 89.0857 183.844 89.4072 184.149C89.7287 184.454 89.9823 184.85 90.1679 185.337C90.3535 185.821 90.4463 186.41 90.4463 187.102V187.629H84.376V186.516H88.9896C88.9896 186.125 88.9101 185.778 88.751 185.477C88.5919 185.172 88.3682 184.931 88.0798 184.756C87.7948 184.58 87.46 184.492 87.0755 184.492C86.6579 184.492 86.2933 184.595 85.9818 184.8C85.6735 185.003 85.4349 185.268 85.2659 185.596C85.1002 185.921 85.0173 186.274 85.0173 186.655V187.525C85.0173 188.035 85.1068 188.469 85.2858 188.827C85.4681 189.185 85.7216 189.459 86.0464 189.648C86.3712 189.833 86.7507 189.926 87.1849 189.926C87.4666 189.926 87.7235 189.886 87.9555 189.807C88.1875 189.724 88.388 189.601 88.5571 189.439C88.7261 189.277 88.8554 189.076 88.9449 188.837L90.3518 189.091C90.2391 189.505 90.0369 189.868 89.7453 190.18C89.4569 190.488 89.094 190.728 88.6565 190.901C88.2223 191.07 87.7268 191.154 87.17 191.154ZM97.5939 185.228L96.2466 185.467C96.1903 185.294 96.1008 185.13 95.9781 184.974C95.8588 184.819 95.6964 184.691 95.4909 184.592C95.2854 184.492 95.0286 184.442 94.7203 184.442C94.2994 184.442 93.9481 184.537 93.6663 184.726C93.3846 184.911 93.2438 185.152 93.2438 185.447C93.2438 185.702 93.3382 185.907 93.5271 186.063C93.7161 186.219 94.021 186.347 94.4419 186.446L95.655 186.724C96.3576 186.887 96.8813 187.137 97.226 187.475C97.5707 187.813 97.7431 188.252 97.7431 188.793C97.7431 189.25 97.6105 189.658 97.3453 190.016C97.0835 190.37 96.7172 190.649 96.2466 190.851C95.7793 191.053 95.2374 191.154 94.6209 191.154C93.7658 191.154 93.0681 190.972 92.5279 190.607C91.9876 190.239 91.6562 189.717 91.5335 189.041L92.9703 188.822C93.0598 189.197 93.2438 189.48 93.5222 189.673C93.8006 189.862 94.1635 189.956 94.6109 189.956C95.0982 189.956 95.4876 189.855 95.7793 189.653C96.0709 189.447 96.2168 189.197 96.2168 188.902C96.2168 188.663 96.1273 188.463 95.9483 188.3C95.7726 188.138 95.5025 188.015 95.1379 187.933L93.8453 187.649C93.1327 187.487 92.6057 187.228 92.2644 186.874C91.9263 186.519 91.7573 186.07 91.7573 185.526C91.7573 185.076 91.8832 184.681 92.1351 184.343C92.387 184.005 92.735 183.741 93.1791 183.553C93.6233 183.36 94.132 183.264 94.7054 183.264C95.5307 183.264 96.1803 183.443 96.6543 183.801C97.1282 184.156 97.4414 184.631 97.5939 185.228ZM102.718 183.364V184.557H98.5469V183.364H102.718ZM99.6655 181.534H101.152V188.758C101.152 189.046 101.195 189.263 101.281 189.409C101.367 189.552 101.479 189.649 101.614 189.702C101.754 189.752 101.904 189.777 102.067 189.777C102.186 189.777 102.291 189.769 102.38 189.752C102.47 189.736 102.539 189.722 102.589 189.712L102.857 190.94C102.771 190.973 102.648 191.007 102.489 191.04C102.33 191.076 102.131 191.096 101.893 191.099C101.502 191.106 101.137 191.036 100.799 190.891C100.461 190.745 100.188 190.519 99.9787 190.214C99.7699 189.91 99.6655 189.527 99.6655 189.066V181.534ZM104.138 191V183.364H105.625V191H104.138ZM104.889 182.185C104.631 182.185 104.409 182.099 104.223 181.927C104.041 181.751 103.95 181.542 103.95 181.3C103.95 181.055 104.041 180.846 104.223 180.674C104.409 180.498 104.631 180.411 104.889 180.411C105.148 180.411 105.368 180.498 105.55 180.674C105.736 180.846 105.829 181.055 105.829 181.3C105.829 181.542 105.736 181.751 105.55 181.927C105.368 182.099 105.148 182.185 104.889 182.185ZM108.887 186.466V191H107.401V183.364H108.828V184.607H108.922C109.098 184.202 109.373 183.877 109.747 183.632C110.125 183.387 110.601 183.264 111.174 183.264C111.695 183.264 112.15 183.374 112.541 183.592C112.932 183.808 113.236 184.129 113.451 184.557C113.667 184.984 113.774 185.513 113.774 186.143V191H112.288V186.322C112.288 185.768 112.144 185.336 111.855 185.024C111.567 184.709 111.171 184.552 110.667 184.552C110.322 184.552 110.016 184.626 109.747 184.776C109.482 184.925 109.272 185.143 109.116 185.432C108.964 185.717 108.887 186.062 108.887 186.466ZM117.766 191.169C117.282 191.169 116.845 191.08 116.454 190.901C116.063 190.718 115.753 190.455 115.524 190.11C115.299 189.765 115.186 189.343 115.186 188.842C115.186 188.411 115.269 188.057 115.435 187.778C115.6 187.5 115.824 187.28 116.106 187.117C116.387 186.955 116.702 186.832 117.05 186.749C117.398 186.666 117.753 186.603 118.114 186.56C118.572 186.507 118.943 186.464 119.228 186.431C119.513 186.395 119.72 186.337 119.849 186.257C119.979 186.178 120.043 186.048 120.043 185.869V185.835C120.043 185.4 119.921 185.064 119.675 184.825C119.433 184.587 119.072 184.467 118.592 184.467C118.091 184.467 117.697 184.578 117.408 184.8C117.123 185.019 116.926 185.263 116.817 185.531L115.42 185.213C115.585 184.749 115.827 184.375 116.146 184.089C116.467 183.801 116.837 183.592 117.254 183.463C117.672 183.33 118.111 183.264 118.572 183.264C118.877 183.264 119.2 183.301 119.541 183.374C119.886 183.443 120.207 183.572 120.506 183.761C120.807 183.95 121.054 184.22 121.246 184.572C121.439 184.92 121.535 185.372 121.535 185.929V191H120.083V189.956H120.023C119.927 190.148 119.783 190.337 119.591 190.523C119.399 190.708 119.152 190.862 118.85 190.985C118.548 191.108 118.187 191.169 117.766 191.169ZM118.089 189.976C118.5 189.976 118.852 189.895 119.143 189.732C119.438 189.57 119.662 189.358 119.815 189.096C119.97 188.831 120.048 188.547 120.048 188.246V187.261C119.995 187.314 119.892 187.364 119.74 187.411C119.591 187.454 119.42 187.492 119.228 187.525C119.036 187.555 118.848 187.583 118.666 187.609C118.484 187.633 118.331 187.652 118.209 187.669C117.92 187.705 117.657 187.767 117.418 187.853C117.183 187.939 116.994 188.063 116.851 188.226C116.712 188.385 116.643 188.597 116.643 188.862C116.643 189.23 116.779 189.509 117.05 189.697C117.322 189.883 117.668 189.976 118.089 189.976ZM126.855 183.364V184.557H122.684V183.364H126.855ZM123.803 181.534H125.289V188.758C125.289 189.046 125.332 189.263 125.419 189.409C125.505 189.552 125.616 189.649 125.752 189.702C125.891 189.752 126.042 189.777 126.204 189.777C126.323 189.777 126.428 189.769 126.517 189.752C126.607 189.736 126.676 189.722 126.726 189.712L126.994 190.94C126.908 190.973 126.786 191.007 126.627 191.04C126.468 191.076 126.269 191.096 126.03 191.099C125.639 191.106 125.274 191.036 124.936 190.891C124.598 190.745 124.325 190.519 124.116 190.214C123.907 189.91 123.803 189.527 123.803 189.066V181.534ZM128.276 191V183.364H129.762V191H128.276ZM129.026 182.185C128.768 182.185 128.546 182.099 128.36 181.927C128.178 181.751 128.087 181.542 128.087 181.3C128.087 181.055 128.178 180.846 128.36 180.674C128.546 180.498 128.768 180.411 129.026 180.411C129.285 180.411 129.505 180.498 129.688 180.674C129.873 180.846 129.966 181.055 129.966 181.3C129.966 181.542 129.873 181.751 129.688 181.927C129.505 182.099 129.285 182.185 129.026 182.185ZM134.755 191.154C134.039 191.154 133.414 190.99 132.88 190.662C132.347 190.334 131.932 189.875 131.637 189.285C131.342 188.695 131.195 188.005 131.195 187.217C131.195 186.424 131.342 185.732 131.637 185.138C131.932 184.545 132.347 184.085 132.88 183.756C133.414 183.428 134.039 183.264 134.755 183.264C135.471 183.264 136.095 183.428 136.629 183.756C137.163 184.085 137.577 184.545 137.872 185.138C138.167 185.732 138.314 186.424 138.314 187.217C138.314 188.005 138.167 188.695 137.872 189.285C137.577 189.875 137.163 190.334 136.629 190.662C136.095 190.99 135.471 191.154 134.755 191.154ZM134.76 189.906C135.224 189.906 135.608 189.784 135.913 189.538C136.218 189.293 136.443 188.967 136.589 188.559C136.738 188.151 136.813 187.702 136.813 187.212C136.813 186.724 136.738 186.277 136.589 185.869C136.443 185.458 136.218 185.129 135.913 184.88C135.608 184.631 135.224 184.507 134.76 184.507C134.292 184.507 133.904 184.631 133.596 184.88C133.291 185.129 133.064 185.458 132.915 185.869C132.769 186.277 132.696 186.724 132.696 187.212C132.696 187.702 132.769 188.151 132.915 188.559C133.064 188.967 133.291 189.293 133.596 189.538C133.904 189.784 134.292 189.906 134.76 189.906ZM141.236 186.466V191H139.75V183.364H141.176V184.607H141.271C141.446 184.202 141.722 183.877 142.096 183.632C142.474 183.387 142.95 183.264 143.523 183.264C144.043 183.264 144.499 183.374 144.89 183.592C145.281 183.808 145.585 184.129 145.8 184.557C146.015 184.984 146.123 185.513 146.123 186.143V191H144.637V186.322C144.637 185.768 144.492 185.336 144.204 185.024C143.916 184.709 143.52 184.552 143.016 184.552C142.671 184.552 142.365 184.626 142.096 184.776C141.831 184.925 141.621 185.143 141.465 185.432C141.312 185.717 141.236 186.062 141.236 186.466ZM153.029 191L150.782 183.364H152.318L153.815 188.972H153.889L155.391 183.364H156.927L158.419 188.947H158.493L159.98 183.364H161.516L159.274 191H157.757L156.206 185.487H156.092L154.541 191H153.029ZM164.925 191.169C164.441 191.169 164.003 191.08 163.612 190.901C163.221 190.718 162.911 190.455 162.683 190.11C162.457 189.765 162.345 189.343 162.345 188.842C162.345 188.411 162.427 188.057 162.593 187.778C162.759 187.5 162.983 187.28 163.264 187.117C163.546 186.955 163.861 186.832 164.209 186.749C164.557 186.666 164.912 186.603 165.273 186.56C165.73 186.507 166.101 186.464 166.386 186.431C166.672 186.395 166.879 186.337 167.008 186.257C167.137 186.178 167.202 186.048 167.202 185.869V185.835C167.202 185.4 167.079 185.064 166.834 184.825C166.592 184.587 166.231 184.467 165.75 184.467C165.25 184.467 164.855 184.578 164.567 184.8C164.282 185.019 164.085 185.263 163.975 185.531L162.578 185.213C162.744 184.749 162.986 184.375 163.304 184.089C163.626 183.801 163.995 183.592 164.413 183.463C164.83 183.33 165.27 183.264 165.73 183.264C166.035 183.264 166.358 183.301 166.7 183.374C167.044 183.443 167.366 183.572 167.664 183.761C167.966 183.95 168.213 184.22 168.405 184.572C168.597 184.92 168.693 185.372 168.693 185.929V191H167.242V189.956H167.182C167.086 190.148 166.942 190.337 166.749 190.523C166.557 190.708 166.31 190.862 166.009 190.985C165.707 191.108 165.346 191.169 164.925 191.169ZM165.248 189.976C165.659 189.976 166.01 189.895 166.302 189.732C166.597 189.57 166.821 189.358 166.973 189.096C167.129 188.831 167.207 188.547 167.207 188.246V187.261C167.154 187.314 167.051 187.364 166.899 187.411C166.749 187.454 166.579 187.492 166.386 187.525C166.194 187.555 166.007 187.583 165.825 187.609C165.642 187.633 165.49 187.652 165.367 187.669C165.079 187.705 164.815 187.767 164.577 187.853C164.341 187.939 164.153 188.063 164.01 188.226C163.871 188.385 163.801 188.597 163.801 188.862C163.801 189.23 163.937 189.509 164.209 189.697C164.481 189.883 164.827 189.976 165.248 189.976ZM171.936 180.818V191H170.449V180.818H171.936ZM175.198 180.818V191H173.712V180.818H175.198ZM180.265 191.154C179.513 191.154 178.865 190.993 178.321 190.672C177.781 190.347 177.363 189.891 177.068 189.305C176.777 188.715 176.631 188.024 176.631 187.232C176.631 186.449 176.777 185.76 177.068 185.163C177.363 184.567 177.774 184.101 178.301 183.766C178.832 183.432 179.451 183.264 180.161 183.264C180.592 183.264 181.009 183.335 181.414 183.478C181.818 183.621 182.181 183.844 182.502 184.149C182.824 184.454 183.077 184.85 183.263 185.337C183.449 185.821 183.541 186.41 183.541 187.102V187.629H177.471V186.516H182.085C182.085 186.125 182.005 185.778 181.846 185.477C181.687 185.172 181.463 184.931 181.175 184.756C180.89 184.58 180.555 184.492 180.171 184.492C179.753 184.492 179.388 184.595 179.077 184.8C178.769 185.003 178.53 185.268 178.361 185.596C178.195 185.921 178.112 186.274 178.112 186.655V187.525C178.112 188.035 178.202 188.469 178.381 188.827C178.563 189.185 178.817 189.459 179.141 189.648C179.466 189.833 179.846 189.926 180.28 189.926C180.562 189.926 180.819 189.886 181.051 189.807C181.283 189.724 181.483 189.601 181.652 189.439C181.821 189.277 181.95 189.076 182.04 188.837L183.447 189.091C183.334 189.505 183.132 189.868 182.84 190.18C182.552 190.488 182.189 190.728 181.752 190.901C181.317 191.07 180.822 191.154 180.265 191.154ZM188.531 183.364V184.557H184.36V183.364H188.531ZM185.479 181.534H186.965V188.758C186.965 189.046 187.008 189.263 187.095 189.409C187.181 189.552 187.292 189.649 187.428 189.702C187.567 189.752 187.718 189.777 187.88 189.777C187.999 189.777 188.104 189.769 188.193 189.752C188.283 189.736 188.352 189.722 188.402 189.712L188.671 190.94C188.584 190.973 188.462 191.007 188.303 191.04C188.144 191.076 187.945 191.096 187.706 191.099C187.315 191.106 186.95 191.036 186.612 190.891C186.274 190.745 186.001 190.519 185.792 190.214C185.583 189.91 185.479 189.527 185.479 189.066V181.534Z" fill="black" fill-opacity="0.64"/>
<rect x="82" y="228" width="6" height="6" rx="3" fill="#152400"/>
<path d="M97.0043 236V225.818H100.822C101.605 225.818 102.261 225.964 102.791 226.256C103.325 226.547 103.728 226.948 103.999 227.459C104.274 227.966 104.412 228.543 104.412 229.189C104.412 229.842 104.274 230.422 103.999 230.929C103.724 231.436 103.318 231.835 102.781 232.127C102.244 232.415 101.583 232.56 100.798 232.56H98.267V231.043H100.549C101.006 231.043 101.381 230.964 101.673 230.805C101.964 230.646 102.18 230.427 102.319 230.148C102.461 229.87 102.533 229.55 102.533 229.189C102.533 228.828 102.461 228.509 102.319 228.234C102.18 227.959 101.963 227.746 101.668 227.593C101.376 227.437 101 227.359 100.539 227.359H98.8487V236H97.0043ZM107.771 236.154C107.287 236.154 106.851 236.068 106.464 235.896C106.079 235.72 105.774 235.461 105.549 235.12C105.327 234.779 105.216 234.358 105.216 233.857C105.216 233.426 105.295 233.07 105.454 232.788C105.614 232.507 105.831 232.281 106.106 232.112C106.381 231.943 106.691 231.816 107.035 231.729C107.383 231.64 107.743 231.575 108.114 231.536C108.562 231.489 108.925 231.448 109.203 231.411C109.481 231.371 109.684 231.312 109.81 231.232C109.939 231.149 110.003 231.022 110.003 230.849V230.82C110.003 230.445 109.892 230.155 109.67 229.95C109.448 229.744 109.128 229.641 108.711 229.641C108.27 229.641 107.92 229.737 107.662 229.93C107.407 230.122 107.234 230.349 107.145 230.611L105.464 230.372C105.597 229.908 105.816 229.52 106.121 229.209C106.426 228.894 106.798 228.659 107.239 228.503C107.68 228.344 108.167 228.264 108.701 228.264C109.069 228.264 109.435 228.307 109.8 228.393C110.164 228.48 110.497 228.622 110.799 228.821C111.101 229.017 111.342 229.283 111.525 229.621C111.71 229.96 111.803 230.382 111.803 230.889V236H110.073V234.951H110.013C109.904 235.163 109.75 235.362 109.551 235.548C109.355 235.73 109.109 235.877 108.81 235.99C108.515 236.099 108.169 236.154 107.771 236.154ZM108.239 234.832C108.6 234.832 108.913 234.76 109.178 234.618C109.443 234.472 109.647 234.28 109.79 234.041C109.936 233.803 110.008 233.542 110.008 233.261V232.361C109.952 232.407 109.856 232.45 109.72 232.49C109.587 232.53 109.438 232.565 109.273 232.594C109.107 232.624 108.943 232.651 108.78 232.674C108.618 232.697 108.477 232.717 108.358 232.734C108.089 232.77 107.849 232.83 107.637 232.913C107.425 232.996 107.257 233.112 107.135 233.261C107.012 233.406 106.951 233.595 106.951 233.827C106.951 234.159 107.072 234.409 107.314 234.578C107.556 234.747 107.864 234.832 108.239 234.832ZM118.256 232.788V228.364H120.056V236H118.311V234.643H118.231C118.059 235.07 117.775 235.42 117.381 235.692C116.99 235.964 116.508 236.099 115.934 236.099C115.434 236.099 114.991 235.988 114.607 235.766C114.226 235.541 113.927 235.214 113.712 234.787C113.497 234.356 113.389 233.836 113.389 233.226V228.364H115.189V232.947C115.189 233.431 115.321 233.816 115.586 234.101C115.851 234.386 116.199 234.528 116.63 234.528C116.895 234.528 117.152 234.464 117.401 234.335C117.649 234.205 117.853 234.013 118.012 233.758C118.175 233.499 118.256 233.176 118.256 232.788ZM123.482 225.818V236H121.682V225.818H123.482ZM128.437 236V225.818H135.059V227.364H130.281V230.129H134.716V231.675H130.281V234.454H135.099V236H128.437ZM140.451 228.364V229.756H136.061V228.364H140.451ZM137.144 226.534H138.944V233.703C138.944 233.945 138.981 234.131 139.054 234.26C139.13 234.386 139.229 234.472 139.352 234.518C139.474 234.565 139.61 234.588 139.76 234.588C139.872 234.588 139.975 234.58 140.068 234.563C140.164 234.547 140.237 234.532 140.287 234.518L140.59 235.925C140.494 235.959 140.356 235.995 140.177 236.035C140.001 236.075 139.786 236.098 139.531 236.104C139.08 236.118 138.674 236.05 138.313 235.901C137.952 235.748 137.665 235.513 137.453 235.195C137.244 234.876 137.141 234.479 137.144 234.001V226.534ZM141.732 236V228.364H143.531V236H141.732ZM142.637 227.28C142.352 227.28 142.106 227.185 141.901 226.996C141.695 226.804 141.593 226.574 141.593 226.305C141.593 226.034 141.695 225.803 141.901 225.614C142.106 225.422 142.352 225.326 142.637 225.326C142.925 225.326 143.17 225.422 143.372 225.614C143.578 225.803 143.681 226.034 143.681 226.305C143.681 226.574 143.578 226.804 143.372 226.996C143.17 227.185 142.925 227.28 142.637 227.28ZM145.158 236V228.364H146.878V229.661H146.968C147.127 229.224 147.39 228.882 147.758 228.637C148.126 228.388 148.565 228.264 149.076 228.264C149.593 228.264 150.029 228.39 150.383 228.642C150.741 228.891 150.993 229.23 151.139 229.661H151.218C151.388 229.237 151.673 228.899 152.074 228.647C152.478 228.392 152.957 228.264 153.51 228.264C154.213 228.264 154.786 228.486 155.231 228.93C155.675 229.375 155.897 230.022 155.897 230.874V236H154.092V231.153C154.092 230.679 153.966 230.332 153.714 230.114C153.462 229.892 153.154 229.781 152.789 229.781C152.355 229.781 152.016 229.916 151.77 230.188C151.528 230.457 151.407 230.806 151.407 231.237V236H149.642V231.078C149.642 230.684 149.523 230.369 149.285 230.134C149.049 229.898 148.741 229.781 148.36 229.781C148.101 229.781 147.866 229.847 147.654 229.979C147.442 230.109 147.273 230.293 147.147 230.531C147.021 230.767 146.958 231.042 146.958 231.357V236H145.158Z" fill="black" fill-opacity="0.4"/>
</g>
<defs>
<filter id="filter0_d_98_118" x="0" y="0" width="379" height="343" filterUnits="userSpaceOnUse" color-interpolation-filters="sRGB">
<feFlood flood-opacity="0" result="BackgroundImageFix"/>
<feColorMatrix in="SourceAlpha" type="matrix" values="0 0 0 0 0 0 0 0 0 0 0 0 0 0 0 0 0 0 127 0" result="hardAlpha"/>
<feMorphology radius="11" operator="erode" in="SourceAlpha" result="effect1_dropShadow_98_118"/>
<feOffset dx="2" dy="24"/>
<feGaussianBlur stdDeviation="32"/>
<feComposite in2="hardAlpha" operator="out"/>
<feColorMatrix type="matrix" values="0 0 0 0 0 0 0 0 0 0 0 0 0 0 0 0 0 0 0.06 0"/>
<feBlend mode="normal" in2="BackgroundImageFix" result="effect1_dropShadow_98_118"/>
<feBlend mode="normal" in="SourceGraphic" in2="effect1_dropShadow_98_118" result="shape"/>
</filter>
<clipPath id="clip0_98_118">
<rect width="20" height="20" fill="white" transform="translate(83 63)"/>
</clipPath>
</defs>
</svg>
