<svg width="304" height="278" viewBox="0 0 304 278" fill="none" xmlns="http://www.w3.org/2000/svg">
<g clip-path="url(#clip0_31_4835)">
<rect y="55.9146" width="260.913" height="226.768" rx="20.9565" transform="rotate(-12.3746 0 55.9146)" fill="white"/>
<g clip-path="url(#clip1_31_4835)">
<rect x="24.9609" y="71.8931" width="204.796" height="65.2557" rx="12.8067" transform="rotate(-12.3746 24.9609 71.8931)" fill="#E67817"/>
<path d="M107.533 81.236L100.96 68.8083L103.06 68.3476L107.886 78.0297L108.009 78.0028L108.442 67.1667L110.523 66.7103L115.454 76.3761L115.577 76.3492L115.899 65.5308L118.005 65.0686L117.232 79.1082L115.222 79.549L110.263 70.2483L110.16 70.271L109.549 80.7937L107.533 81.236ZM124.242 77.8004C123.613 77.9384 123.019 77.9469 122.46 77.8258C121.899 77.7004 121.421 77.4463 121.026 77.0635C120.635 76.6798 120.368 76.1627 120.225 75.5123C120.102 74.9523 120.109 74.4677 120.245 74.0586C120.381 73.6496 120.609 73.2993 120.928 73.0079C121.248 72.7165 121.623 72.4673 122.051 72.2604C122.48 72.0535 122.923 71.8705 123.38 71.7115C123.959 71.5122 124.43 71.3503 124.791 71.226C125.151 71.0973 125.403 70.9629 125.549 70.8226C125.694 70.6824 125.741 70.496 125.69 70.2633L125.68 70.2181C125.556 69.6538 125.301 69.2516 124.914 69.0114C124.532 68.7702 124.028 68.7181 123.404 68.8552C122.753 68.9979 122.272 69.2547 121.961 69.6255C121.653 69.9911 121.466 70.3639 121.4 70.744L119.494 70.7288C119.577 70.0785 119.785 69.5228 120.117 69.0616C120.452 68.5952 120.873 68.2184 121.379 67.9313C121.884 67.6399 122.436 67.4286 123.035 67.2972C123.431 67.2103 123.861 67.1655 124.326 67.1629C124.794 67.1551 125.248 67.2314 125.69 67.3919C126.136 67.5514 126.534 67.8321 126.884 68.2339C127.233 68.6313 127.487 69.1919 127.645 69.9156L129.091 76.5062L127.205 76.9201L126.907 75.5632L126.829 75.5803C126.759 75.8575 126.626 76.1441 126.429 76.4402C126.232 76.7362 125.955 77.0069 125.598 77.2523C125.241 77.4977 124.789 77.6804 124.242 77.8004ZM124.322 76.1576C124.856 76.0404 125.289 75.8347 125.622 75.5404C125.959 75.2452 126.189 74.9058 126.313 74.522C126.44 74.133 126.46 73.7424 126.374 73.3505L126.093 72.0711C126.04 72.1551 125.92 72.2491 125.735 72.3528C125.554 72.4514 125.343 72.5496 125.102 72.6475C124.861 72.7411 124.626 72.8311 124.396 72.9175C124.166 72.9996 123.974 73.069 123.819 73.1255C123.455 73.2551 123.13 73.4099 122.844 73.5899C122.563 73.769 122.353 73.9844 122.214 74.2361C122.078 74.4826 122.048 74.7781 122.124 75.1227C122.229 75.6009 122.485 75.924 122.892 76.092C123.298 76.2557 123.775 76.2776 124.322 76.1576ZM130.402 62.3487L133.306 75.5816L131.374 76.0055L128.47 62.7726L130.402 62.3487ZM134.642 61.4185L137.545 74.6514L135.613 75.0753L132.71 61.8424L134.642 61.4185ZM144.175 73.4069C143.197 73.6214 142.309 73.5972 141.511 73.3344C140.716 73.0663 140.043 72.5931 139.493 71.9148C138.945 71.2312 138.559 70.3746 138.333 69.3451C138.11 68.3285 138.103 67.391 138.312 66.5324C138.525 65.673 138.926 64.9506 139.516 64.3652C140.11 63.7789 140.867 63.3847 141.789 63.1824C142.349 63.0596 142.912 63.0331 143.479 63.103C144.045 63.173 144.58 63.3602 145.085 63.6649C145.59 63.9695 146.032 64.4119 146.412 64.9922C146.792 65.5682 147.08 66.3063 147.277 67.2066L147.428 67.8915L139.538 69.6224L139.221 68.1751L145.217 66.8595C145.105 66.3513 144.903 65.9238 144.611 65.5772C144.317 65.2262 143.958 64.9777 143.533 64.8316C143.112 64.6846 142.652 64.6659 142.152 64.7756C141.61 64.8946 141.165 65.1321 140.819 65.488C140.476 65.8387 140.241 66.2513 140.115 66.726C139.992 67.1954 139.985 67.6778 140.094 68.1731L140.342 69.3039C140.488 69.9673 140.728 70.506 141.062 70.9202C141.401 71.3334 141.809 71.6165 142.285 71.7694C142.76 71.918 143.28 71.9304 143.844 71.8066C144.21 71.7263 144.533 71.6014 144.811 71.4318C145.089 71.258 145.315 71.0414 145.488 70.7822C145.662 70.5229 145.773 70.2254 145.821 69.8898L147.722 69.8181C147.693 70.3887 147.534 70.918 147.244 71.4061C146.957 71.8889 146.554 72.3047 146.034 72.6535C145.518 72.9969 144.898 73.2481 144.175 73.4069ZM152.697 60.9248L153.037 62.4755L147.616 63.6649L147.276 62.1142L152.697 60.9248ZM148.208 59.4175L150.14 58.9936L152.199 68.3819C152.282 68.7567 152.4 69.0266 152.553 69.1915C152.706 69.3522 152.878 69.4476 153.07 69.4778C153.265 69.5027 153.468 69.492 153.679 69.4457C153.834 69.4117 153.967 69.3711 154.079 69.3241C154.19 69.277 154.277 69.2399 154.339 69.2128L155.038 70.7322C154.935 70.7999 154.786 70.8779 154.588 70.9664C154.392 71.0591 154.139 71.1417 153.83 71.214C153.323 71.3342 152.83 71.3477 152.349 71.2545C151.868 71.1614 151.448 70.9464 151.09 70.6097C150.732 70.2729 150.487 69.8052 150.355 69.2064L148.208 59.4175ZM160.493 55.7469L163.396 68.9798L161.399 69.4178L158.496 56.185L160.493 55.7469ZM170.296 67.4658L166.012 68.4057L163.109 55.1729L167.529 54.2032C168.825 53.9187 169.997 53.9393 171.044 54.265C172.089 54.5864 172.968 55.186 173.68 56.0637C174.395 56.9362 174.903 58.0595 175.205 59.4337C175.507 60.8121 175.515 62.052 175.229 63.1533C174.946 64.2536 174.39 65.1749 173.559 65.9169C172.728 66.6547 171.64 67.171 170.296 67.4658ZM167.626 66.2231L169.804 65.7454C170.812 65.5242 171.608 65.1509 172.192 64.6253C172.776 64.0955 173.154 63.4323 173.327 62.6359C173.499 61.8351 173.47 60.9114 173.241 59.8646C173.013 58.8265 172.654 57.982 172.163 57.3311C171.677 56.6792 171.068 56.2373 170.335 56.0052C169.602 55.7732 168.754 55.763 167.789 55.9747L165.488 56.4794L167.626 66.2231Z" fill="white"/>
<path d="M111.575 106.7C111.222 106.778 110.891 106.719 110.582 106.525C110.272 106.327 110.078 106.049 110 105.691C109.922 105.338 109.983 105.009 110.182 104.703C110.381 104.393 110.657 104.199 111.01 104.122C111.363 104.044 111.695 104.105 112.005 104.303C112.314 104.497 112.507 104.771 112.584 105.124C112.636 105.361 112.624 105.592 112.546 105.817C112.473 106.036 112.352 106.225 112.183 106.384C112.015 106.543 111.812 106.648 111.575 106.7ZM116.437 105.633C116.084 105.711 115.753 105.653 115.444 105.459C115.134 105.26 114.94 104.982 114.861 104.625C114.784 104.271 114.845 103.942 115.044 103.636C115.243 103.326 115.518 103.133 115.872 103.055C116.225 102.978 116.556 103.038 116.866 103.237C117.175 103.431 117.369 103.704 117.446 104.058C117.498 104.294 117.485 104.525 117.408 104.75C117.335 104.969 117.213 105.158 117.045 105.317C116.877 105.476 116.674 105.581 116.437 105.633ZM121.299 104.567C120.946 104.644 120.615 104.586 120.306 104.392C119.996 104.193 119.802 103.915 119.723 103.558C119.646 103.205 119.707 102.875 119.906 102.57C120.104 102.26 120.38 102.066 120.733 101.989C121.087 101.911 121.418 101.972 121.728 102.17C122.037 102.364 122.23 102.638 122.308 102.991C122.36 103.228 122.347 103.459 122.27 103.683C122.196 103.903 122.075 104.092 121.907 104.25C121.739 104.409 121.536 104.515 121.299 104.567ZM126.161 103.5C125.808 103.578 125.477 103.519 125.168 103.325C124.858 103.127 124.664 102.849 124.585 102.491C124.508 102.138 124.569 101.809 124.768 101.503C124.966 101.193 125.242 100.999 125.595 100.922C125.949 100.844 126.28 100.905 126.59 101.103C126.899 101.297 127.092 101.571 127.17 101.924C127.222 102.161 127.209 102.392 127.132 102.617C127.058 102.836 126.937 103.025 126.769 103.184C126.6 103.343 126.398 103.448 126.161 103.5ZM131.023 102.433C130.67 102.511 130.338 102.453 130.029 102.258C129.72 102.06 129.525 101.782 129.447 101.425C129.369 101.071 129.43 100.742 129.63 100.436C129.828 100.126 130.104 99.9327 130.457 99.8552C130.81 99.7777 131.142 99.8382 131.452 100.037C131.761 100.231 131.954 100.504 132.031 100.858C132.083 101.094 132.071 101.325 131.994 101.55C131.92 101.769 131.799 101.958 131.631 102.117C131.462 102.276 131.26 102.381 131.023 102.433ZM135.885 101.367C135.531 101.444 135.2 101.386 134.891 101.192C134.581 100.993 134.387 100.715 134.309 100.358C134.231 100.005 134.292 99.6753 134.492 99.3697C134.69 99.0598 134.966 98.8661 135.319 98.7886C135.672 98.7111 136.004 98.7715 136.314 98.9699C136.623 99.164 136.816 99.4376 136.893 99.7908C136.945 100.028 136.933 100.259 136.856 100.483C136.782 100.702 136.661 100.892 136.492 101.05C136.324 101.209 136.121 101.315 135.885 101.367ZM140.746 100.3C140.393 100.377 140.062 100.319 139.753 100.125C139.443 99.9267 139.249 99.6487 139.171 99.2912C139.093 98.938 139.154 98.6086 139.353 98.303C139.552 97.9931 139.828 97.7994 140.181 97.7219C140.534 97.6444 140.866 97.7048 141.175 97.9032C141.484 98.0973 141.678 98.3709 141.755 98.7242C141.807 98.9611 141.795 99.1918 141.717 99.4165C141.644 99.6358 141.523 99.8249 141.354 99.9837C141.186 100.143 140.983 100.248 140.746 100.3ZM145.608 99.2333C145.255 99.3108 144.924 99.2525 144.615 99.0584C144.305 98.86 144.111 98.5821 144.032 98.2245C143.955 97.8713 144.016 97.5419 144.215 97.2363C144.414 96.9264 144.689 96.7327 145.043 96.6552C145.396 96.5777 145.727 96.6381 146.037 96.8365C146.346 97.0306 146.539 97.3043 146.617 97.6575C146.669 97.8944 146.656 98.1252 146.579 98.3498C146.505 98.5691 146.384 98.7582 146.216 98.9171C146.048 99.0759 145.845 99.1813 145.608 99.2333ZM150.47 98.1666C150.117 98.2441 149.786 98.1858 149.477 97.9917C149.167 97.7933 148.973 97.5154 148.894 97.1578C148.817 96.8046 148.878 96.4752 149.077 96.1696C149.275 95.8597 149.551 95.666 149.904 95.5885C150.258 95.511 150.589 95.5715 150.899 95.7698C151.208 95.9639 151.401 96.2376 151.479 96.5908C151.531 96.8277 151.518 97.0585 151.441 97.2831C151.367 97.5024 151.246 97.6915 151.078 97.8504C150.91 98.0092 150.707 98.1146 150.47 98.1666ZM155.332 97.0999C154.979 97.1774 154.648 97.1191 154.339 96.925C154.029 96.7267 153.834 96.4487 153.756 96.0912C153.679 95.7379 153.739 95.4085 153.939 95.1029C154.137 94.793 154.413 94.5993 154.766 94.5218C155.119 94.4443 155.451 94.5048 155.761 94.7032C156.07 94.8972 156.263 95.1709 156.341 95.5241C156.393 95.761 156.38 95.9918 156.303 96.2164C156.229 96.4358 156.108 96.6249 155.94 96.7837C155.771 96.9425 155.569 97.0479 155.332 97.0999ZM160.194 96.0332C159.84 96.1107 159.509 96.0524 159.2 95.8584C158.89 95.66 158.696 95.382 158.618 95.0245C158.54 94.6713 158.601 94.3419 158.801 94.0363C158.999 93.7263 159.275 93.5326 159.628 93.4551C159.981 93.3776 160.313 93.4381 160.623 93.6365C160.932 93.8306 161.125 94.1042 161.202 94.4574C161.254 94.6943 161.242 94.9251 161.165 95.1497C161.091 95.3691 160.97 95.5582 160.801 95.717C160.633 95.8758 160.431 95.9813 160.194 96.0332ZM165.055 94.9665C164.702 95.044 164.371 94.9858 164.062 94.7917C163.752 94.5933 163.558 94.3153 163.48 93.9578C163.402 93.6046 163.463 93.2752 163.662 92.9696C163.861 92.6597 164.137 92.466 164.49 92.3885C164.843 92.311 165.175 92.3714 165.485 92.5698C165.793 92.7639 165.987 93.0375 166.064 93.3908C166.116 93.6277 166.104 93.8584 166.026 94.083C165.953 94.3024 165.832 94.4915 165.663 94.6503C165.495 94.8092 165.292 94.9146 165.055 94.9665ZM169.917 93.8999C169.564 93.9774 169.233 93.9191 168.924 93.725C168.614 93.5266 168.42 93.2486 168.341 92.8911C168.264 92.5379 168.325 92.2085 168.524 91.9029C168.723 91.593 168.998 91.3993 169.352 91.3218C169.705 91.2443 170.036 91.3047 170.346 91.5031C170.655 91.6972 170.849 91.9708 170.926 92.3241C170.978 92.561 170.965 92.7917 170.888 93.0164C170.815 93.2357 170.693 93.4248 170.525 93.5836C170.357 93.7425 170.154 93.8479 169.917 93.8999ZM173.971 79.0119L176.875 92.2447L174.872 92.6842L172.408 81.4543L172.33 81.4713L169.618 84.2336L169.198 82.3211L172.027 79.4386L173.971 79.0119ZM181.62 77.144C182.211 77.0189 182.817 76.999 183.436 77.0843C184.055 77.1697 184.648 77.4009 185.213 77.7779C185.784 78.154 186.296 78.7189 186.75 79.4725C187.208 80.2209 187.571 81.1977 187.84 82.4029C188.094 83.5616 188.204 84.6188 188.17 85.5744C188.135 86.5257 187.968 87.3593 187.669 88.075C187.374 88.7898 186.954 89.3763 186.409 89.8345C185.864 90.2927 185.206 90.6064 184.435 90.7756C183.647 90.9486 182.913 90.9471 182.233 90.7711C181.553 90.5952 180.962 90.2757 180.458 89.8128C179.954 89.3455 179.576 88.7648 179.324 88.0705L181.295 87.6381C181.549 88.1784 181.913 88.5816 182.387 88.8479C182.864 89.1089 183.419 89.17 184.052 89.031C185.022 88.8184 185.685 88.2304 186.042 87.267C186.399 86.2994 186.413 85.0548 186.083 83.5332L185.98 83.5559C185.837 83.9755 185.627 84.3557 185.35 84.6965C185.077 85.0363 184.749 85.3248 184.368 85.562C183.987 85.7992 183.561 85.9693 183.092 86.0723C182.329 86.2396 181.595 86.2044 180.888 85.9667C180.181 85.7289 179.57 85.3233 179.056 84.7499C178.542 84.1764 178.193 83.4697 178.009 82.6297C177.825 81.794 177.849 80.9943 178.078 80.2305C178.312 79.4658 178.728 78.8102 179.326 78.2636C179.928 77.7118 180.692 77.3386 181.62 77.144ZM181.995 78.8226C181.491 78.9332 181.064 79.1578 180.714 79.4965C180.368 79.8299 180.124 80.2332 179.984 80.7064C179.843 81.1752 179.829 81.666 179.942 82.1786C180.054 82.6912 180.268 83.1318 180.584 83.5005C180.903 83.8639 181.285 84.1254 181.731 84.285C182.18 84.4392 182.659 84.4606 183.167 84.3491C183.546 84.2659 183.884 84.1152 184.179 83.8969C184.474 83.6786 184.716 83.4133 184.905 83.101C185.093 82.7844 185.219 82.4451 185.284 82.0832C185.349 81.7212 185.342 81.3572 185.261 80.9911C185.155 80.5043 184.939 80.0775 184.615 79.7107C184.295 79.343 183.907 79.076 183.45 78.9097C182.993 78.7392 182.508 78.7101 181.995 78.8226ZM195.95 88.2491C195.024 88.4523 194.171 88.4725 193.39 88.3097C192.614 88.1459 191.964 87.828 191.44 87.3559C190.917 86.8838 190.579 86.2898 190.426 85.5738C190.299 85.0147 190.3 84.4749 190.43 83.9544C190.563 83.4285 190.797 82.964 191.133 82.5607C191.468 82.1531 191.876 81.8514 192.357 81.6556L192.34 81.5781C191.646 81.5633 191.041 81.3259 190.524 80.8657C190.008 80.4056 189.674 79.8197 189.523 79.108C189.37 78.4327 189.416 77.7904 189.662 77.1812C189.911 76.5667 190.321 76.0366 190.891 75.5909C191.461 75.1452 192.154 74.833 192.968 74.6544C193.773 74.4777 194.527 74.4749 195.228 74.6461C195.933 74.8121 196.527 75.122 197.01 75.5758C197.492 76.0253 197.809 76.5856 197.961 77.2566C198.113 77.9683 198.048 78.6416 197.768 79.2766C197.487 79.9115 197.043 80.3791 196.437 80.6793L196.454 80.7569C196.968 80.7343 197.458 80.839 197.924 81.0708C198.394 81.2973 198.799 81.6215 199.14 82.0434C199.484 82.46 199.72 82.9478 199.847 83.5069C200 84.2229 199.937 84.9048 199.659 85.5527C199.382 86.2006 198.922 86.7618 198.282 87.2365C197.645 87.7103 196.868 88.0478 195.95 88.2491ZM195.592 86.6144C196.139 86.4944 196.593 86.3 196.954 86.0311C197.314 85.758 197.568 85.4337 197.716 85.0581C197.862 84.6782 197.889 84.266 197.796 83.8213C197.691 83.3614 197.481 82.9808 197.167 82.6795C196.856 82.3773 196.479 82.169 196.034 82.0544C195.589 81.9398 195.108 81.9393 194.591 82.0527C194.07 82.167 193.629 82.3699 193.268 82.6612C192.908 82.9524 192.65 83.3002 192.495 83.7045C192.34 84.1087 192.315 84.5408 192.42 85.0008C192.514 85.4454 192.704 85.81 192.992 86.0944C193.284 86.3736 193.652 86.5614 194.098 86.6577C194.542 86.7498 195.04 86.7354 195.592 86.6144ZM194.241 80.4567C194.68 80.3603 195.051 80.1865 195.352 79.9352C195.654 79.6839 195.867 79.3798 195.992 79.0228C196.121 78.6649 196.141 78.2744 196.053 77.8513C195.958 77.4387 195.78 77.0986 195.518 76.831C195.26 76.5625 194.943 76.3815 194.566 76.2882C194.187 76.1905 193.774 76.1909 193.326 76.2891C192.87 76.3893 192.488 76.5634 192.181 76.8113C191.878 77.0539 191.665 77.3511 191.544 77.7029C191.422 78.0546 191.409 78.4367 191.504 78.8493C191.593 79.2724 191.768 79.6199 192.031 79.8918C192.294 80.1638 192.615 80.3507 192.994 80.4526C193.377 80.5537 193.793 80.555 194.241 80.4567ZM204.102 72.2116C204.693 72.0864 205.298 72.0665 205.917 72.1519C206.537 72.2373 207.129 72.4685 207.695 72.8455C208.265 73.2215 208.777 73.7864 209.232 74.5401C209.689 75.2884 210.053 76.2652 210.322 77.4704C210.576 78.6291 210.686 79.6863 210.652 80.642C210.617 81.5933 210.45 82.4268 210.151 83.1425C209.856 83.8573 209.436 84.4439 208.891 84.9021C208.346 85.3603 207.688 85.674 206.917 85.8431C206.128 86.0161 205.394 86.0146 204.715 85.8387C204.035 85.6627 203.443 85.3433 202.94 84.8803C202.436 84.4131 202.058 83.8323 201.806 83.138L203.777 82.7057C204.031 83.2459 204.395 83.6492 204.868 83.9154C205.346 84.1765 205.901 84.2375 206.534 84.0986C207.503 83.8859 208.166 83.2979 208.524 82.3346C208.881 81.3669 208.894 80.1223 208.565 78.6008L208.462 78.6235C208.319 79.0431 208.109 79.4232 207.831 79.764C207.558 80.1039 207.231 80.3924 206.85 80.6296C206.468 80.8668 206.043 81.0369 205.573 81.1399C204.811 81.3071 204.076 81.2719 203.369 81.0342C202.663 80.7965 202.052 80.3909 201.538 79.8174C201.024 79.2439 200.675 78.5372 200.49 77.6972C200.307 76.8616 200.33 76.0618 200.56 75.2981C200.794 74.5334 201.21 73.8777 201.808 73.3312C202.409 72.7793 203.174 72.4062 204.102 72.2116ZM204.477 73.8901C203.973 74.0007 203.546 74.2253 203.196 74.564C202.849 74.8974 202.606 75.3007 202.466 75.7739C202.325 76.2428 202.311 76.7335 202.423 77.2461C202.536 77.7587 202.75 78.1993 203.065 78.568C203.384 78.9315 203.767 79.193 204.213 79.3525C204.662 79.5068 205.141 79.5281 205.649 79.4166C206.028 79.3335 206.365 79.1827 206.66 78.9644C206.956 78.7462 207.198 78.4809 207.386 78.1685C207.574 77.8519 207.701 77.5126 207.766 77.1507C207.831 76.7888 207.823 76.4247 207.743 76.0586C207.636 75.5718 207.421 75.1451 207.096 74.7783C206.776 74.4105 206.388 74.1435 205.932 73.9773C205.475 73.8067 204.99 73.7776 204.477 73.8901Z" fill="white"/>
<g clip-path="url(#clip2_31_4835)">
<path d="M84.2894 81.5203L56.9966 87.5083C56.3685 87.6461 55.9711 88.267 56.1089 88.895L56.8574 92.3066C56.9952 92.9347 57.616 93.3321 58.2441 93.1943L85.5369 87.2063C86.165 87.0685 86.5624 86.4476 86.4246 85.8196L85.6761 82.408C85.5383 81.7799 84.9174 81.3825 84.2894 81.5203Z" stroke="white" stroke-width="2.3285" stroke-linecap="round" stroke-linejoin="round"/>
<path d="M84.3973 87.4563L87.3913 101.103C87.4575 101.404 87.4012 101.72 87.2347 101.98C87.0682 102.24 86.8052 102.423 86.5036 102.489L63.7596 107.479C63.458 107.546 63.1425 107.489 62.8824 107.323C62.6224 107.156 62.4391 106.893 62.3729 106.592L59.3789 92.9453" stroke="white" stroke-width="2.3285" stroke-linecap="round" stroke-linejoin="round"/>
<path d="M69.7227 96.6367L76.5459 95.1397" stroke="white" stroke-width="2.3285" stroke-linecap="round" stroke-linejoin="round"/>
</g>
</g>
<path d="M47.6503 170.065L47.2605 168.288L59.6663 165.566L60.0561 167.343L54.8547 168.484L58.094 183.248L56.091 183.688L52.8517 168.924L47.6503 170.065ZM64.4762 181.848L61.7543 169.442L63.5958 169.038L64.0069 170.912L64.1362 170.884C64.2276 170.22 64.5276 169.632 65.036 169.12C65.5444 168.608 66.1702 168.27 66.9132 168.107C67.0532 168.077 67.2288 168.041 67.44 168C67.6511 167.96 67.8118 167.933 67.9218 167.92L68.3471 169.858C68.2789 169.856 68.1256 169.865 67.8869 169.883C67.6525 169.895 67.4088 169.929 67.1557 169.984C66.5526 170.117 66.042 170.361 65.6236 170.718C65.2095 171.069 64.9136 171.495 64.7359 171.997C64.5623 172.492 64.537 173.019 64.6599 173.579L66.3823 181.43L64.4762 181.848ZM76.2891 179.561C75.503 179.734 74.7571 179.742 74.0513 179.587C73.3444 179.426 72.7405 179.104 72.2395 178.621C71.7374 178.133 71.3977 177.485 71.2205 176.678C71.0646 175.967 71.0782 175.36 71.2613 174.857C71.4432 174.349 71.7407 173.917 72.1536 173.561C72.5665 173.205 73.0421 172.903 73.5803 172.655C74.1227 172.401 74.6737 172.172 75.2333 171.971C75.9658 171.708 76.561 171.502 77.0188 171.35C77.4809 171.193 77.806 171.028 77.9942 170.857C78.1878 170.685 78.2509 170.445 78.1836 170.138L78.1694 170.074C77.9946 169.277 77.6406 168.705 77.1076 168.36C76.58 168.012 75.8773 167.935 74.9997 168.128C74.0897 168.327 73.42 168.683 72.9905 169.195C72.561 169.707 72.2909 170.212 72.1801 170.71L70.2292 170.461C70.3868 169.637 70.6888 168.955 71.1351 168.417C71.5856 167.872 72.1129 167.446 72.7171 167.139C73.3254 166.825 73.9419 166.599 74.5665 166.462C74.9649 166.375 75.4332 166.323 75.9714 166.306C76.5138 166.283 77.0592 166.364 77.6076 166.548C78.1613 166.732 78.6642 167.081 79.116 167.597C79.5678 168.113 79.9018 168.864 80.118 169.849L81.9113 178.023L80.0052 178.441L79.6366 176.761L79.5397 176.782C79.4696 177.08 79.3174 177.415 79.0832 177.788C78.849 178.161 78.5051 178.511 78.0516 178.836C77.5981 179.161 77.0106 179.403 76.2891 179.561ZM76.2042 177.785C76.958 177.62 77.5609 177.332 78.0128 176.923C78.4702 176.512 78.7794 176.043 78.9404 175.517C79.1069 174.99 79.1334 174.467 79.02 173.95L78.6372 172.206C78.5777 172.321 78.4195 172.448 78.1626 172.589C77.9099 172.724 77.6124 172.86 77.27 172.997C76.9319 173.127 76.6006 173.251 76.2762 173.367C75.956 173.477 75.6966 173.568 75.4979 173.64C75.0167 173.813 74.5766 174.02 74.1778 174.259C73.7831 174.493 73.4852 174.781 73.2839 175.124C73.0869 175.461 73.0416 175.872 73.1479 176.356C73.2932 177.019 73.6481 177.466 74.2125 177.697C74.7811 177.922 75.445 177.952 76.2042 177.785ZM85.2952 169.458L86.9326 176.921L85.0265 177.339L82.3046 164.934L84.1461 164.53L84.5714 166.468L84.7329 166.433C84.8855 165.739 85.216 165.136 85.7244 164.624C86.2316 164.106 86.9537 163.744 87.8906 163.539C88.7305 163.354 89.5033 163.366 90.2089 163.572C90.9133 163.773 91.5167 164.182 92.0191 164.8C92.5203 165.413 92.8867 166.246 93.1182 167.302L94.8477 175.185L92.9416 175.603L91.2405 167.849C91.0267 166.875 90.607 166.171 89.9816 165.738C89.3549 165.3 88.6001 165.178 87.717 165.372C87.1086 165.505 86.5937 165.756 86.1724 166.125C85.7564 166.493 85.4667 166.96 85.3031 167.526C85.1395 168.093 85.1369 168.737 85.2952 169.458ZM104.642 162.945L103.036 163.805C102.866 163.543 102.646 163.301 102.377 163.078C102.112 162.848 101.783 162.683 101.388 162.584C100.994 162.484 100.519 162.495 99.9649 162.617C99.2056 162.783 98.6114 163.097 98.182 163.558C97.7569 164.012 97.6028 164.506 97.7197 165.039C97.8237 165.513 98.0781 165.85 98.4829 166.049C98.8878 166.248 99.4764 166.358 100.249 166.381L102.19 166.429C103.358 166.455 104.275 166.685 104.94 167.121C105.605 167.551 106.032 168.199 106.222 169.066C106.378 169.777 106.313 170.457 106.026 171.107C105.745 171.755 105.277 172.321 104.621 172.803C103.965 173.286 103.155 173.633 102.191 173.844C100.926 174.122 99.8183 174.077 98.8686 173.71C97.9189 173.343 97.2179 172.655 96.7656 171.649L98.4755 170.799C98.7943 171.429 99.23 171.858 99.7824 172.087C100.34 172.315 101.01 172.343 101.79 172.172C102.679 171.977 103.343 171.633 103.782 171.142C104.226 170.644 104.39 170.128 104.273 169.595C104.178 169.164 103.948 168.837 103.583 168.612C103.216 168.382 102.705 168.263 102.048 168.255L99.8744 168.224C98.6792 168.204 97.7531 167.97 97.096 167.521C96.4431 167.066 96.0227 166.411 95.8349 165.554C95.6813 164.854 95.742 164.192 96.0169 163.567C96.2972 162.942 96.7456 162.4 97.3621 161.943C97.984 161.485 98.7311 161.16 99.6034 160.969C100.831 160.7 101.854 160.757 102.672 161.142C103.496 161.526 104.152 162.127 104.642 162.945ZM112.288 158.355L112.643 159.97L105.955 161.438L105.601 159.822L112.288 158.355ZM110.326 171.789L107.228 157.671C107.072 156.96 107.109 156.331 107.339 155.784C107.569 155.237 107.925 154.786 108.406 154.433C108.887 154.079 109.423 153.837 110.016 153.707C110.484 153.604 110.875 153.558 111.187 153.568C111.5 153.579 111.736 153.6 111.896 153.633L111.708 155.401C111.604 155.39 111.461 155.379 111.278 155.369C111.1 155.357 110.874 155.381 110.599 155.441C109.969 155.579 109.549 155.838 109.339 156.217C109.134 156.595 109.099 157.091 109.234 157.705L112.232 171.371L110.326 171.789ZM122.065 169.484C120.87 169.746 119.781 169.709 118.798 169.371C117.82 169.027 116.992 168.43 116.314 167.58C115.641 166.723 115.165 165.659 114.886 164.388C114.607 163.118 114.593 161.947 114.843 160.876C115.098 159.799 115.583 158.897 116.298 158.17C117.018 157.436 117.937 156.947 119.057 156.701C119.703 156.559 120.365 156.527 121.042 156.604C121.72 156.681 122.37 156.905 122.993 157.276C123.615 157.642 124.166 158.187 124.647 158.911C125.127 159.636 125.495 160.576 125.749 161.734L125.926 162.542L116.363 164.64L116.002 162.992L123.626 161.319C123.472 160.619 123.195 160.026 122.795 159.538C122.4 159.049 121.912 158.702 121.33 158.496C120.755 158.29 120.122 158.262 119.433 158.413C118.674 158.58 118.058 158.912 117.586 159.411C117.119 159.903 116.802 160.48 116.637 161.143C116.472 161.805 116.465 162.479 116.615 163.163L116.856 164.261C117.061 165.198 117.397 165.957 117.863 166.537C118.333 167.111 118.896 167.504 119.552 167.716C120.207 167.922 120.919 167.941 121.689 167.772C122.19 167.662 122.627 167.493 123 167.264C123.378 167.029 123.683 166.736 123.916 166.386C124.149 166.03 124.299 165.619 124.366 165.153L126.32 165.266C126.264 165.933 126.058 166.554 125.705 167.128C125.35 167.697 124.865 168.187 124.25 168.598C123.633 169.005 122.905 169.3 122.065 169.484ZM129.681 167.542L126.959 155.136L128.8 154.732L129.212 156.606L129.341 156.578C129.432 155.914 129.732 155.327 130.241 154.814C130.749 154.302 131.375 153.964 132.118 153.801C132.258 153.771 132.433 153.735 132.645 153.694C132.856 153.654 133.016 153.627 133.126 153.614L133.552 155.552C133.484 155.55 133.33 155.559 133.092 155.577C132.857 155.589 132.613 155.623 132.36 155.678C131.757 155.811 131.247 156.055 130.828 156.412C130.414 156.763 130.118 157.189 129.94 157.691C129.767 158.186 129.742 158.714 129.864 159.274L131.587 167.124L129.681 167.542Z" fill="#14191F" fill-opacity="0.64"/>
<path d="M76.6154 239C75.1093 239.32 73.584 239.381 72.0395 239.184C70.4928 238.976 69.0185 238.415 67.6168 237.5C66.2129 236.575 64.9601 235.215 63.8584 233.419C62.7545 231.613 61.8911 229.267 61.2684 226.379C60.6781 223.689 60.4382 221.227 60.5487 218.994C60.6592 216.761 61.0922 214.8 61.8477 213.111C62.6009 211.413 63.6504 210.014 64.9962 208.914C66.3522 207.812 67.9714 207.055 69.8538 206.642C71.8283 206.209 73.663 206.214 75.358 206.657C77.0631 207.098 78.5344 207.89 79.7719 209.034C81.0072 210.168 81.9225 211.554 82.5179 213.193L76.9167 214.421C76.3654 213.277 75.5662 212.445 74.519 211.924C73.4798 211.39 72.285 211.272 70.9346 211.568C68.7555 212.046 67.2853 213.361 66.5241 215.511C65.773 217.66 65.7549 220.388 66.4697 223.694L66.6845 223.647C66.9883 222.637 67.4684 221.722 68.125 220.902C68.7816 220.083 69.573 219.389 70.4993 218.821C71.4335 218.241 72.4633 217.827 73.5887 217.58C75.4302 217.176 77.1789 217.254 78.8349 217.813C80.5011 218.369 81.9334 219.326 83.1317 220.682C84.3277 222.028 85.1384 223.694 85.5636 225.681C86.0272 227.746 85.964 229.706 85.374 231.562C84.7816 233.407 83.7396 234.987 82.2479 236.301C80.7561 237.615 78.8786 238.514 76.6154 239ZM75.5747 234.403C76.6898 234.159 77.6278 233.669 78.3887 232.933C79.1495 232.198 79.6847 231.314 79.9942 230.281C80.3037 229.248 80.3277 228.16 80.0661 227.016C79.8294 225.889 79.3605 224.925 78.6595 224.124C77.9686 223.321 77.1301 222.749 76.1437 222.408C75.1574 222.067 74.1067 222.019 72.9916 222.263C72.1629 222.445 71.4253 222.773 70.7788 223.247C70.1322 223.722 69.6047 224.299 69.1961 224.978C68.7854 225.647 68.5073 226.384 68.362 227.188C68.2247 227.979 68.2418 228.79 68.4134 229.621C68.6638 230.714 69.1406 231.665 69.844 232.476C70.5473 233.287 71.3994 233.872 72.4005 234.231C73.4015 234.591 74.4596 234.648 75.5747 234.403ZM104.09 233.149C101.563 233.704 99.2537 233.54 97.1623 232.659C95.079 231.765 93.2853 230.212 91.7815 228.001C90.2856 225.777 89.1617 222.951 88.4098 219.524C87.6681 216.094 87.5143 213.072 87.9485 210.457C88.3907 207.829 89.3729 205.684 90.8951 204.02C92.4276 202.354 94.4522 201.245 96.9689 200.693C99.4856 200.141 101.789 200.3 103.878 201.172C105.967 202.043 107.757 203.58 109.248 205.784C110.75 207.985 111.876 210.794 112.625 214.211C113.38 217.648 113.538 220.691 113.1 223.339C112.67 225.975 111.69 228.131 110.16 229.807C108.64 231.481 106.617 232.595 104.09 233.149ZM103.036 228.346C105 227.915 106.338 226.608 107.049 224.426C107.769 222.23 107.714 219.245 106.886 215.47C106.338 212.974 105.617 210.934 104.723 209.35C103.829 207.766 102.811 206.649 101.672 205.999C100.529 205.338 99.3085 205.15 98.0093 205.435C96.0552 205.864 94.7237 207.174 94.0145 209.367C93.3032 211.55 93.3531 214.515 94.1644 218.261C94.7041 220.77 95.4171 222.823 96.3035 224.419C97.2001 226.013 98.2195 227.14 99.3617 227.801C100.502 228.452 101.726 228.633 103.036 228.346ZM124.89 223.455L125.061 225.187C125.201 226.507 125.232 227.873 125.156 229.283C125.092 230.702 124.984 232.018 124.832 233.231C124.68 234.444 124.551 235.399 124.447 236.098L120.703 236.919C120.709 236.264 120.717 235.372 120.727 234.244C120.747 233.114 120.728 231.853 120.669 230.461C120.61 229.069 120.47 227.674 120.249 226.274L119.98 224.532L124.89 223.455ZM141.387 224.789C139.106 225.29 136.996 225.351 135.058 224.972C133.13 224.59 131.519 223.845 130.224 222.735C128.938 221.612 128.113 220.201 127.751 218.5C127.451 217.183 127.472 215.908 127.813 214.675C128.153 213.442 128.739 212.348 129.57 211.394C130.408 210.427 131.419 209.707 132.602 209.233L132.555 209.018C130.86 209.015 129.37 208.479 128.084 207.409C126.807 206.328 125.987 204.937 125.625 203.236C125.26 201.622 125.393 200.081 126.026 198.613C126.658 197.144 127.687 195.873 129.113 194.799C130.538 193.714 132.268 192.949 134.303 192.502C136.319 192.06 138.195 192.034 139.932 192.425C141.677 192.803 143.144 193.527 144.333 194.596C145.532 195.662 146.309 197.004 146.664 198.62C147.036 200.319 146.859 201.929 146.131 203.45C145.411 204.959 144.298 206.067 142.79 206.773L142.838 206.987C144.11 206.923 145.319 207.156 146.465 207.687C147.619 208.206 148.609 208.954 149.435 209.931C150.27 210.906 150.833 212.053 151.123 213.373C151.495 215.071 151.327 216.7 150.619 218.26C149.908 219.81 148.757 221.162 147.166 222.315C145.585 223.466 143.658 224.291 141.387 224.789ZM140.424 220.4C141.601 220.142 142.58 219.718 143.362 219.129C144.142 218.529 144.691 217.808 145.011 216.965C145.33 216.123 145.389 215.22 145.188 214.256C144.958 213.256 144.503 212.428 143.823 211.773C143.151 211.106 142.327 210.649 141.351 210.402C140.385 210.153 139.344 210.15 138.229 210.395C137.104 210.642 136.149 211.082 135.366 211.715C134.583 212.348 134.021 213.109 133.68 213.999C133.347 214.876 133.295 215.815 133.526 216.815C133.726 217.779 134.148 218.577 134.79 219.208C135.431 219.829 136.23 220.248 137.19 220.467C138.159 220.683 139.238 220.661 140.424 220.4ZM137.283 206.083C138.245 205.872 139.051 205.491 139.702 204.941C140.364 204.388 140.833 203.717 141.11 202.927C141.387 202.137 141.431 201.286 141.242 200.373C141.034 199.475 140.646 198.734 140.079 198.151C139.509 197.558 138.81 197.159 137.982 196.954C137.153 196.74 136.252 196.739 135.28 196.952C134.287 197.17 133.454 197.551 132.78 198.096C132.114 198.628 131.647 199.283 131.378 200.06C131.117 200.825 131.09 201.657 131.298 202.555C131.487 203.467 131.868 204.226 132.44 204.829C133.02 205.42 133.727 205.834 134.562 206.069C135.404 206.291 136.311 206.296 137.283 206.083ZM168.591 218.821C166.309 219.321 164.199 219.382 162.261 219.003C160.333 218.622 158.722 217.876 157.428 216.766C156.141 215.644 155.317 214.232 154.954 212.532C154.655 211.214 154.675 209.939 155.016 208.707C155.357 207.474 155.942 206.38 156.773 205.426C157.612 204.459 158.623 203.739 159.805 203.265L159.758 203.05C158.063 203.046 156.573 202.51 155.288 201.441C154.01 200.36 153.19 198.968 152.828 197.268C152.463 195.654 152.597 194.113 153.229 192.644C153.861 191.176 154.89 189.905 156.317 188.83C157.741 187.746 159.471 186.98 161.507 186.533C163.522 186.091 165.398 186.066 167.135 186.457C168.881 186.835 170.348 187.559 171.536 188.628C172.735 189.694 173.512 191.036 173.867 192.652C174.24 194.35 174.062 195.96 173.334 197.482C172.614 198.991 171.501 200.098 169.994 200.804L170.041 201.019C171.313 200.954 172.523 201.188 173.669 201.719C174.823 202.238 175.812 202.986 176.638 203.963C177.474 204.937 178.036 206.085 178.326 207.404C178.699 209.103 178.531 210.732 177.822 212.292C177.111 213.842 175.96 215.193 174.369 216.347C172.788 217.498 170.862 218.323 168.591 218.821ZM167.628 214.432C168.804 214.174 169.783 213.75 170.565 213.16C171.345 212.56 171.895 211.839 172.214 210.997C172.533 210.155 172.592 209.252 172.392 208.288C172.162 207.288 171.706 206.46 171.027 205.805C170.355 205.137 169.531 204.68 168.554 204.433C167.588 204.184 166.548 204.182 165.432 204.427C164.307 204.674 163.353 205.113 162.569 205.746C161.786 206.379 161.224 207.141 160.883 208.03C160.55 208.908 160.499 209.847 160.729 210.847C160.93 211.811 161.351 212.608 161.994 213.239C162.634 213.86 163.434 214.28 164.393 214.498C165.363 214.715 166.441 214.692 167.628 214.432ZM164.486 200.114C165.448 199.903 166.255 199.523 166.906 198.972C167.567 198.42 168.037 197.749 168.314 196.959C168.591 196.169 168.634 195.317 168.445 194.405C168.237 193.507 167.85 192.766 167.282 192.183C166.712 191.589 166.013 191.19 165.186 190.986C164.356 190.771 163.455 190.771 162.483 190.984C161.491 191.201 160.658 191.583 159.984 192.127C159.318 192.659 158.85 193.314 158.581 194.092C158.32 194.857 158.293 195.688 158.501 196.586C158.69 197.499 159.071 198.257 159.643 198.861C160.223 199.452 160.931 199.865 161.765 200.1C162.607 200.323 163.514 200.328 164.486 200.114ZM184.528 214.874L183.626 210.761L192.19 197.671C193.002 196.389 193.666 195.262 194.182 194.291C194.698 193.32 195.046 192.412 195.226 191.569C195.405 190.725 195.4 189.869 195.209 188.999C194.991 188.007 194.58 187.207 193.975 186.6C193.367 185.982 192.627 185.566 191.754 185.35C190.881 185.134 189.943 185.136 188.941 185.356C187.908 185.583 187.049 185.996 186.366 186.596C185.681 187.186 185.208 187.917 184.949 188.789C184.7 189.659 184.694 190.63 184.929 191.705L179.512 192.893C179.075 190.898 179.149 189.064 179.737 187.391C180.324 185.718 181.327 184.303 182.746 183.144C184.174 181.984 185.927 181.176 188.004 180.72C190.112 180.258 192.05 180.245 193.818 180.683C195.587 181.12 197.062 181.928 198.243 183.106C199.433 184.282 200.222 185.749 200.608 187.509C200.866 188.685 200.895 189.891 200.694 191.125C200.493 192.359 199.976 193.792 199.143 195.422C198.321 197.05 197.107 199.07 195.502 201.48L191.294 208.178L191.341 208.393L205.03 205.39L206.073 210.147L184.528 214.874ZM214.234 208.71C213.303 208.915 212.433 208.762 211.624 208.253C210.816 207.745 210.313 207.018 210.117 206.075C209.905 205.156 210.059 204.297 210.581 203.496C211.102 202.696 211.828 202.193 212.759 201.989C213.659 201.791 214.514 201.947 215.322 202.456C216.141 202.962 216.657 203.675 216.869 204.594C216.996 205.22 216.957 205.824 216.752 206.405C216.557 206.984 216.238 207.483 215.793 207.902C215.357 208.308 214.837 208.578 214.234 208.71ZM233.043 204.857C230.516 205.411 228.207 205.248 226.115 204.366C224.032 203.472 222.238 201.92 220.734 199.708C219.238 197.484 218.115 194.659 217.363 191.232C216.621 187.802 216.467 184.78 216.901 182.165C217.343 179.537 218.326 177.392 219.848 175.728C221.38 174.062 223.405 172.953 225.922 172.401C228.438 171.849 230.741 172.008 232.83 172.88C234.92 173.751 236.71 175.288 238.201 177.492C239.703 179.693 240.828 182.502 241.578 185.919C242.332 189.356 242.491 192.399 242.053 195.047C241.623 197.683 240.643 199.839 239.113 201.515C237.593 203.189 235.57 204.303 233.043 204.857ZM231.989 200.054C233.953 199.623 235.291 198.316 236.002 196.133C236.722 193.938 236.667 190.953 235.839 187.178C235.291 184.682 234.57 182.642 233.676 181.058C232.781 179.474 231.764 178.357 230.624 177.706C229.482 177.045 228.261 176.858 226.962 177.143C225.008 177.571 223.676 178.882 222.967 181.075C222.256 183.258 222.306 186.223 223.117 189.969C223.657 192.478 224.37 194.53 225.256 196.127C226.153 197.721 227.172 198.848 228.315 199.509C229.455 200.16 230.679 200.341 231.989 200.054ZM261.174 198.685C258.647 199.239 256.338 199.076 254.247 198.194C252.163 197.3 250.37 195.748 248.866 193.536C247.37 191.312 246.246 188.487 245.494 185.06C244.753 181.63 244.599 178.608 245.033 175.993C245.475 173.365 246.457 171.219 247.98 169.556C249.512 167.89 251.537 166.781 254.053 166.229C256.57 165.677 258.873 165.836 260.962 166.707C263.051 167.579 264.842 169.116 266.333 171.319C267.835 173.521 268.96 176.33 269.71 179.747C270.464 183.184 270.622 186.227 270.185 188.875C269.755 191.511 268.775 193.666 267.245 195.343C265.725 197.016 263.701 198.131 261.174 198.685ZM260.121 193.882C262.085 193.451 263.423 192.144 264.134 189.961C264.853 187.766 264.799 184.781 263.971 181.006C263.423 178.51 262.702 176.47 261.808 174.886C260.913 173.302 259.896 172.185 258.756 171.534C257.614 170.873 256.393 170.685 255.094 170.971C253.14 171.399 251.808 172.71 251.099 174.903C250.388 177.086 250.438 180.05 251.249 183.797C251.789 186.306 252.502 188.358 253.388 189.954C254.285 191.549 255.304 192.676 256.446 193.337C257.586 193.987 258.811 194.169 260.121 193.882Z" fill="#182700"/>
</g>
<rect x="0.693351" y="56.3584" width="259.749" height="225.603" rx="20.3744" transform="rotate(-12.3746 0.693351 56.3584)" stroke="#EFEFEF" stroke-width="1.16425"/>
<defs>
<clipPath id="clip0_31_4835">
<rect y="55.9146" width="260.913" height="226.768" rx="20.9565" transform="rotate(-12.3746 0 55.9146)" fill="white"/>
</clipPath>
<clipPath id="clip1_31_4835">
<rect x="24.9609" y="71.8931" width="204.796" height="65.2557" rx="12.8067" transform="rotate(-12.3746 24.9609 71.8931)" fill="white"/>
</clipPath>
<clipPath id="clip2_31_4835">
<rect width="37.256" height="37.256" fill="white" transform="translate(50.6992 80.5488) rotate(-12.3746)"/>
</clipPath>
</defs>
</svg>
